<svg width="463" height="500" viewBox="0 0 463 500" fill="none" xmlns="http://www.w3.org/2000/svg">
<g opacity="0.2">
<path opacity="0.090909" d="M154.122 231.02C161.91 226.512 171.747 224.053 181.995 224.053C186.094 224.053 189.783 224.463 193.472 225.282C197.161 226.102 201.67 228.151 204.949 229.79L446.79 369.135C454.988 374.053 459.497 381.43 459.087 389.626C459.087 392.085 458.267 394.135 457.447 396.594C455.398 402.331 449.249 408.889 442.691 412.577L306.194 491.676C304.555 492.495 302.095 493.725 300.456 494.544C293.897 497.413 286.519 498.643 278.731 498.643C270.123 498.643 262.335 497.004 256.187 493.315L13.936 353.151C5.73799 348.233 1.22909 340.856 1.63899 332.249C1.63899 330.2 2.04889 328.151 2.86869 326.512C4.91819 320.364 11.0667 313.807 18.035 309.708L154.122 231.02Z" fill="black"/>
<path opacity="0.1818" d="M154.532 232.249C162.32 227.741 172.568 225.282 181.995 225.692C186.094 225.692 189.784 226.511 193.473 227.331C196.752 228.151 202.081 230.2 204.54 231.839L445.151 370.774C453.349 375.692 457.448 383.069 456.218 391.265C455.808 393.315 455.399 395.774 454.169 397.823C452.119 403.151 445.151 409.708 439.003 412.987L305.375 490.036C303.736 490.856 301.276 492.085 299.637 492.905C293.078 495.774 285.7 497.003 278.322 497.413C269.714 497.413 261.926 495.774 256.187 492.085L14.3465 352.331C6.14851 347.413 2.04951 340.036 3.27921 331.839C3.68911 329.79 4.09901 328.151 4.91881 326.101C6.96831 320.364 13.9366 313.397 20.495 309.708L154.532 232.249Z" fill="black"/>
<path opacity="0.2727" d="M155.353 233.478C163.141 228.97 173.388 226.511 182.816 226.921C186.915 226.921 190.604 227.74 193.883 228.56C196.753 229.38 202.491 231.839 204.951 233.478L444.742 372.003C452.94 376.921 456.629 384.298 454.989 392.085C454.58 394.134 453.76 396.183 452.94 398.232C450.89 402.74 443.102 409.708 437.774 412.986L305.786 489.216C304.556 490.035 301.687 491.265 300.047 492.085C293.899 494.953 286.521 496.593 279.143 496.593C270.945 496.593 263.156 494.953 257.008 491.675L15.1672 351.101C6.96922 346.183 3.28012 338.806 5.32962 331.019C5.73952 329.38 6.55932 327.331 6.96922 325.691C9.01872 320.773 17.2167 313.396 22.5454 310.117L155.353 233.478Z" fill="black"/>
<path opacity="0.3636" d="M155.762 234.298C163.55 229.79 173.798 227.741 183.225 228.15C187.324 228.15 191.014 229.38 194.293 230.2C196.752 231.019 202.901 233.888 205.36 235.118L444.331 372.822C452.529 377.741 455.399 385.118 453.349 392.495C452.939 394.544 451.71 396.183 450.89 398.232C448.84 402.331 440.232 409.708 435.724 412.167L305.785 487.577C304.556 488.396 301.686 490.036 300.457 490.445C294.308 493.314 287.34 494.954 279.962 494.954C271.764 494.954 263.976 493.314 258.237 490.036L15.5765 350.282C7.37848 345.363 4.50919 337.986 6.55868 330.2C6.96858 328.56 7.78838 326.921 8.60818 325.282C10.2478 321.183 19.6755 312.986 24.5943 310.118L155.762 234.298Z" fill="black"/>
<path opacity="0.4545" d="M156.581 235.527C164.37 231.019 174.617 228.97 184.045 229.379C188.144 229.789 191.833 230.609 195.112 231.429C197.571 232.248 204.13 235.527 205.769 236.347L443.921 373.642C452.119 378.15 454.578 385.937 452.119 393.314C451.299 395.363 450.07 397.002 449.25 399.051C447.61 402.33 437.773 410.117 433.674 412.576L305.785 486.347C304.965 486.756 301.276 488.806 300.456 489.215C294.308 492.084 287.339 493.724 280.371 493.724C272.173 494.133 264.795 492.494 259.056 489.215L15.9858 349.051C7.78785 344.133 5.32845 336.756 8.19775 329.379C8.60765 327.74 9.83735 326.101 10.6571 324.461C12.2967 320.773 22.5442 312.576 27.0531 310.117L156.581 235.527Z" fill="black"/>
<path opacity="0.5455" d="M156.992 236.347C164.78 231.839 175.028 229.79 184.455 230.609C188.554 231.019 191.833 231.839 195.523 233.068C197.572 233.478 204.54 237.167 206.18 238.396L443.102 375.282C451.3 379.79 453.349 387.167 450.48 394.544C449.66 396.183 448.84 398.232 447.201 399.872C446.381 402.741 434.904 410.527 431.625 412.577L305.786 485.527C304.966 485.937 301.277 487.986 300.457 488.396C294.308 490.855 287.75 492.905 280.782 493.314C272.994 493.724 265.206 492.085 259.877 488.806L16.8064 347.823C8.60836 342.905 6.55886 335.527 9.83806 328.15C10.6579 326.511 11.4777 325.282 12.7074 323.642C13.5272 320.364 25.8241 312.167 29.1033 310.118L156.992 236.347Z" fill="black"/>
<path opacity="0.6364" d="M157.81 237.576C165.599 233.068 175.846 231.019 184.864 231.838C188.963 232.248 192.242 233.478 195.521 234.298C197.161 234.707 204.949 238.806 206.179 239.625L442.691 376.101C450.889 380.609 452.528 387.986 448.839 394.953C448.019 396.593 446.79 398.232 445.15 399.871C444.33 402.33 432.033 410.527 429.164 412.166L305.374 483.478C304.555 483.888 300.865 485.937 300.046 486.347C294.307 488.806 287.339 490.855 280.78 491.265C272.992 491.675 265.614 490.035 260.285 486.757L17.2149 347.002C9.01691 342.084 7.37732 334.707 11.4763 327.74C12.2961 326.101 13.1159 324.871 14.7555 323.642C15.5753 321.183 28.6921 312.166 31.5614 310.527L157.81 237.576Z" fill="black"/>
<path opacity="0.7273" d="M158.221 238.397C166.009 233.889 176.256 231.84 185.274 233.069C189.373 233.479 192.652 234.709 195.931 235.938C197.161 236.348 205.359 240.856 206.589 241.266L441.871 376.922C450.069 381.43 451.299 388.807 447.2 395.774C446.38 397.413 444.74 399.053 443.101 400.282C442.691 401.922 429.164 410.528 427.115 411.758L304.965 482.249C304.555 482.659 300.456 484.709 300.046 485.118C294.307 487.577 287.749 489.627 281.19 490.036C273.402 490.446 266.024 489.217 260.695 485.938L18.0349 345.774C9.83691 340.856 8.60722 333.479 13.1161 326.512C13.9359 325.282 15.1656 323.643 16.3953 322.413C16.8052 320.364 31.1517 311.348 33.6111 310.118L158.221 238.397Z" fill="black"/>
<path opacity="0.8182" d="M159.041 239.626C166.829 235.117 177.077 233.478 186.094 234.298C190.193 234.708 193.473 235.937 196.752 237.167C197.572 237.576 206.589 242.495 206.999 242.904L441.462 378.15C449.25 382.658 450.48 390.035 445.561 396.593C444.331 398.232 443.101 399.462 441.462 400.691C441.052 401.921 426.705 410.937 425.066 411.347L304.965 480.609C304.555 480.609 300.456 483.068 300.046 483.478C294.308 485.937 288.159 487.986 281.191 488.396C273.813 488.806 266.435 487.576 261.106 484.298L18.4454 344.954C10.2474 340.445 9.42761 332.658 14.7563 326.101C15.986 324.872 17.2157 323.642 18.4454 322.413C18.8553 321.183 34.4315 311.757 35.6612 310.937L159.041 239.626Z" fill="black"/>
<path opacity="0.9091" d="M159.451 240.855C167.239 236.347 177.486 234.707 186.504 235.937C190.603 236.347 193.882 237.986 197.161 239.215C197.571 239.215 206.999 244.543 207.409 244.953L440.642 379.789C448.43 384.297 449.66 391.674 443.921 397.822C442.691 399.051 441.052 400.691 439.412 401.92C439.412 402.33 423.836 411.756 423.016 412.166L304.555 480.609L299.636 483.478C294.308 485.937 287.749 487.986 281.191 488.396C273.813 488.806 266.844 487.576 261.516 484.707L19.265 343.724C11.067 339.215 10.2472 331.429 16.3957 325.281C17.6254 324.051 18.8551 322.822 20.4947 322.002C20.4947 321.183 37.3005 311.347 38.1203 310.937L159.451 240.855Z" fill="black"/>
<path opacity="0.2" d="M262.336 482.659L19.6754 342.905C10.2477 337.577 11.4774 327.741 22.5447 321.184L160.271 241.676C171.338 235.118 188.144 234.708 197.572 240.036L440.232 380.2C449.66 385.528 448.43 395.364 437.363 401.921L299.637 481.43C288.57 487.577 272.174 488.397 262.336 482.659Z" fill="black"/>
</g>
<path d="M262.336 482.659L19.6756 342.495C15.5766 340.036 13.1172 336.758 13.1172 333.479V321.594C13.1172 317.495 16.3964 324.872 22.135 321.184L160.271 241.676C171.338 235.118 188.144 234.708 197.572 240.036L440.233 380.2C443.512 382.249 445.561 374.053 446.381 376.512C446.791 377.331 446.381 388.397 446.381 389.217C446.381 393.315 443.512 398.233 437.363 401.512L299.637 481.02C288.57 487.577 272.174 487.987 262.336 482.659Z" fill="url(#paint0_linear)"/>
<path d="M262.336 470.774L19.6754 330.61C10.2477 325.282 11.4774 315.446 22.5447 308.889L160.271 229.381C171.338 222.823 188.144 222.413 197.572 227.741L440.232 367.905C449.66 373.233 448.43 383.069 437.363 389.626L299.637 469.135C288.57 475.692 272.174 476.102 262.336 470.774Z" fill="url(#paint1_linear)"/>
<path d="M278.731 469.543C273.403 469.543 268.484 468.314 264.795 466.265L22.1342 326.511C20.4946 325.691 18.0352 323.642 18.0352 321.183C18.0352 318.724 20.4946 315.445 24.5935 312.986L162.32 233.478C167.239 230.609 174.207 228.97 181.175 228.97C186.504 228.97 191.423 230.199 195.112 232.248L437.772 372.412C439.412 373.232 441.871 375.281 441.871 377.74C441.871 380.199 439.412 383.478 435.313 385.937L297.587 465.445C292.258 467.904 285.29 469.543 278.731 469.543Z" fill="url(#paint2_linear)"/>
<path d="M437.363 387.577L299.637 467.085C288.57 473.643 271.764 474.052 262.336 468.725L19.6758 328.561C15.5768 326.102 13.5273 323.233 13.1174 319.954C12.7075 324.052 14.757 327.741 19.6758 330.61L262.336 470.774C271.764 476.102 288.57 475.692 299.637 469.134L437.363 389.626C443.922 385.938 446.791 381.02 446.381 376.511C445.971 380.61 443.102 384.708 437.363 387.577Z" fill="white"/>
<path d="M305.375 419.135L108.623 305.61C104.524 303.151 105.344 299.462 109.853 296.594L183.635 253.971C188.144 251.512 195.112 251.102 199.211 253.151L396.373 366.676C400.472 369.135 399.652 372.823 395.143 375.692L321.361 418.315C316.443 421.184 309.474 421.594 305.375 419.135Z" fill="url(#paint3_linear)"/>
<path opacity="0.3" d="M187.733 262.166L200.44 269.543C202.08 270.363 204.539 270.363 206.179 269.543C207.818 268.724 207.818 267.084 206.179 266.265L193.472 258.888C191.832 258.068 189.373 258.068 187.733 258.888C186.094 259.707 186.094 261.347 187.733 262.166ZM209.458 274.871L215.606 278.15C217.246 278.97 219.705 278.97 221.345 278.15C222.985 277.33 222.985 275.691 221.345 274.871L215.197 271.593C213.557 270.773 211.098 270.773 209.458 271.593C207.818 272.412 207.818 273.642 209.458 274.871ZM224.624 283.478L230.773 286.757C232.412 287.576 234.872 287.576 236.511 286.757C238.151 285.937 238.151 284.298 236.511 283.478L230.363 280.199C228.723 279.38 226.264 279.38 224.624 280.199C222.985 281.019 222.985 282.248 224.624 283.478ZM239.381 292.084L245.529 295.363C247.169 296.183 249.628 296.183 251.268 295.363C252.907 294.543 252.907 292.904 251.268 292.084L245.119 288.806C243.48 287.986 241.02 287.986 239.381 288.806C237.741 289.625 237.741 290.855 239.381 292.084ZM254.547 300.691L260.695 303.97C262.335 304.789 264.794 304.789 266.434 303.97C268.074 303.15 268.074 301.511 266.434 300.691L260.285 297.412C258.646 296.593 256.186 296.593 254.547 297.412C252.907 298.232 252.907 299.871 254.547 300.691ZM269.303 309.298L275.452 312.576C277.091 313.396 279.551 313.396 281.19 312.576C282.83 311.757 282.83 310.117 281.19 309.298L275.042 306.019C273.402 305.199 270.943 305.199 269.303 306.019C267.664 306.838 267.664 308.478 269.303 309.298ZM284.47 317.904L290.618 321.183C292.258 322.002 294.717 322.002 296.357 321.183C297.996 320.363 297.996 318.724 296.357 317.904L290.208 314.625C288.569 313.806 286.109 313.806 284.47 314.625C282.83 315.445 282.83 317.084 284.47 317.904ZM299.226 326.511L305.374 329.789C307.014 330.609 309.473 330.609 311.113 329.789C312.753 328.97 312.753 327.33 311.113 326.511L304.965 323.232C303.325 322.412 300.866 322.412 299.226 323.232C297.586 324.052 297.586 325.691 299.226 326.511ZM314.392 335.117L320.541 338.396C322.18 339.216 324.64 339.216 326.279 338.396C327.919 337.576 327.919 335.937 326.279 335.117L320.131 331.838C318.491 331.019 316.032 331.019 314.392 331.838C312.753 332.658 312.753 334.298 314.392 335.117ZM329.149 343.724L335.297 347.002C336.937 347.822 339.396 347.822 341.036 347.002C342.675 346.183 342.675 344.543 341.036 343.724L334.887 340.445C333.248 339.625 330.788 339.625 329.149 340.445C327.509 341.265 327.509 342.904 329.149 343.724ZM344.315 352.33L350.463 355.609C352.103 356.429 354.562 356.429 356.202 355.609C357.842 354.789 357.842 353.15 356.202 352.33L350.054 349.052C348.414 348.232 345.955 348.232 344.315 349.052C342.675 349.871 342.675 351.511 344.315 352.33ZM359.071 360.937L365.22 364.216C366.859 365.035 369.319 365.035 370.958 364.216C372.598 363.396 372.598 361.757 370.958 360.937L364.81 357.658C363.17 356.839 360.711 356.839 359.071 357.658C357.432 358.478 357.432 360.117 359.071 360.937ZM374.648 369.953L380.796 373.232C382.436 374.052 384.895 374.052 386.535 373.232C388.174 372.412 388.174 370.773 386.535 369.953L380.386 366.675C378.747 365.855 376.287 365.855 374.648 366.675C373.008 367.494 373.008 369.134 374.648 369.953ZM174.616 270.363L179.945 273.232C181.585 274.461 184.864 274.461 186.504 273.232L191.832 270.363C193.472 269.134 193.472 267.494 191.832 266.675L186.504 263.806C184.864 262.576 181.585 262.576 179.945 263.806L174.616 266.675C172.567 267.494 172.567 269.543 174.616 270.363ZM201.26 282.248L206.589 279.379C208.228 278.15 208.228 276.511 206.589 275.691L201.26 272.822C199.62 271.593 196.341 271.593 194.702 272.822L189.373 275.691C187.733 276.92 187.733 278.56 189.373 279.379L194.702 282.248C196.341 283.068 199.21 283.068 201.26 282.248ZM204.539 287.576L209.868 290.445C211.507 291.675 214.787 291.675 216.426 290.445L221.755 287.576C223.394 286.347 223.394 284.707 221.755 283.888L216.426 281.019C214.787 279.789 211.507 279.789 209.868 281.019L204.539 283.888C202.49 285.117 202.49 286.757 204.539 287.576ZM219.296 296.183L224.624 299.052C226.264 300.281 229.543 300.281 231.183 299.052L236.511 296.183C238.151 294.953 238.151 293.314 236.511 292.494L231.183 289.625C229.543 288.396 226.264 288.396 224.624 289.625L219.296 292.494C217.656 293.724 217.656 295.363 219.296 296.183ZM251.268 301.101L245.939 298.232C244.299 297.002 241.02 297.002 239.381 298.232L234.052 301.101C232.412 302.33 232.412 303.97 234.052 304.789L239.381 307.658C241.02 308.888 244.299 308.888 245.939 307.658L251.268 304.789C252.907 303.97 252.907 302.33 251.268 301.101ZM266.024 309.707L260.695 306.839C259.056 305.609 255.777 305.609 254.137 306.839L248.808 309.707C247.169 310.937 247.169 312.576 248.808 313.396L254.137 316.265C255.777 317.494 259.056 317.494 260.695 316.265L266.024 313.396C268.074 312.576 268.074 310.937 266.024 309.707ZM281.19 318.314L275.862 315.445C274.222 314.216 270.943 314.216 269.303 315.445L263.975 318.314C262.335 319.543 262.335 321.183 263.975 322.002L269.303 324.871C270.943 326.101 274.222 326.101 275.862 324.871L281.19 322.002C282.83 321.183 282.83 319.543 281.19 318.314ZM295.947 327.33L291.028 324.052C289.388 322.822 286.109 322.822 284.47 324.052L279.141 326.92C277.501 328.15 277.501 329.789 279.141 330.609L284.47 333.478C286.109 334.707 289.388 334.707 291.028 333.478L296.357 330.609C297.996 329.789 297.996 328.15 295.947 327.33ZM311.113 335.937L305.784 333.068C304.145 331.839 300.866 331.839 299.226 333.068L294.307 335.937C292.668 337.166 292.668 338.806 294.307 339.625L299.636 342.494C301.275 343.724 304.555 343.724 306.194 342.494L311.523 339.625C312.753 338.396 312.753 336.757 311.113 335.937ZM325.869 344.543L320.541 341.675C318.901 340.445 315.622 340.445 313.982 341.675L308.654 344.543C307.014 345.773 307.014 347.412 308.654 348.232L313.982 351.101C315.622 352.33 318.901 352.33 320.541 351.101L325.869 348.232C327.919 347.002 327.919 345.363 325.869 344.543ZM324.23 356.838L329.559 359.707C331.198 360.937 334.477 360.937 336.117 359.707L341.446 356.838C343.085 355.609 343.085 353.97 341.446 353.15L336.117 350.281C334.477 349.052 331.198 349.052 329.559 350.281L324.23 353.15C322.18 353.97 322.18 355.609 324.23 356.838ZM355.792 361.757L350.463 358.888C348.824 357.658 345.545 357.658 343.905 358.888L338.576 361.757C336.937 362.986 336.937 364.625 338.576 365.445L343.905 368.314C345.545 369.543 348.824 369.543 350.463 368.314L355.792 365.445C357.842 364.625 357.842 362.576 355.792 361.757ZM377.927 374.461L366.04 367.494C364.4 366.265 361.121 366.265 359.481 367.494L354.153 370.363C352.513 371.593 352.513 373.232 354.153 374.052L366.04 381.019C367.679 382.248 370.958 382.248 372.598 381.019L377.927 378.15C379.566 377.33 379.566 375.281 377.927 374.461ZM160.68 278.56L172.567 285.527C174.207 286.757 177.486 286.757 179.125 285.527L184.454 282.658C186.094 281.429 186.094 279.789 184.454 278.97L172.157 271.593C170.517 270.363 167.238 270.363 165.599 271.593L160.68 274.461C158.63 275.691 158.63 277.33 160.68 278.56ZM181.995 290.855L187.323 293.724C188.963 294.953 192.242 294.953 193.882 293.724L199.21 290.855C200.85 289.625 200.85 287.986 199.21 287.166L193.882 284.298C192.242 283.068 188.963 283.068 187.323 284.298L181.995 287.166C180.355 287.986 180.355 290.035 181.995 290.855ZM202.49 302.74C204.129 303.97 207.408 303.97 209.048 302.74L214.377 299.871C216.016 298.642 216.016 297.002 214.377 296.183L209.048 292.904C207.408 291.675 204.129 291.675 202.49 292.904L197.161 295.773C195.521 297.002 195.521 298.642 197.161 299.461L202.49 302.74ZM217.246 311.347C218.886 312.576 222.165 312.576 223.804 311.347L229.133 308.478C230.773 307.248 230.773 305.609 229.133 304.789L223.804 301.92C222.165 300.691 218.886 300.691 217.246 301.92L211.917 304.789C210.278 306.019 210.278 307.658 211.917 308.478L217.246 311.347ZM232.412 310.117L227.084 312.986C225.444 314.216 225.444 315.855 227.084 316.675L232.412 319.543C234.052 320.773 237.331 320.773 238.971 319.543L244.299 316.675C245.939 315.445 245.939 313.806 244.299 312.986L238.971 310.117C236.921 308.888 234.052 308.888 232.412 310.117ZM247.579 318.724L241.84 322.002C240.2 322.822 240.2 324.461 241.84 325.281L247.579 328.56C249.218 329.379 252.087 329.379 253.727 328.56L259.466 325.281C261.105 324.461 261.105 322.822 259.466 322.002L253.727 318.724C251.678 317.494 249.218 317.494 247.579 318.724ZM262.335 327.33L256.596 330.609C254.957 331.429 254.957 333.068 256.596 333.888L262.335 337.166C263.975 337.986 266.844 337.986 268.483 337.166L274.222 333.888C275.862 333.068 275.862 331.429 274.222 330.609L268.483 327.33C266.844 326.101 263.975 326.101 262.335 327.33ZM277.501 335.937L271.763 339.216C270.123 340.035 270.123 341.675 271.763 342.494L277.501 345.773C279.141 346.593 282.01 346.593 283.65 345.773L289.388 342.494C291.028 341.675 291.028 340.035 289.388 339.216L283.24 335.937C281.6 334.707 279.141 334.707 277.501 335.937ZM292.258 344.543L286.519 347.822C284.879 348.642 284.879 350.281 286.519 351.101L292.258 354.379C293.897 355.199 296.767 355.199 298.406 354.379L304.145 351.101C305.784 350.281 305.784 348.642 304.145 347.822L298.406 344.543C296.767 343.314 293.897 343.314 292.258 344.543ZM307.424 353.15L301.685 356.429C300.046 357.248 300.046 358.888 301.685 359.707L307.424 362.986C309.064 363.806 311.933 363.806 313.572 362.986L319.311 359.707C320.951 358.888 320.951 357.248 319.311 356.429L313.572 353.15C311.523 352.33 309.064 352.33 307.424 353.15ZM328.329 372.002L334.067 368.724C335.707 367.904 335.707 366.265 334.067 365.445L328.329 362.166C326.689 361.347 323.82 361.347 322.18 362.166L316.442 365.445C314.802 366.265 314.802 367.904 316.442 368.724L322.18 372.002C324.23 372.822 326.689 372.822 328.329 372.002ZM343.495 380.609L349.234 377.33C350.873 376.511 350.873 374.871 349.234 374.052L343.495 370.773C341.856 369.953 338.986 369.953 337.347 370.773L331.608 374.052C329.968 374.871 329.968 376.511 331.608 377.33L337.347 380.609C338.986 381.429 341.856 381.429 343.495 380.609ZM364.4 382.658L358.661 379.379C357.022 378.56 354.153 378.56 352.513 379.379L346.774 382.658C345.135 383.478 345.135 385.117 346.774 385.937L352.513 389.216C354.153 390.035 357.022 390.035 358.661 389.216L364.4 385.937C366.04 385.117 366.04 383.478 364.4 382.658ZM146.333 286.347L165.189 297.002C166.828 297.822 169.698 297.822 171.337 297.002L177.076 293.724C178.715 292.904 178.715 291.265 177.076 290.445L158.22 279.789C156.581 278.97 153.712 278.97 152.072 279.789L146.333 282.658C144.694 283.888 144.694 285.117 146.333 286.347ZM174.207 302.33L179.945 305.609C181.585 306.429 184.454 306.429 186.094 305.609L191.832 302.33C193.472 301.511 193.472 299.871 191.832 299.052L186.094 295.773C184.454 294.953 181.585 294.953 179.945 295.773L174.207 299.052C172.567 299.871 172.567 301.511 174.207 302.33ZM189.373 310.937L195.111 314.216C196.751 315.035 199.62 315.035 201.26 314.216L206.999 310.937C208.638 310.117 208.638 308.478 206.999 307.658L200.85 304.38C199.21 303.56 196.341 303.56 194.702 304.38L188.963 307.658C187.733 308.478 187.733 310.117 189.373 310.937ZM204.129 319.543L209.868 322.822C211.507 323.642 214.377 323.642 216.016 322.822L221.755 319.543C223.394 318.724 223.394 317.084 221.755 316.265L216.016 312.986C214.377 312.166 211.507 312.166 209.868 312.986L204.129 316.265C202.49 317.084 202.49 318.724 204.129 319.543ZM231.183 331.838L236.921 328.56C238.561 327.74 238.561 326.101 236.921 325.281L231.183 322.002C229.543 321.183 226.674 321.183 225.034 322.002L219.296 325.281C217.656 326.101 217.656 327.74 219.296 328.56L225.034 331.838C226.674 332.658 229.543 332.658 231.183 331.838ZM245.939 340.445L251.678 337.166C253.317 336.347 253.317 334.707 251.678 333.888L245.939 330.199C244.299 329.379 241.43 329.379 239.79 330.199L234.052 333.478C232.412 334.298 232.412 335.937 234.052 336.757L239.79 340.035C241.84 341.265 244.299 341.265 245.939 340.445ZM261.105 349.052L266.844 345.773C268.483 344.953 268.483 343.314 266.844 342.494L261.105 339.216C259.466 338.396 256.596 338.396 254.957 339.216L249.218 342.494C247.579 343.314 247.579 344.953 249.218 345.773L254.957 349.052C256.596 349.871 259.466 349.871 261.105 349.052ZM275.862 357.658L281.6 354.379C283.24 353.56 283.24 351.92 281.6 351.101L275.862 347.822C274.222 347.002 271.353 347.002 269.713 347.822L263.975 351.101C262.335 351.92 262.335 353.56 263.975 354.379L269.713 357.658C271.763 358.478 274.222 358.478 275.862 357.658ZM291.028 366.265L296.767 362.986C298.406 362.166 298.406 360.527 296.767 359.707L291.028 356.429C289.388 355.609 286.519 355.609 284.879 356.429L279.141 359.707C277.501 360.527 277.501 362.166 279.141 362.986L284.879 366.265C286.519 367.084 289.388 367.084 291.028 366.265ZM305.784 374.871L311.523 371.593C313.163 370.773 313.163 369.134 311.523 368.314L305.784 364.625C304.145 363.806 301.275 363.806 299.636 364.625L293.897 367.904C292.258 368.724 292.258 370.363 293.897 371.183L299.636 374.461C301.685 375.691 304.145 375.691 305.784 374.871ZM309.064 380.199L314.802 383.478C316.442 384.297 319.311 384.297 320.951 383.478L326.689 380.199C328.329 379.379 328.329 377.74 326.689 376.92L320.951 373.642C319.311 372.822 316.442 372.822 314.802 373.642L309.064 376.92C307.424 377.74 307.424 379.379 309.064 380.199ZM350.463 390.445L335.707 381.838C334.067 381.019 331.198 381.019 329.559 381.838L323.82 385.527C322.18 386.347 322.18 387.986 323.82 388.806L338.576 397.412C340.216 398.232 343.085 398.232 344.725 397.412L350.463 394.134C352.103 392.904 352.103 391.675 350.463 390.445ZM132.397 294.543L159.04 310.117C161.09 311.347 163.959 311.347 165.599 310.117L170.517 307.248C172.567 306.019 172.157 304.379 170.517 303.56L143.874 287.986C141.824 286.757 138.955 286.757 137.316 287.986L132.397 290.855C130.757 291.675 130.757 293.724 132.397 294.543ZM169.288 315.855L174.207 318.724C176.256 319.953 179.125 319.953 180.765 318.724L185.684 315.855C187.733 314.625 187.323 312.986 185.684 312.166L180.765 309.298C178.715 308.068 175.846 308.068 174.207 309.298L169.288 312.166C167.238 312.986 167.238 314.625 169.288 315.855ZM184.044 324.461L188.963 327.33C191.012 328.56 193.882 328.56 195.521 327.33L200.44 324.461C202.49 323.232 202.08 321.593 200.44 320.773L195.521 317.904C193.472 316.675 190.603 316.675 188.963 317.904L184.044 320.773C182.405 321.593 182.405 323.232 184.044 324.461ZM199.21 333.068L204.129 335.937C206.179 337.166 209.048 337.166 210.688 335.937L215.606 333.068C217.656 331.839 217.246 330.199 215.606 329.379L210.688 326.511C208.638 325.281 205.769 325.281 204.129 326.511L199.21 329.379C197.161 330.199 197.161 331.839 199.21 333.068ZM213.967 341.675L218.886 344.543C220.935 345.773 223.804 345.773 225.444 344.543L230.363 341.675C232.412 340.445 232.002 338.806 230.363 337.986L225.444 335.117C223.395 333.888 220.525 333.888 218.886 335.117L213.967 337.986C212.327 338.806 212.327 340.445 213.967 341.675ZM229.133 350.281L234.052 353.15C236.101 354.379 238.971 354.379 240.61 353.15L245.529 350.281C247.579 349.052 247.169 347.412 245.529 346.593L240.61 343.724C238.561 342.494 235.691 342.494 234.052 343.724L229.133 346.593C227.084 347.412 227.084 349.461 229.133 350.281ZM243.889 358.888L248.808 361.757C250.858 362.986 253.727 362.986 255.367 361.757L260.285 358.888C262.335 357.658 261.925 356.019 260.285 355.199L255.777 352.33C253.727 351.101 250.858 351.101 249.218 352.33L244.299 355.199C242.25 356.019 242.25 358.068 243.889 358.888ZM259.056 367.494L263.975 370.363C266.024 371.593 268.893 371.593 270.533 370.363L275.452 367.494C277.501 366.265 277.091 364.625 275.452 363.806L270.533 360.937C268.483 359.707 265.614 359.707 263.975 360.937L259.056 363.806C257.006 364.625 257.006 366.675 259.056 367.494ZM273.812 376.101L278.731 378.97C280.78 380.199 283.65 380.199 285.289 378.97L290.208 376.101C292.258 374.871 291.848 373.232 290.208 372.412L285.289 369.543C283.24 368.314 280.371 368.314 278.731 369.543L273.812 372.412C272.173 373.642 272.173 375.281 273.812 376.101ZM288.978 385.117L293.897 387.986C295.947 389.216 298.816 389.216 300.456 387.986L305.374 385.117C307.424 383.888 307.014 382.248 305.374 381.429L300.456 378.56C298.406 377.33 295.537 377.33 293.897 378.56L288.978 381.019C286.929 382.248 286.929 383.888 288.978 385.117ZM303.735 393.724L308.654 396.593C310.703 397.822 313.572 397.822 315.212 396.593L320.131 393.724C322.18 392.494 321.77 390.855 320.131 390.035L315.622 386.757C313.572 385.527 310.703 385.527 309.064 386.757L304.145 389.625C302.095 390.855 302.095 392.494 303.735 393.724ZM336.117 398.642L331.198 395.773C329.149 394.543 326.279 394.543 324.64 395.773L319.721 398.642C317.671 399.871 318.081 401.511 319.721 402.33L324.64 405.199C326.689 406.429 329.559 406.429 331.198 405.199L336.117 402.33C337.757 401.511 337.757 399.461 336.117 398.642ZM142.234 302.74L130.347 296.183C128.298 294.953 125.428 294.953 123.789 296.183L118.87 298.642C116.821 299.871 117.23 301.511 118.87 302.33L130.347 308.888C132.397 310.117 135.266 310.117 136.906 308.888L141.824 306.019C143.874 305.609 143.874 303.56 142.234 302.74ZM156.991 311.347L152.072 308.478C150.022 307.248 147.153 307.248 145.514 308.478L140.185 311.347C138.135 312.576 138.545 314.216 140.185 315.035L145.104 317.904C147.153 319.134 150.022 319.134 151.662 317.904L156.581 315.035C159.04 314.216 159.04 312.576 156.991 311.347ZM172.157 319.953L167.238 317.084C165.189 315.855 162.319 315.855 160.68 317.084L155.761 319.953C153.712 321.183 154.121 322.822 155.761 323.642L160.68 326.511C162.729 327.74 165.599 327.74 167.238 326.511L172.157 323.642C173.797 322.822 173.797 321.183 172.157 319.953ZM276.681 380.609L181.995 325.691C179.945 324.461 177.076 324.461 175.436 325.691L170.517 328.56C168.468 329.789 168.878 331.429 170.517 332.248L265.204 387.166C267.254 388.396 270.123 388.396 271.763 387.166L276.681 384.298C278.731 383.068 278.731 381.429 276.681 380.609ZM291.848 389.216L286.929 386.347C284.879 385.117 282.01 385.117 280.371 386.347L275.042 389.216C272.992 390.445 273.402 392.084 275.042 392.904L279.961 395.773C282.01 397.002 284.879 397.002 286.519 395.773L291.438 392.904C293.487 392.084 293.487 390.035 291.848 389.216ZM306.604 397.822L301.685 394.953C299.636 393.724 296.767 393.724 295.127 394.953L290.208 397.822C288.159 399.052 288.569 400.691 290.208 401.511L295.127 404.379C297.176 405.609 300.046 405.609 301.685 404.379L306.604 401.511C308.654 400.691 308.654 398.642 306.604 397.822ZM322.18 406.429L317.262 403.56C315.212 402.33 312.343 402.33 310.703 403.56L305.784 406.429C303.735 407.658 304.145 409.297 305.784 410.117L310.703 412.986C312.753 414.216 315.622 414.216 317.262 412.986L322.18 410.117C323.82 409.297 323.82 407.658 322.18 406.429Z" fill="url(#paint4_linear)"/>
<path d="M436.132 366.265L202.49 231.429C193.472 226.101 186.094 212.167 186.094 200.282V16.6752C186.094 4.78994 193.472 -0.947769 202.49 4.3801L436.132 139.216C445.15 144.544 452.528 158.478 452.528 170.364V353.56C452.528 365.856 445.15 371.593 436.132 366.265Z" fill="url(#paint5_linear)"/>
<path d="M438.592 356.839L206.998 223.233C199.62 218.725 195.111 209.298 195.111 199.872V15.8557C195.111 13.8065 197.571 12.1671 199.62 13.3967C200.03 13.3967 200.03 13.8065 200.03 13.8065L431.623 147.413C440.231 152.331 443.511 161.347 443.511 170.774V354.38C443.511 356.839 441.051 358.479 438.592 356.839Z" fill="url(#paint6_linear)"/>
<path d="M431.624 147.413L200.44 13.3968C200.44 13.3968 200.03 13.3968 200.03 12.987C197.981 11.7575 195.521 13.3968 195.521 15.446V199.462C195.521 208.889 200.03 218.315 207.409 222.823L438.592 356.839C438.592 356.839 439.002 356.839 439.002 357.249C441.051 358.479 443.511 356.839 443.511 354.38V170.774C443.511 161.348 440.232 152.331 431.624 147.413ZM441.461 354.38C441.461 355.2 440.641 355.61 440.232 355.61C439.822 355.61 439.822 355.61 439.412 355.61L208.228 221.594C201.67 217.495 197.161 208.889 197.161 199.872V15.8558C197.161 15.0362 197.571 14.6263 198.391 14.6263H198.801L430.804 148.643C439.822 153.971 441.871 163.397 441.871 170.364V354.38H441.461Z" fill="url(#paint7_linear)"/>
<path d="M441.052 136.757L207.409 1.92111C203.72 -0.128074 200.44 -0.53791 197.981 0.691598C197.571 0.691598 193.062 3.15061 192.652 3.56045C195.522 2.33094 198.801 2.33094 202.9 4.78996L436.543 139.626C445.56 144.954 452.939 158.888 452.939 170.774V353.97C452.939 361.347 450.069 366.675 445.56 367.905C445.97 367.905 446.38 367.905 447.2 367.495C447.61 367.495 452.529 364.626 452.529 364.626C455.808 362.577 457.448 358.069 457.448 351.921V168.315C457.448 156.019 450.069 142.085 441.052 136.757Z" fill="url(#paint8_linear)"/>
<path d="M436.953 138.806L203.31 3.97042C199.621 1.92124 196.342 1.51141 193.473 2.74091C195.932 2.33108 198.391 2.74091 201.261 4.7901L434.904 139.626C443.921 144.954 451.3 158.888 451.3 170.774V353.97C451.3 360.938 448.84 365.856 444.741 367.495C449.66 366.675 453.349 361.347 453.349 353.151V170.364C453.349 158.069 445.971 144.134 436.953 138.806Z" fill="url(#paint9_radial)"/>
<path d="M456.627 169.135C450.479 171.594 442.691 166.266 439.002 157.249C435.313 148.233 436.952 138.807 443.101 136.348C449.249 133.889 457.037 139.217 460.726 148.233C464.415 157.249 462.776 166.676 456.627 169.135Z" fill="url(#paint10_radial)"/>
<path d="M307.836 108.889L316.034 113.397V103.971L307.836 99.0532V108.889Z" fill="#2AF6FF"/>
<path opacity="0.3" d="M276.273 90.4453L284.881 95.3633V85.9371L276.273 81.019V90.4453Z" fill="#2AF6FF"/>
<path opacity="0.3" d="M229.545 63.3974L237.743 68.3155V58.8892L229.545 53.9712V63.3974Z" fill="#2AF6FF"/>
<path opacity="0.3" d="M213.559 54.3803L222.166 59.2984V49.8721L213.559 44.9541V54.3803Z" fill="#2AF6FF"/>
<path opacity="0.3" d="M307.836 125.692L316.034 130.61V121.184L307.836 116.266V125.692Z" fill="#2AF6FF"/>
<path d="M276.273 107.659L284.881 112.577V102.741L276.273 98.2329V107.659Z" fill="#2AF6FF"/>
<path d="M245.121 89.6266L253.319 94.5446V84.7086L245.121 79.7905V89.6266Z" fill="#2AF6FF"/>
<path d="M229.545 80.611L237.743 85.1192V75.6929L229.545 70.7749V80.611Z" fill="#2AF6FF"/>
<path d="M213.559 71.5939L222.166 76.1021V66.6758L213.559 61.7578V71.5939Z" fill="#2AF6FF"/>
<path d="M307.836 142.495L316.034 147.413V137.987L307.836 133.069V142.495Z" fill="#2AF6FF"/>
<path opacity="0.3" d="M292.26 133.479L300.458 138.397V128.971L292.26 124.053V133.479Z" fill="#2AF6FF"/>
<path opacity="0.3" d="M276.273 124.462L284.881 129.38V119.954L276.273 115.036V124.462Z" fill="#2AF6FF"/>
<path d="M260.697 115.447L268.895 120.365V110.529L260.697 106.021V115.447Z" fill="#2AF6FF"/>
<path d="M245.121 106.43L253.319 111.348V101.512L245.121 97.0034V106.43Z" fill="#2AF6FF"/>
<path d="M229.545 97.413L237.743 102.331V92.495L229.545 87.9868V97.413Z" fill="#2AF6FF"/>
<path d="M213.559 88.3971L222.166 93.3151V83.4791L213.559 78.561V88.3971Z" fill="#2AF6FF"/>
<path d="M307.836 159.71L316.034 164.628V154.792L307.836 149.874V159.71Z" fill="#2AF6FF"/>
<path d="M292.26 150.693L300.458 155.611V145.774L292.26 140.856V150.693Z" fill="#2AF6FF"/>
<path d="M276.273 141.675L284.881 146.184V136.757L276.273 131.839V141.675Z" fill="#2AF6FF"/>
<path opacity="0.3" d="M260.697 132.66L268.895 137.168V127.742L260.697 122.824V132.66Z" fill="#2AF6FF"/>
<path opacity="0.3" d="M245.121 123.643L253.319 128.151V118.725L245.121 113.807V123.643Z" fill="#2AF6FF"/>
<path d="M229.545 114.218L237.743 119.136V109.71L229.545 104.792V114.218Z" fill="#2AF6FF"/>
<path d="M307.836 176.512L316.034 181.021V171.594L307.836 166.676V176.512Z" fill="#2AF6FF"/>
<path opacity="0.3" d="M276.273 158.478L284.881 162.986V153.56L276.273 148.642V158.478Z" fill="#2AF6FF"/>
<path opacity="0.3" d="M260.697 149.053L268.895 153.971V144.545L260.697 139.626V149.053Z" fill="#2AF6FF"/>
<path opacity="0.3" d="M229.545 131.02L237.743 135.939V126.512L229.545 121.594V131.02Z" fill="#2AF6FF"/>
<path opacity="0.3" d="M213.559 122.003L222.166 126.921V117.495L213.559 112.577V122.003Z" fill="#2AF6FF"/>
<path opacity="0.3" d="M307.836 193.315L316.034 198.233V188.807L307.836 183.889V193.315Z" fill="#2AF6FF"/>
<path d="M292.26 184.299L300.458 189.217V179.791L292.26 174.873V184.299Z" fill="#2AF6FF"/>
<path d="M276.273 175.282L284.881 180.2V170.364L276.273 165.856V175.282Z" fill="#2AF6FF"/>
<path d="M245.121 157.249L253.319 162.167V152.331L245.121 147.823V157.249Z" fill="#2AF6FF"/>
<path d="M229.545 148.234L237.743 153.152V143.316L229.545 138.398V148.234Z" fill="#2AF6FF"/>
<path d="M213.559 139.217L222.166 144.135V134.299L213.559 129.381V139.217Z" fill="#2AF6FF"/>
<path d="M307.836 210.119L316.034 215.037V205.61L307.836 200.692V210.119Z" fill="#2AF6FF"/>
<path opacity="0.3" d="M292.26 201.102L300.458 206.02V196.593L292.26 191.675V201.102Z" fill="#2AF6FF"/>
<path opacity="0.3" d="M276.273 192.084L284.881 197.002V187.576L276.273 182.658V192.084Z" fill="#2AF6FF"/>
<path d="M260.697 183.069L268.895 187.987V178.561L260.697 173.643V183.069Z" fill="#2AF6FF"/>
<path opacity="0.3" d="M245.121 174.052L253.319 178.97V169.544L245.121 164.626V174.052Z" fill="#2AF6FF"/>
<path opacity="0.3" d="M229.545 165.037L237.743 169.955V160.119L229.545 155.61V165.037Z" fill="#2AF6FF"/>
<path d="M307.836 227.331L316.034 232.249V222.413L307.836 217.905V227.331Z" fill="#2AF6FF"/>
<path d="M292.26 218.315L300.458 223.233V213.397L292.26 208.889V218.315Z" fill="#2AF6FF"/>
<path opacity="0.3" d="M260.697 200.282L268.895 204.791V195.364L260.697 190.446V200.282Z" fill="#2AF6FF"/>
<path d="M245.121 191.266L253.319 195.774V186.348L245.121 181.43V191.266Z" fill="#2AF6FF"/>
<path d="M229.545 182.25L237.743 186.758V177.332L229.545 172.414V182.25Z" fill="#2AF6FF"/>
<path d="M213.559 172.823L222.166 177.741V168.315L213.559 163.397V172.823Z" fill="#2AF6FF"/>
<path opacity="0.3" d="M307.836 244.544L316.034 249.462V240.036L307.836 235.118V244.544Z" fill="#2AF6FF"/>
<path opacity="0.3" d="M292.26 235.529L300.458 240.447V231.021L292.26 226.103V235.529Z" fill="#2AF6FF"/>
<path opacity="0.3" d="M276.273 226.512L284.881 231.43V222.003L276.273 217.085V226.512Z" fill="#2AF6FF"/>
<path opacity="0.3" d="M260.697 217.496L268.895 222.414V212.578L260.697 208.07V217.496Z" fill="#2AF6FF"/>
<path opacity="0.3" d="M245.121 208.479L253.319 213.397V203.561L245.121 199.053V208.479Z" fill="#2AF6FF"/>
<path opacity="0.3" d="M229.545 199.462L237.743 204.38V194.544L229.545 190.036V199.462Z" fill="#2AF6FF"/>
<path opacity="0.3" d="M213.559 190.446L222.166 195.364V185.528L213.559 180.61V190.446Z" fill="#2AF6FF"/>
<path opacity="0.3" d="M307.836 261.759L316.034 266.677V256.841L307.836 251.923V261.759Z" fill="#2AF6FF"/>
<path opacity="0.3" d="M292.26 252.742L300.458 257.25V247.824L292.26 242.906V252.742Z" fill="#2AF6FF"/>
<path opacity="0.3" d="M260.697 234.709L268.895 239.217V229.791L260.697 224.873V234.709Z" fill="#2AF6FF"/>
<path d="M245.121 225.282L253.319 230.2V220.774L245.121 215.856V225.282Z" fill="#2AF6FF"/>
<path opacity="0.3" d="M229.545 216.267L237.743 221.185V211.759L229.545 206.841V216.267Z" fill="#2AF6FF"/>
<path opacity="0.3" d="M213.559 207.25L222.166 212.168V202.742L213.559 197.824V207.25Z" fill="#2AF6FF"/>
<path opacity="0.3" d="M417.279 172.414L425.477 176.922V167.496L417.279 162.578V172.414Z" fill="#2AF6FF"/>
<path opacity="0.3" d="M401.293 163.397L409.901 167.905V158.479L401.293 153.561V163.397Z" fill="#2AF6FF"/>
<path opacity="0.3" d="M385.717 153.97L394.325 158.888V149.462L385.717 144.544V153.97Z" fill="#2AF6FF"/>
<path d="M338.578 126.922L347.186 131.84V122.414L338.578 117.496V126.922Z" fill="#2AF6FF"/>
<path d="M323.002 117.905L331.61 122.823V113.397L323.002 108.479V117.905Z" fill="#2AF6FF"/>
<path d="M417.279 189.217L425.477 194.135V184.709L417.279 179.791V189.217Z" fill="#2AF6FF"/>
<path d="M401.293 180.201L409.901 185.119V175.283L401.293 170.775V180.201Z" fill="#2AF6FF"/>
<path opacity="0.3" d="M385.717 171.184L394.325 176.102V166.266L385.717 161.758V171.184Z" fill="#2AF6FF"/>
<path opacity="0.3" d="M370.141 162.168L378.339 167.086V157.25L370.141 152.742V162.168Z" fill="#2AF6FF"/>
<path opacity="0.3" d="M354.564 153.152L362.762 158.07V148.233L354.564 143.315V153.152Z" fill="#2AF6FF"/>
<path opacity="0.3" d="M338.578 144.136L347.186 148.644V139.218L338.578 134.3V144.136Z" fill="#2AF6FF"/>
<path opacity="0.3" d="M323.002 135.119L331.61 139.627V130.201L323.002 125.283V135.119Z" fill="#2AF6FF"/>
<path opacity="0.3" d="M417.279 206.02L425.477 210.938V201.512L417.279 196.594V206.02Z" fill="#2AF6FF"/>
<path d="M385.717 187.987L394.325 192.905V183.479L385.717 178.561V187.987Z" fill="#2AF6FF"/>
<path opacity="0.3" d="M370.141 178.972L378.339 183.89V174.054L370.141 169.545V178.972Z" fill="#2AF6FF"/>
<path opacity="0.3" d="M354.564 169.955L362.762 174.873V165.037L354.564 160.528V169.955Z" fill="#2AF6FF"/>
<path opacity="0.3" d="M338.578 160.938L347.186 165.856V156.02L338.578 151.512V160.938Z" fill="#2AF6FF"/>
<path d="M323.002 151.922L331.61 156.84V147.004L323.002 142.086V151.922Z" fill="#2AF6FF"/>
<path d="M417.279 223.234L425.477 228.153V218.316L417.279 213.398V223.234Z" fill="#2AF6FF"/>
<path opacity="0.3" d="M385.717 205.2L394.325 209.709V200.282L385.717 195.364V205.2Z" fill="#2AF6FF"/>
<path opacity="0.3" d="M370.141 196.185L378.339 200.693V191.267L370.141 186.349V196.185Z" fill="#2AF6FF"/>
<path d="M354.564 187.168L362.762 191.676V182.25L354.564 177.332V187.168Z" fill="#2AF6FF"/>
<path d="M323.002 168.726L331.61 173.644V164.217L323.002 159.299V168.726Z" fill="#2AF6FF"/>
<path opacity="0.3" d="M417.279 240.037L425.477 244.545V235.119L417.279 230.201V240.037Z" fill="#2AF6FF"/>
<path opacity="0.3" d="M401.293 231.02L409.901 235.528V226.102L401.293 221.184V231.02Z" fill="#2AF6FF"/>
<path opacity="0.3" d="M385.717 222.003L394.325 226.511V217.085L385.717 212.167V222.003Z" fill="#2AF6FF"/>
<path d="M338.578 194.545L347.186 199.463V190.037L338.578 185.119V194.545Z" fill="#2AF6FF"/>
<path d="M323.002 185.528L331.61 190.446V181.02L323.002 176.102V185.528Z" fill="#2AF6FF"/>
<path d="M417.279 256.84L425.477 261.758V252.332L417.279 247.414V256.84Z" fill="#2AF6FF"/>
<path d="M401.293 247.824L409.901 252.742V243.316L401.293 238.398V247.824Z" fill="#2AF6FF"/>
<path opacity="0.3" d="M385.717 238.807L394.325 243.725V233.889L385.717 229.381V238.807Z" fill="#2AF6FF"/>
<path opacity="0.3" d="M370.141 229.791L378.339 234.709V224.873L370.141 220.365V229.791Z" fill="#2AF6FF"/>
<path opacity="0.3" d="M354.564 220.774L362.762 225.692V215.856L354.564 211.348V220.774Z" fill="#2AF6FF"/>
<path opacity="0.3" d="M338.578 211.759L347.186 216.677V206.841L338.578 201.923V211.759Z" fill="#2AF6FF"/>
<path opacity="0.3" d="M323.002 202.742L331.61 207.66V197.824L323.002 192.906V202.742Z" fill="#2AF6FF"/>
<path opacity="0.3" d="M417.279 273.643L425.477 278.561V269.135L417.279 264.217V273.643Z" fill="#2AF6FF"/>
<path d="M385.717 255.609L394.325 260.527V251.101L385.717 246.183V255.609Z" fill="#2AF6FF"/>
<path opacity="0.3" d="M370.141 246.594L378.339 251.512V242.085L370.141 237.167V246.594Z" fill="#2AF6FF"/>
<path opacity="0.3" d="M354.564 237.577L362.762 242.495V233.068L354.564 228.15V237.577Z" fill="#2AF6FF"/>
<path opacity="0.3" d="M338.578 228.561L347.186 233.48V223.643L338.578 219.135V228.561Z" fill="#2AF6FF"/>
<path d="M323.002 219.544L331.61 224.462V214.626L323.002 210.118V219.544Z" fill="#2AF6FF"/>
<path d="M417.279 290.856L425.477 295.774V285.938L417.279 281.43V290.856Z" fill="#2AF6FF"/>
<path opacity="0.3" d="M385.717 272.823L394.325 277.741V267.905L385.717 262.987V272.823Z" fill="#2AF6FF"/>
<path opacity="0.3" d="M370.141 263.807L378.339 268.315V258.889L370.141 253.971V263.807Z" fill="#2AF6FF"/>
<path d="M354.564 254.791L362.762 259.299V249.873L354.564 244.955V254.791Z" fill="#2AF6FF"/>
<path d="M323.002 236.348L331.61 241.266V231.84L323.002 226.922V236.348Z" fill="#2AF6FF"/>
<path opacity="0.3" d="M417.279 308.069L425.477 312.987V303.561L417.279 298.643V308.069Z" fill="#2AF6FF"/>
<path d="M385.717 290.037L394.325 294.955V285.528L385.717 280.61V290.037Z" fill="#2AF6FF"/>
<path opacity="0.3" d="M370.141 281.021L378.339 285.939V276.103L370.141 271.595V281.021Z" fill="#2AF6FF"/>
<path opacity="0.3" d="M354.564 272.004L362.762 276.922V267.086L354.564 262.578V272.004Z" fill="#2AF6FF"/>
<path opacity="0.3" d="M338.578 262.987L347.186 267.905V258.069L338.578 253.561V262.987Z" fill="#2AF6FF"/>
<path d="M323.002 253.971L331.61 258.889V249.053L323.002 244.135V253.971Z" fill="#2AF6FF"/>
<path d="M417.279 325.284L425.477 330.202V320.366L417.279 315.448V325.284Z" fill="#2AF6FF"/>
<path opacity="0.3" d="M385.717 307.25L394.325 311.758V302.332L385.717 297.414V307.25Z" fill="#2AF6FF"/>
<path opacity="0.3" d="M370.141 298.234L378.339 302.742V293.316L370.141 288.398V298.234Z" fill="#2AF6FF"/>
<path d="M354.564 288.807L362.762 293.725V284.299L354.564 279.381V288.807Z" fill="#2AF6FF"/>
<path opacity="0.3" d="M323.002 270.775L331.61 275.693V266.267L323.002 261.349V270.775Z" fill="#2AF6FF"/>
<defs>
<linearGradient id="paint0_linear" x1="22.9314" y1="361.253" x2="473.265" y2="361.253" gradientUnits="userSpaceOnUse">
<stop offset="0.0555556" stop-color="#9F79B8"/>
<stop offset="0.2575" stop-color="#A17BBA"/>
<stop offset="0.3569" stop-color="#A783BF"/>
<stop offset="0.4338" stop-color="#B290C9"/>
<stop offset="0.4949" stop-color="#C1A1D5"/>
<stop offset="0.5067" stop-color="#C4A5D7"/>
<stop offset="0.5196" stop-color="#CDB3DD"/>
<stop offset="0.5329" stop-color="#DBC8E7"/>
<stop offset="0.5466" stop-color="#EFE7F4"/>
<stop offset="0.5556" stop-color="white"/>
<stop offset="0.5678" stop-color="#ECE0F3"/>
<stop offset="0.5801" stop-color="#DDC8EA"/>
<stop offset="0.5915" stop-color="#D4B9E5"/>
<stop offset="0.601" stop-color="#D1B4E3"/>
<stop offset="0.658" stop-color="#B395D6"/>
<stop offset="0.7155" stop-color="#9C7DCB"/>
<stop offset="0.7687" stop-color="#8E6EC5"/>
<stop offset="0.8131" stop-color="#8969C3"/>
<stop offset="1" stop-color="#B086CC"/>
</linearGradient>
<linearGradient id="paint1_linear" x1="13.3519" y1="349.46" x2="446.595" y2="349.46" gradientUnits="userSpaceOnUse">
<stop stop-color="#9F79C8"/>
<stop offset="0.1367" stop-color="#A580CB"/>
<stop offset="0.3288" stop-color="#B492D3"/>
<stop offset="0.5529" stop-color="#CDB0E1"/>
<stop offset="0.5808" stop-color="#D1B4E3"/>
<stop offset="0.7644" stop-color="#DBC4E9"/>
<stop offset="1" stop-color="#EBDEF3"/>
</linearGradient>
<linearGradient id="paint2_linear" x1="18.1967" y1="349.459" x2="441.748" y2="349.459" gradientUnits="userSpaceOnUse">
<stop stop-color="#3D065F"/>
<stop offset="1" stop-color="#5F27BD"/>
</linearGradient>
<linearGradient id="paint3_linear" x1="228.361" y1="400.233" x2="234.316" y2="256.479" gradientUnits="userSpaceOnUse">
<stop stop-color="#3D065F"/>
<stop offset="1" stop-color="#10054D"/>
</linearGradient>
<linearGradient id="paint4_linear" x1="197.354" y1="249.922" x2="307.954" y2="423.518" gradientUnits="userSpaceOnUse">
<stop offset="0.0555556" stop-color="#9F79B8"/>
<stop offset="0.2502" stop-color="#A17BBA"/>
<stop offset="0.3461" stop-color="#A883C0"/>
<stop offset="0.4204" stop-color="#B490CC"/>
<stop offset="0.4836" stop-color="#C5A3DC"/>
<stop offset="0.5392" stop-color="#DBBBF0"/>
<stop offset="0.5606" stop-color="#E6C6FA"/>
<stop offset="0.5967" stop-color="#D6B6F1"/>
<stop offset="0.6872" stop-color="#B595DD"/>
<stop offset="0.7735" stop-color="#9D7DCF"/>
<stop offset="0.8529" stop-color="#8E6EC6"/>
<stop offset="0.9192" stop-color="#8969C3"/>
</linearGradient>
<linearGradient id="paint5_linear" x1="35.9619" y1="-60.8609" x2="486.617" y2="330.641" gradientUnits="userSpaceOnUse">
<stop stop-color="#9F79C8"/>
<stop offset="0.1409" stop-color="#A27DCA"/>
<stop offset="0.2725" stop-color="#AC88CF"/>
<stop offset="0.4" stop-color="#BC9BD7"/>
<stop offset="0.5202" stop-color="#D1B4E3"/>
<stop offset="0.6493" stop-color="#DBC4E9"/>
<stop offset="0.8997" stop-color="#F4EDF8"/>
<stop offset="1" stop-color="white"/>
</linearGradient>
<linearGradient id="paint6_linear" x1="451.891" y1="360.732" x2="158.18" y2="-29.0434" gradientUnits="userSpaceOnUse">
<stop offset="0.030303" stop-color="#7C1DC9"/>
<stop offset="0.2138" stop-color="#6E41D2"/>
<stop offset="0.6184" stop-color="#4C9BE8"/>
<stop offset="1" stop-color="#2AF6FF"/>
</linearGradient>
<linearGradient id="paint7_linear" x1="154.127" y1="-9.80604" x2="466.474" y2="358.501" gradientUnits="userSpaceOnUse">
<stop stop-color="#7C1DC9"/>
<stop offset="0.0300018" stop-color="#741BBD"/>
<stop offset="0.162" stop-color="#56148B"/>
<stop offset="0.2971" stop-color="#3B0E60"/>
<stop offset="0.4332" stop-color="#26093E"/>
<stop offset="0.5704" stop-color="#150523"/>
<stop offset="0.7095" stop-color="#09020F"/>
<stop offset="0.8512" stop-color="#020104"/>
<stop offset="1"/>
</linearGradient>
<linearGradient id="paint8_linear" x1="510.227" y1="376.447" x2="288.722" y2="22.4583" gradientUnits="userSpaceOnUse">
<stop offset="0.0555556" stop-color="#9F79B8"/>
<stop offset="0.2575" stop-color="#A17BBA"/>
<stop offset="0.3569" stop-color="#A783BF"/>
<stop offset="0.4338" stop-color="#B290C9"/>
<stop offset="0.4949" stop-color="#C1A1D5"/>
<stop offset="0.5067" stop-color="#C4A5D7"/>
<stop offset="0.5196" stop-color="#CDB3DD"/>
<stop offset="0.5329" stop-color="#DBC8E7"/>
<stop offset="0.5466" stop-color="#EFE7F4"/>
<stop offset="0.5556" stop-color="white"/>
<stop offset="0.5678" stop-color="#ECE0F3"/>
<stop offset="0.5801" stop-color="#DDC8EA"/>
<stop offset="0.5915" stop-color="#D4B9E5"/>
<stop offset="0.601" stop-color="#D1B4E3"/>
<stop offset="0.658" stop-color="#B395D6"/>
<stop offset="0.7155" stop-color="#9C7DCB"/>
<stop offset="0.7687" stop-color="#8E6EC5"/>
<stop offset="0.8131" stop-color="#8969C3"/>
<stop offset="1" stop-color="#B086CC"/>
</linearGradient>
<radialGradient id="paint9_radial" cx="0" cy="0" r="1" gradientUnits="userSpaceOnUse" gradientTransform="translate(447.01 158.985) scale(37.6526 37.6467)">
<stop stop-color="white"/>
<stop offset="1"/>
</radialGradient>
<radialGradient id="paint10_radial" cx="0" cy="0" r="1" gradientUnits="userSpaceOnUse" gradientTransform="translate(449.944 152.848) rotate(67.656) scale(17.6501 11.7182)">
<stop stop-color="#972A74"/>
<stop offset="0.0412825" stop-color="#8A266A"/>
<stop offset="0.1941" stop-color="#601B4A"/>
<stop offset="0.35" stop-color="#3D112F"/>
<stop offset="0.5074" stop-color="#220A1B"/>
<stop offset="0.6667" stop-color="#0F040C"/>
<stop offset="0.8293" stop-color="#040103"/>
<stop offset="1"/>
</radialGradient>
</defs>
</svg>
