<svg width="308" height="431" viewBox="0 0 308 431" fill="none" xmlns="http://www.w3.org/2000/svg">
<g opacity="0.2">
<path opacity="0.090909" d="M36.9714 338.064L127.951 302.841C133.026 299.936 139.55 298.12 146.074 298.484C148.974 298.484 151.511 298.847 154.049 299.573C156.224 300.299 159.123 301.389 160.936 302.478L228.355 342.058L230.167 343.147C235.604 346.415 237.779 351.499 237.779 356.583C237.417 362.029 233.429 368.202 227.267 371.834L171.447 425.212C166.373 428.117 160.211 429.57 153.686 429.57C148.249 429.57 143.175 428.48 139.188 425.938L35.159 366.024C30.0845 363.119 26.8223 358.398 26.8223 352.951C26.8223 347.142 30.447 341.695 36.9714 338.064Z" fill="black"/>
<path opacity="0.1818" d="M37.3335 338.79L128.313 303.567C133.388 300.662 139.912 299.21 146.437 299.21C149.336 299.21 151.874 299.573 154.411 300.299C156.586 301.026 159.485 302.115 161.298 303.204L228.355 342.421L230.167 343.511C235.241 346.779 237.054 351.862 236.691 356.946C235.966 362.03 231.617 368.566 226.18 371.471L171.084 424.123C166.01 427.028 159.848 428.48 153.686 428.48C148.249 428.48 143.174 427.391 139.55 425.212L35.5211 365.298C30.4466 362.393 27.5468 358.035 27.9093 352.952C27.9093 347.505 31.1715 342.421 37.3335 338.79Z" fill="black"/>
<path opacity="0.2727" d="M37.6976 339.517L128.677 304.294C133.752 301.39 140.276 299.937 146.438 299.937C149.338 299.937 151.875 300.663 154.05 301.026C155.862 301.39 159.125 303.205 160.937 303.931L227.631 343.148L229.444 344.238C234.518 347.506 235.606 352.589 234.881 357.673C234.156 362.03 229.081 369.293 224.369 371.835L170.361 423.761C165.649 426.666 159.487 428.118 153.688 428.118C148.251 428.118 143.539 427.029 139.914 424.85L35.8853 364.572C31.1732 361.667 28.2735 357.673 28.6359 352.952C28.6359 347.506 31.8981 342.785 37.6976 339.517Z" fill="black"/>
<path opacity="0.3636" d="M38.0586 340.242L129.038 305.02C134.113 302.115 140.637 300.662 146.799 301.026C149.699 301.026 152.236 301.752 154.411 302.478C155.861 302.841 159.848 304.657 160.936 305.383L227.267 344.237C227.63 344.237 229.08 345.326 229.08 345.326C234.154 348.594 235.604 353.678 233.429 358.762C233.429 362.756 226.905 370.018 222.918 372.56L169.997 423.034C165.285 425.576 159.486 427.028 153.686 427.391C148.612 427.391 143.899 426.302 140.275 424.123L36.2463 363.845C31.5342 361.303 29.3594 357.309 29.3594 352.589C29.3594 347.868 32.6216 343.147 38.0586 340.242Z" fill="black"/>
<path opacity="0.4545" d="M38.4208 340.969L129.4 305.747C134.475 302.842 140.999 301.389 147.161 301.753C150.061 301.753 152.598 302.479 154.773 303.205C156.223 303.568 160.21 305.747 161.298 306.11L227.267 344.964C227.629 344.964 228.717 346.053 229.079 346.053C234.154 349.321 235.241 354.768 232.342 359.489C232.342 362.757 225.092 370.745 221.467 372.924L169.634 422.671C164.922 425.213 159.485 426.666 153.686 426.666C148.611 426.666 144.262 425.576 140.637 423.761L36.6084 363.12C32.2588 360.578 30.084 356.947 30.084 352.589C30.084 348.232 33.3462 343.874 38.4208 340.969Z" fill="black"/>
<path opacity="0.5455" d="M38.7849 341.695L129.765 306.472C134.839 303.567 141.364 302.115 147.525 302.478C150.425 302.841 152.6 303.204 155.137 303.93C156.225 304.293 160.574 306.472 161.662 307.198L227.269 345.689C227.631 346.052 228.719 346.778 229.081 346.778C233.793 350.046 234.518 355.493 230.893 359.851C230.893 362.755 222.919 371.107 220.019 372.56L169.274 421.218C164.924 423.76 159.125 425.212 153.687 425.212C148.975 425.212 144.263 424.123 141.001 422.307L36.9725 362.392C32.9854 359.851 30.8105 356.582 30.8105 352.588C31.173 348.594 33.7103 344.236 38.7849 341.695Z" fill="black"/>
<path opacity="0.6364" d="M39.147 342.057L130.127 306.835C135.201 303.93 141.726 302.477 147.525 303.204C150.062 303.567 152.6 304.293 154.775 305.019C155.862 305.382 160.212 307.924 161.299 308.287L226.543 346.415C226.906 346.778 227.993 347.504 228.356 347.504C233.068 351.135 233.43 356.219 229.081 360.577C229.081 362.755 220.744 371.47 218.207 372.923L168.548 421.217C164.199 423.759 158.762 425.212 153.325 425.212C148.613 425.212 144.263 424.122 141.001 422.307L37.3347 361.666C33.3475 359.487 31.5352 356.219 31.5352 352.588C31.8976 348.594 34.4349 344.962 39.147 342.057Z" fill="black"/>
<path opacity="0.7273" d="M39.51 342.784L130.49 307.925C135.564 305.02 142.089 303.93 147.888 304.293C150.425 304.657 152.963 305.383 155.137 306.109C155.862 306.472 160.937 309.014 161.299 309.377L226.181 347.505C226.544 347.868 227.631 348.231 227.994 348.594C232.706 352.225 232.343 357.309 227.631 361.666C227.631 363.482 218.57 372.56 216.757 373.649L167.824 420.492C163.474 423.034 158.4 424.123 153.325 424.123C148.613 424.123 144.626 423.397 141.364 421.218L38.0601 360.94C34.4354 358.761 32.623 355.856 32.623 352.225C32.623 348.957 35.1603 345.326 39.51 342.784Z" fill="black"/>
<path opacity="0.8182" d="M39.8721 343.511L130.852 308.652C135.926 305.747 142.451 304.657 148.25 305.021C150.788 305.384 153.325 306.11 155.5 306.836C155.862 306.836 161.299 310.104 161.662 310.104L226.181 347.869C226.543 348.232 227.631 348.595 227.993 348.958C232.343 352.589 231.98 358.036 226.543 362.03C226.543 363.12 216.757 372.924 215.669 373.65L167.824 419.403C163.836 421.582 158.762 423.034 153.687 423.034C149.338 423.034 144.988 422.308 142.088 420.492L38.4222 360.578C34.7975 358.399 33.3477 355.857 33.3477 352.589C33.3477 349.321 35.8849 346.053 39.8721 343.511Z" fill="black"/>
<path opacity="0.9091" d="M40.5967 344.238L131.576 309.015C136.651 306.11 143.175 305.021 148.975 305.747C151.512 306.11 154.049 307.2 156.224 307.926C156.587 307.926 162.024 311.194 162.386 311.194L226.543 348.958C227.268 349.321 227.993 349.685 228.355 350.048C232.705 353.679 231.98 359.126 225.818 363.12C225.818 363.846 215.307 374.014 214.582 374.377L167.823 419.04C163.836 421.219 158.762 422.672 154.049 422.672C149.7 422.672 145.713 421.945 142.813 420.13L38.7844 359.852C35.5221 358.036 34.0723 355.131 34.0723 352.59C34.4347 349.321 36.6095 346.417 40.5967 344.238Z" fill="black"/>
<path opacity="0.2" d="M142.813 419.402L39.1466 359.124C32.9846 355.493 33.7095 349.32 40.9589 344.963L131.939 309.74C139.188 305.746 150.062 305.019 156.224 308.651L225.818 349.683C231.98 353.314 231.255 359.487 224.006 363.845L167.098 418.313C159.849 422.67 148.975 423.033 142.813 419.402Z" fill="black"/>
</g>
<path d="M142.813 419.04L39.1465 358.762C36.2467 357.309 34.7969 355.131 34.7969 352.589C34.7969 352.589 34.7969 344.963 34.7969 344.6C34.7969 341.695 36.9717 346.779 40.5964 344.237L131.576 309.014C138.825 305.02 149.699 304.294 155.861 307.925L225.455 348.957C227.63 350.047 229.08 344.963 229.443 346.779C229.443 347.142 229.443 354.404 229.443 355.131C229.443 358.035 227.63 360.94 223.643 363.119L166.736 417.587C159.849 422.308 148.975 422.671 142.813 419.04Z" fill="url(#paint0_linear)"/>
<path d="M142.813 411.414L39.1466 351.136C32.9846 347.505 33.7095 341.332 40.9589 336.975L131.939 301.752C139.188 297.758 150.062 297.032 156.224 300.663L225.818 341.695C231.98 345.326 231.255 351.5 224.006 355.857L167.098 410.325C159.849 414.682 148.975 415.045 142.813 411.414Z" fill="url(#paint1_linear)"/>
<path d="M225.817 342.059L156.223 301.026C150.061 297.395 139.187 297.758 131.938 302.115L85.9043 319.545C86.2668 319.908 86.6292 320.271 87.3542 320.635L191.02 380.912C192.47 381.639 194.282 382.365 196.095 382.728L224.005 355.857C231.254 351.863 231.979 345.69 225.817 342.059Z" fill="url(#paint2_linear)"/>
<path d="M224.006 354.767L167.099 409.235C159.849 413.23 148.975 413.956 142.813 410.325L39.1474 350.047C36.6101 348.594 35.1602 346.416 35.1602 344.6C34.7977 347.142 36.2476 349.684 39.1474 351.499L142.813 411.777C148.975 415.408 159.849 415.045 167.099 410.688L224.006 356.22C228.356 353.678 230.168 350.773 229.806 347.505C229.806 350.047 227.631 352.589 224.006 354.767Z" fill="white"/>
<path d="M278.376 411.777L23.5605 264.35C10.5116 257.088 0 236.753 0 219.324V24.3285C0 6.89879 10.5116 -1.08984 23.5605 6.53567L278.376 153.962C291.425 161.588 301.936 181.559 301.936 198.989V393.984C301.936 411.414 291.062 419.402 278.376 411.777Z" fill="url(#paint3_linear)"/>
<path d="M281.276 398.342L30.0849 253.094C19.5733 246.558 13.0488 233.123 13.0488 219.324V22.8766C13.0488 19.6086 16.6735 17.793 19.2108 19.2455C19.5733 19.6086 19.9357 19.6086 19.9357 19.6086L271.127 165.219C283.451 172.482 288.163 185.191 288.163 198.99V394.711C288.163 398.342 284.538 400.521 281.276 398.705C281.638 398.342 281.276 398.342 281.276 398.342Z" fill="url(#paint4_linear)"/>
<path d="M271.49 165.219L20.299 19.6086C20.299 19.6086 19.9365 19.2455 19.5741 19.2455C16.6743 17.793 13.4121 19.6086 13.4121 22.8766V219.324C13.4121 233.123 19.9365 246.195 30.4481 253.094L281.639 398.342C281.639 398.342 282.002 398.342 282.364 398.705C285.264 400.521 289.251 398.342 289.251 394.711V198.99C288.526 185.191 284.176 172.482 271.49 165.219ZM285.989 394.711C285.989 395.8 284.901 396.527 284.176 396.527C283.814 396.527 283.451 396.527 283.089 396.163L31.5356 250.553C22.1114 244.379 15.9494 232.033 15.9494 219.324V22.8766C15.9494 21.7873 16.6743 21.4242 17.3993 21.4242C17.7617 21.4242 18.1242 21.4242 18.1242 21.7873L270.04 167.761C283.089 175.387 285.626 188.822 285.626 198.99V394.711H285.989Z" fill="#BCBEC0"/>
<path d="M284.9 150.331L30.0849 2.90496C25.0103 0 20.2982 -0.726239 16.3111 0.726239C15.9486 1.08936 9.42416 4.35743 8.69922 4.72055C12.6864 2.90496 17.7609 3.26807 23.198 6.17303L277.651 153.6C290.7 161.225 301.211 181.197 301.211 198.626V393.621C301.211 404.515 297.224 411.777 290.7 413.593C291.062 413.593 291.787 413.593 292.875 412.867C293.237 412.867 300.487 408.509 300.487 408.509C304.836 405.241 307.736 399.068 307.736 389.99V195.358C308.461 177.929 297.949 157.594 284.9 150.331Z" fill="url(#paint5_linear)"/>
<path d="M279.464 153.237L24.648 5.81033C19.211 2.90537 14.4989 2.17914 10.5117 3.99473C13.7739 3.63161 17.7611 4.35785 21.7482 6.53657L276.564 153.963C289.613 161.589 300.124 181.56 300.124 198.99V393.985C300.124 404.152 296.5 411.052 290.7 413.593C297.949 412.504 303.024 404.879 303.024 392.896V198.264C303.024 180.834 292.512 160.862 279.464 153.237Z" fill="url(#paint6_radial)"/>
<path d="M138.463 118.74L148.25 124.187V112.93L138.463 107.12V118.74Z" fill="#2AF6FF"/>
<path opacity="0.3" d="M101.492 97.3161L111.279 102.763V91.5062L101.492 85.6963V97.3161Z" fill="#2AF6FF"/>
<path opacity="0.3" d="M45.6719 64.9979L55.821 70.8078V59.5511L45.6719 53.7412V64.9979Z" fill="#2AF6FF"/>
<path opacity="0.3" d="M27.1855 54.4676L37.3347 59.9144V48.6577L27.1855 43.2109V54.4676Z" fill="#2AF6FF"/>
<path opacity="0.3" d="M138.463 138.712L148.25 144.522V133.265L138.463 127.455V138.712Z" fill="#2AF6FF"/>
<path d="M101.492 117.287L111.279 123.097V111.84L101.492 106.03V117.287Z" fill="#2AF6FF"/>
<path d="M64.1562 95.8632L74.3054 101.673V90.4164L64.1562 84.6064V95.8632Z" fill="#2AF6FF"/>
<path d="M45.6719 85.3327L55.821 90.7795V79.5228L45.6719 73.7129V85.3327Z" fill="#2AF6FF"/>
<path d="M27.1855 74.4393L37.3347 80.2492V68.9925L27.1855 63.1826V74.4393Z" fill="#2AF6FF"/>
<path d="M138.463 158.683L148.25 164.493V153.237L138.463 147.427V158.683Z" fill="#2AF6FF"/>
<path opacity="0.3" d="M119.977 148.153L129.763 153.6V142.343L119.977 136.533V148.153Z" fill="#2AF6FF"/>
<path opacity="0.3" d="M101.492 137.259L111.279 143.069V131.812L101.492 126.002V137.259Z" fill="#2AF6FF"/>
<path d="M83.0059 126.728L92.7925 132.175V120.918L83.0059 115.108V126.728Z" fill="#2AF6FF"/>
<path d="M64.1562 115.835L74.3054 121.645V110.388L64.1562 104.578V115.835Z" fill="#2AF6FF"/>
<path d="M45.6719 105.304L55.821 110.751V99.4945L45.6719 93.6846V105.304Z" fill="#2AF6FF"/>
<path d="M27.1855 94.411L37.3347 100.221V88.9642L27.1855 83.1543V94.411Z" fill="#2AF6FF"/>
<path opacity="0.3" d="M27.1855 134.354L37.3347 140.164V128.907L27.1855 123.097V134.354Z" fill="#2AF6FF"/>
<path d="M27.1855 154.689L37.3347 160.135V148.879L27.1855 143.069V154.689Z" fill="#2AF6FF"/>
<path opacity="0.3" d="M27.1855 174.66L37.3347 180.107V168.85L27.1855 163.041V174.66Z" fill="#2AF6FF"/>
<path d="M138.463 258.905L148.25 264.715V253.095L138.463 247.648V258.905Z" fill="#2AF6FF"/>
<path d="M119.977 248.374L129.763 253.821V242.564L119.977 236.754V248.374Z" fill="#2AF6FF"/>
<path opacity="0.3" d="M83.0059 226.949L92.7925 232.396V221.14L83.0059 215.33V226.949Z" fill="#2AF6FF"/>
<path d="M64.1562 216.056L74.3054 221.866V210.609L64.1562 204.799V216.056Z" fill="#2AF6FF"/>
<path d="M45.6719 205.526L55.821 210.972V199.716L45.6719 193.906V205.526Z" fill="#2AF6FF"/>
<path d="M27.1855 194.632L37.3347 200.442V189.185L27.1855 183.375V194.632Z" fill="#2AF6FF"/>
<path opacity="0.3" d="M138.463 279.603L148.25 285.049V273.793L138.463 267.983V279.603Z" fill="#2AF6FF"/>
<path opacity="0.3" d="M119.977 268.708L129.763 274.518V263.262L119.977 257.452V268.708Z" fill="#2AF6FF"/>
<path opacity="0.3" d="M101.492 258.178L111.279 263.625V252.368L101.492 246.558V258.178Z" fill="#2AF6FF"/>
<path opacity="0.3" d="M83.0059 247.285L92.7925 253.094V241.838L83.0059 236.028V247.285Z" fill="#2AF6FF"/>
<path opacity="0.3" d="M64.1562 236.754L74.3054 242.201V230.944L64.1562 225.134V236.754Z" fill="#2AF6FF"/>
<path opacity="0.3" d="M45.6719 225.861L55.821 231.671V220.414L45.6719 214.604V225.861Z" fill="#2AF6FF"/>
<path opacity="0.3" d="M27.1855 215.33L37.3347 220.777V209.52L27.1855 203.71V215.33Z" fill="#2AF6FF"/>
<path opacity="0.3" d="M138.463 299.575L148.25 305.384V293.765L138.463 288.318V299.575Z" fill="#2AF6FF"/>
<path opacity="0.3" d="M119.977 288.681L129.763 294.491V283.234L119.977 277.424V288.681Z" fill="#2AF6FF"/>
<path opacity="0.3" d="M83.0059 267.256L92.7925 273.066V261.809L83.0059 256V267.256Z" fill="#2AF6FF"/>
<path d="M64.1562 256.726L74.3054 262.536V251.279L64.1562 245.469V256.726Z" fill="#2AF6FF"/>
<path opacity="0.3" d="M45.6719 246.196L55.821 251.642V240.386L45.6719 234.576V246.196Z" fill="#2AF6FF"/>
<path opacity="0.3" d="M27.1855 235.302L37.3347 241.112V229.855L27.1855 224.045V235.302Z" fill="#2AF6FF"/>
<path opacity="0.3" d="M267.502 193.906L277.289 199.353V188.096L267.502 182.286V193.906Z" fill="#2AF6FF"/>
<path opacity="0.3" d="M249.016 183.012L258.802 188.822V177.565L249.016 171.755V183.012Z" fill="#2AF6FF"/>
<path opacity="0.3" d="M230.529 172.481L240.316 177.928V166.671L230.529 160.861V172.481Z" fill="#2AF6FF"/>
<path d="M175.072 140.164L184.859 145.974V134.717L175.072 128.907V140.164Z" fill="#2AF6FF"/>
<path d="M156.586 129.633L166.373 135.08V123.824L156.586 118.014V129.633Z" fill="#2AF6FF"/>
<path d="M267.502 213.878L277.289 219.688V208.431L267.502 202.621V213.878Z" fill="#2AF6FF"/>
<path d="M249.016 203.347L258.802 208.794V197.537L249.016 191.728V203.347Z" fill="#2AF6FF"/>
<path opacity="0.3" d="M230.529 192.453L240.316 198.263V187.006L230.529 181.196V192.453Z" fill="#2AF6FF"/>
<path opacity="0.3" d="M212.043 181.923L221.83 187.369V176.113L212.043 170.303V181.923Z" fill="#2AF6FF"/>
<path opacity="0.3" d="M193.559 171.029L203.345 176.839V165.582L193.559 159.772V171.029Z" fill="#2AF6FF"/>
<path opacity="0.3" d="M175.072 160.499L184.859 165.946V154.689L175.072 148.879V160.499Z" fill="#2AF6FF"/>
<path opacity="0.3" d="M156.586 149.605L166.373 155.415V144.159L156.586 138.349V149.605Z" fill="#2AF6FF"/>
<path opacity="0.3" d="M267.502 233.849L277.289 239.659V228.403L267.502 222.593V233.849Z" fill="#2AF6FF"/>
<path d="M230.529 212.425L240.316 218.235V206.978L230.529 201.168V212.425Z" fill="#2AF6FF"/>
<path opacity="0.3" d="M212.043 201.894L221.83 207.341V196.084L212.043 190.274V201.894Z" fill="#2AF6FF"/>
<path opacity="0.3" d="M193.559 191.001L203.345 196.811V185.554L193.559 179.744V191.001Z" fill="#2AF6FF"/>
<path opacity="0.3" d="M175.072 180.47L184.859 185.917V174.66L175.072 168.851V180.47Z" fill="#2AF6FF"/>
<path d="M156.586 169.577L166.373 175.387V164.13L156.586 158.32V169.577Z" fill="#2AF6FF"/>
<path d="M267.502 253.821L277.289 259.631V248.374L267.502 242.564V253.821Z" fill="#2AF6FF"/>
<path opacity="0.3" d="M267.502 273.791L277.289 279.601V268.345L267.502 262.535V273.791Z" fill="#2AF6FF"/>
<path d="M267.502 294.126L277.289 299.573V288.316L267.502 282.506V294.126Z" fill="#2AF6FF"/>
<path opacity="0.3" d="M267.502 314.099L277.289 319.546V308.289L267.502 302.479V314.099Z" fill="#2AF6FF"/>
<path d="M267.502 334.071L277.289 339.881V328.261L267.502 322.814V334.071Z" fill="#2AF6FF"/>
<path opacity="0.3" d="M249.016 323.177L258.802 328.987V317.73L249.016 311.92V323.177Z" fill="#2AF6FF"/>
<path opacity="0.3" d="M230.529 312.646L240.316 318.456V307.199L230.529 301.389V312.646Z" fill="#2AF6FF"/>
<path opacity="0.3" d="M212.043 302.115L221.83 307.562V296.306L212.043 290.496V302.115Z" fill="#2AF6FF"/>
<path d="M193.559 291.222L203.345 297.032V285.775L193.559 279.965V291.222Z" fill="#2AF6FF"/>
<path d="M156.586 269.798L166.373 275.608V264.351L156.586 258.542V269.798Z" fill="#2AF6FF"/>
<path opacity="0.3" d="M267.502 354.404L277.289 360.214V348.957L267.502 343.147V354.404Z" fill="#2AF6FF"/>
<path d="M230.529 333.343L240.316 338.789V327.533L230.529 321.723V333.343Z" fill="#2AF6FF"/>
<path opacity="0.3" d="M212.043 322.449L221.83 328.259V317.002L212.043 311.192V322.449Z" fill="#2AF6FF"/>
<path opacity="0.3" d="M193.559 311.919L203.345 317.365V306.109L193.559 300.299V311.919Z" fill="#2AF6FF"/>
<path opacity="0.3" d="M175.072 301.025L184.859 306.835V295.578L175.072 289.769V301.025Z" fill="#2AF6FF"/>
<path d="M156.586 290.495L166.373 295.942V284.685L156.586 278.875V290.495Z" fill="#2AF6FF"/>
<path d="M267.502 374.739L277.289 380.549V368.929L267.502 363.482V374.739Z" fill="#2AF6FF"/>
<path opacity="0.3" d="M230.529 353.314L240.316 359.124V347.504L230.529 342.058V353.314Z" fill="#2AF6FF"/>
<path opacity="0.3" d="M212.043 342.421L221.83 348.231V336.974L212.043 331.164V342.421Z" fill="#2AF6FF"/>
<path d="M193.559 331.89L203.345 337.7V326.081L193.559 320.634V331.89Z" fill="#2AF6FF"/>
<path opacity="0.3" d="M156.586 310.467L166.373 316.277V305.02L156.586 299.21V310.467Z" fill="#2AF6FF"/>
<path d="M76.8434 148.153L66.6942 157.594V157.957L82.6429 164.856V173.208L66.6942 161.588V161.951L76.8434 182.649L69.9565 183.012L63.432 162.315H63.0696L56.1827 175.75L50.7456 167.398L60.8947 158.32V157.957L45.3086 151.058V142.706L60.8947 153.963V153.6L50.7456 133.265L57.2701 132.902L63.7945 153.6H64.157L70.6814 140.164L76.8434 148.153Z" fill="url(#paint7_linear)"/>
<path d="M121.064 173.571L110.915 183.012V183.376L126.864 190.275V198.627L110.915 187.007V187.37L121.064 208.068L114.178 208.431L107.653 187.733H107.291L100.404 201.168L94.2417 193.18L104.391 184.102V183.739L88.8047 176.839V168.488L104.391 179.744V179.381L94.2417 158.683L100.766 158.32L107.291 179.018H107.653L114.178 165.583L121.064 173.571Z" fill="url(#paint8_linear)"/>
<path d="M165.286 199.353L155.137 208.794V209.157L171.085 216.056V224.408L155.137 212.788V213.151L165.286 233.849L158.399 234.212L152.237 213.151H151.875L144.988 226.587L138.826 218.598L148.975 209.52V209.157L133.389 202.258V193.906L148.975 205.163V204.8L138.826 184.102L145.35 183.739L151.875 204.437H152.237L158.761 191.001L165.286 199.353Z" fill="url(#paint9_linear)"/>
<path d="M209.507 224.772L199.358 234.213V234.576L215.306 241.475V249.827L199.358 238.207V238.57L209.507 259.268L202.982 259.631L196.458 238.933H196.095L189.208 252.369L183.046 244.38L193.196 235.302V234.939L177.609 228.04V219.688L193.196 230.945V230.581L183.046 209.884L189.571 209.521L196.095 230.218H196.458L202.982 216.783L209.507 224.772Z" fill="url(#paint10_linear)"/>
<path d="M253.728 250.553L243.579 259.994V260.357L259.528 267.257V275.609L243.579 263.989V264.352L253.728 285.05L246.842 285.413L240.317 264.715H239.955L233.068 278.15L226.906 270.162L237.055 261.084V260.721L221.469 253.821V245.47L237.055 256.726V256.363L226.906 235.665L233.43 235.302L239.955 256H240.317L246.842 242.565L253.728 250.553Z" fill="url(#paint11_linear)"/>
<defs>
<linearGradient id="paint0_linear" x1="39.169" y1="363.971" x2="245.066" y2="363.971" gradientUnits="userSpaceOnUse">
<stop offset="0.0555556" stop-color="#9F79B8"/>
<stop offset="0.2575" stop-color="#A17BBA"/>
<stop offset="0.3569" stop-color="#A783BF"/>
<stop offset="0.4338" stop-color="#B290C9"/>
<stop offset="0.4949" stop-color="#C1A1D5"/>
<stop offset="0.5067" stop-color="#C4A5D7"/>
<stop offset="0.5196" stop-color="#CDB3DD"/>
<stop offset="0.5329" stop-color="#DBC8E7"/>
<stop offset="0.5466" stop-color="#EFE7F4"/>
<stop offset="0.5556" stop-color="white"/>
<stop offset="0.5678" stop-color="#ECE0F3"/>
<stop offset="0.5801" stop-color="#DDC8EA"/>
<stop offset="0.5915" stop-color="#D4B9E5"/>
<stop offset="0.601" stop-color="#D1B4E3"/>
<stop offset="0.658" stop-color="#B395D6"/>
<stop offset="0.7155" stop-color="#9C7DCB"/>
<stop offset="0.7687" stop-color="#8E6EC5"/>
<stop offset="0.8131" stop-color="#8969C3"/>
<stop offset="1" stop-color="#B086CC"/>
</linearGradient>
<linearGradient id="paint1_linear" x1="192.904" y1="313.093" x2="31.2727" y2="422.964" gradientUnits="userSpaceOnUse">
<stop stop-color="#9F79C8"/>
<stop offset="0.1409" stop-color="#A27DCA"/>
<stop offset="0.2725" stop-color="#AC88CF"/>
<stop offset="0.4" stop-color="#BC9BD7"/>
<stop offset="0.5202" stop-color="#D1B4E3"/>
<stop offset="0.6493" stop-color="#DBC4E9"/>
<stop offset="0.8997" stop-color="#F4EDF8"/>
<stop offset="1" stop-color="white"/>
</linearGradient>
<linearGradient id="paint2_linear" x1="147.27" y1="352.783" x2="165.641" y2="322.037" gradientUnits="userSpaceOnUse">
<stop stop-color="white"/>
<stop offset="1" stop-color="#8969C3"/>
</linearGradient>
<linearGradient id="paint3_linear" x1="-166.523" y1="-67.0821" x2="338.965" y2="371.2" gradientUnits="userSpaceOnUse">
<stop stop-color="#9F79C8"/>
<stop offset="0.1409" stop-color="#A27DCA"/>
<stop offset="0.2725" stop-color="#AC88CF"/>
<stop offset="0.4" stop-color="#BC9BD7"/>
<stop offset="0.5202" stop-color="#D1B4E3"/>
<stop offset="0.6493" stop-color="#DBC4E9"/>
<stop offset="0.8997" stop-color="#F4EDF8"/>
<stop offset="1" stop-color="white"/>
</linearGradient>
<linearGradient id="paint4_linear" x1="312.212" y1="413.8" x2="-25.1093" y2="-13.5715" gradientUnits="userSpaceOnUse">
<stop offset="0.030303" stop-color="#7C1DC9"/>
<stop offset="0.2138" stop-color="#6E41D2"/>
<stop offset="0.6184" stop-color="#4C9BE8"/>
<stop offset="1" stop-color="#2AF6FF"/>
</linearGradient>
<linearGradient id="paint5_linear" x1="365.318" y1="423.049" x2="116.671" y2="26.4553" gradientUnits="userSpaceOnUse">
<stop offset="0.0555556" stop-color="#9F79B8"/>
<stop offset="0.2575" stop-color="#A17BBA"/>
<stop offset="0.3569" stop-color="#A783BF"/>
<stop offset="0.4338" stop-color="#B290C9"/>
<stop offset="0.4949" stop-color="#C1A1D5"/>
<stop offset="0.5067" stop-color="#C4A5D7"/>
<stop offset="0.5196" stop-color="#CDB3DD"/>
<stop offset="0.5329" stop-color="#DBC8E7"/>
<stop offset="0.5466" stop-color="#EFE7F4"/>
<stop offset="0.5556" stop-color="white"/>
<stop offset="0.5678" stop-color="#ECE0F3"/>
<stop offset="0.5801" stop-color="#DDC8EA"/>
<stop offset="0.5915" stop-color="#D4B9E5"/>
<stop offset="0.601" stop-color="#D1B4E3"/>
<stop offset="0.658" stop-color="#B395D6"/>
<stop offset="0.7155" stop-color="#9C7DCB"/>
<stop offset="0.7687" stop-color="#8E6EC5"/>
<stop offset="0.8131" stop-color="#8969C3"/>
<stop offset="1" stop-color="#B086CC"/>
</linearGradient>
<radialGradient id="paint6_radial" cx="0" cy="0" r="1" gradientUnits="userSpaceOnUse" gradientTransform="translate(295.661 179.405) scale(42.2148 42.2906)">
<stop stop-color="white"/>
<stop offset="1"/>
</radialGradient>
<linearGradient id="paint7_linear" x1="76.6542" y1="271.312" x2="49.953" y2="33.0996" gradientUnits="userSpaceOnUse">
<stop offset="0.0959596" stop-color="#45108A"/>
<stop offset="1" stop-color="#7C1DC9"/>
</linearGradient>
<linearGradient id="paint8_linear" x1="117.494" y1="266.734" x2="90.7926" y2="28.5219" gradientUnits="userSpaceOnUse">
<stop offset="0.0959596" stop-color="#45108A"/>
<stop offset="1" stop-color="#7C1DC9"/>
</linearGradient>
<linearGradient id="paint9_linear" x1="158.336" y1="262.156" x2="131.635" y2="23.944" gradientUnits="userSpaceOnUse">
<stop offset="0.0959596" stop-color="#45108A"/>
<stop offset="1" stop-color="#7C1DC9"/>
</linearGradient>
<linearGradient id="paint10_linear" x1="199.176" y1="257.579" x2="172.475" y2="19.3666" gradientUnits="userSpaceOnUse">
<stop offset="0.0959596" stop-color="#45108A"/>
<stop offset="1" stop-color="#7C1DC9"/>
</linearGradient>
<linearGradient id="paint11_linear" x1="240.016" y1="253.001" x2="213.315" y2="14.7892" gradientUnits="userSpaceOnUse">
<stop offset="0.0959596" stop-color="#45108A"/>
<stop offset="1" stop-color="#7C1DC9"/>
</linearGradient>
</defs>
</svg>
