<svg width="250" height="500" viewBox="0 0 250 500" fill="none" xmlns="http://www.w3.org/2000/svg">
<g clip-path="url(#clip0)">
<g opacity="0.2">
<path opacity="0.090909" d="M15.3138 379.967L48.0125 359.686C48.4264 359.686 60.0158 352.235 60.4297 352.235C67.8801 348.096 76.5721 346.027 85.6781 346.441C88.9893 346.441 91.8867 346.855 94.784 347.268C98.9231 348.096 103.062 349.752 106.373 351.408L169.287 387.831L184.602 396.523L232.201 423.841C239.238 427.98 244.618 435.017 244.618 442.467C244.618 446.192 239.238 453.643 231.787 460.679C222.681 469.371 210.678 479.305 205.297 482.616L189.569 492.136C186.258 494.206 181.705 495.861 177.979 497.103C173.426 498.345 168.873 499.172 163.907 499.172C156.042 499.172 148.592 497.517 142.797 494.206C142.797 494.206 139.486 492.136 139.072 492.136L78.6417 457.368L67.0523 450.745L14.8999 420.53C8.27742 416.805 2.89662 409.768 2.06881 403.146C2.06881 402.732 2.06881 402.318 2.06881 401.904C0.827085 393.212 5.79397 385.348 15.3138 379.967Z" fill="black"/>
<path opacity="0.1818" d="M15.7285 380.795L47.5994 360.927C48.0133 360.514 59.1888 353.891 59.6027 353.891C66.6391 350.166 75.745 348.096 84.4371 348.51C87.3344 348.51 90.2318 348.924 93.1292 349.752C96.8543 350.58 101.407 352.235 104.305 353.891L165.149 389.073L180.05 397.765L225.993 424.255C232.202 427.98 238.825 435.431 238.825 441.639C238.825 444.951 235.099 451.987 228.891 459.024C221.027 467.302 210.679 477.235 204.47 480.961L188.742 490.48C185.844 492.136 180.878 494.62 177.566 495.447C173.013 496.689 168.46 497.517 163.907 497.517C156.043 497.931 148.593 496.275 142.798 492.964C142.384 492.964 139.487 491.308 139.073 490.894L79.4702 456.54L67.8808 449.918L16.5563 420.53C10.7616 417.219 4.13909 409.769 3.31127 403.974C3.31127 403.56 3.31127 403.146 2.89737 402.732C1.65564 394.454 6.62253 386.176 15.7285 380.795Z" fill="black"/>
<path opacity="0.2727" d="M16.556 381.623L47.1851 362.169C48.0129 361.755 57.9467 355.547 59.1884 355.547C66.2248 352.235 74.9169 350.166 83.195 350.58C86.0924 350.58 88.9897 351.408 91.4732 351.822C94.7844 352.649 99.7513 354.719 102.235 355.961L161.424 390.315L175.91 398.593L220.612 424.669C226.407 427.98 233.443 435.431 233.443 441.226C233.443 444.123 231.788 451.159 225.993 457.782C219.371 465.232 210.678 475.58 204.056 479.305L188.741 488.825C186.258 490.48 180.463 492.964 177.566 493.792C173.427 495.033 168.874 495.861 163.907 496.275C156.043 496.689 149.006 495.033 143.212 492.136C142.798 492.136 139.9 490.48 139.9 490.067L80.7116 456.126L69.5361 449.504L18.2116 420.116C12.8308 417.219 5.79437 409.355 4.55265 403.974C4.55265 403.56 4.13874 403.146 4.13874 402.732C2.89702 395.282 7.03609 387.418 16.556 381.623Z" fill="black"/>
<path opacity="0.3636" d="M16.9709 382.864L46.7722 363.825C48.014 363.411 57.1199 357.616 58.3616 357.616C65.3981 354.305 73.6762 352.649 81.9544 353.477C84.8517 353.477 87.7491 354.305 90.2325 354.719C93.1298 355.547 98.5106 357.616 100.58 359.272L158.113 392.384L172.186 400.663L215.646 425.911C220.613 428.808 228.891 436.259 228.891 441.225C228.891 443.709 230.133 451.987 224.338 456.54C220.613 464.404 211.921 473.924 204.885 478.063L189.57 487.583C187.501 488.825 181.292 492.136 178.809 492.964C174.67 494.206 170.117 495.447 165.564 495.447C158.113 495.861 150.663 494.619 144.868 491.722C144.454 491.722 141.557 490.066 141.557 489.653L82.7822 456.126L71.6067 449.504L20.6961 420.116C16.1431 417.219 7.03713 409.768 6.62322 404.802C6.62322 404.388 6.20932 403.974 6.20932 403.56C3.72587 396.523 7.45104 388.245 16.9709 382.864Z" fill="black"/>
<path opacity="0.4545" d="M17.3834 383.693L46.3569 365.481C47.5986 364.653 55.8767 359.686 57.5324 359.686C64.5688 356.789 72.433 355.547 80.2973 355.961C83.1946 356.375 85.6781 356.789 88.1615 357.617C90.645 358.03 96.4397 360.928 98.0953 362.17L153.973 394.454L167.632 402.319L209.85 426.739C213.989 429.222 223.095 437.087 223.095 441.226C223.095 443.295 226.407 451.573 221.44 455.713C219.784 463.163 211.92 472.683 204.469 476.822L189.569 485.928C187.499 487.17 181.291 490.481 178.807 491.309C174.668 492.55 170.115 493.792 165.562 494.206C158.112 494.62 150.662 493.792 144.867 490.895C144.453 490.895 141.969 489.239 141.556 489.239L83.6085 455.713L72.433 449.504L22.3503 420.53C19.039 418.047 8.69132 409.769 8.27741 405.63C8.27741 405.216 7.8635 404.802 7.8635 404.388C4.55224 397.352 7.8635 389.487 17.3834 383.693Z" fill="black"/>
<path opacity="0.5455" d="M18.2121 384.933L46.3578 367.135C48.0134 366.308 55.4638 361.755 57.5333 361.341C64.1558 358.443 72.434 357.616 79.4704 358.443C82.3678 358.857 84.8512 359.685 86.9207 360.099C88.9903 360.513 94.785 363.41 96.4406 364.652L150.662 396.109L163.907 403.559L204.884 427.152C208.609 429.222 218.543 437.086 218.543 440.811C218.543 442.467 223.924 450.745 219.785 454.47C219.785 461.506 213.162 471.026 205.298 475.579L190.398 484.685C188.742 485.513 181.706 489.652 180.05 490.066C175.911 491.308 171.772 492.963 167.219 493.377C159.768 494.205 152.732 492.963 146.937 490.48C146.109 490.066 144.04 488.824 143.626 488.824L86.5068 455.712L75.7452 449.503L26.0764 420.943C21.9373 418.046 10.3479 409.768 9.93398 406.457C9.52007 406.043 9.52007 405.629 9.10616 405.629C5.381 398.592 8.69226 390.314 18.2121 384.933Z" fill="black"/>
<path opacity="0.6364" d="M18.6257 385.761L45.5296 368.377C47.1853 367.136 54.2217 363.824 56.2912 362.997C62.9137 360.513 70.778 359.685 77.8144 360.513C80.2978 360.927 82.7813 361.755 85.2647 362.169C86.9204 362.583 93.129 365.894 94.3707 366.722L146.937 397.351L159.768 404.801L199.503 427.566C202.4 429.222 213.162 437.086 213.162 439.983C213.162 441.225 220.612 449.917 217.301 452.814C218.957 459.437 213.576 468.957 205.298 473.51L190.811 482.616C189.569 483.444 182.119 487.583 180.463 488.41C176.324 489.652 172.185 491.308 167.632 491.722C160.182 492.549 153.146 491.722 147.351 489.238C146.523 488.824 144.453 487.997 144.04 487.583L87.3343 454.884L76.5727 448.675L27.3177 420.53C24.8343 418.46 12.0031 409.768 11.5892 406.871C11.1753 406.457 11.1753 406.043 10.7614 406.043C6.20843 399.42 9.10578 391.142 18.6257 385.761Z" fill="black"/>
<path opacity="0.7273" d="M19.4531 386.589L45.5293 369.619C47.5988 368.378 53.3935 365.48 55.877 364.652C62.4995 362.583 69.9498 361.755 76.5723 362.583C79.0558 362.997 81.5392 363.825 83.6088 364.652C84.8505 365.066 91.473 368.378 92.3008 369.205L143.211 398.593L155.629 405.629L193.708 427.566C195.778 428.808 207.781 436.672 207.781 439.156C207.781 440.397 217.301 448.676 214.817 450.745C218.543 456.954 213.99 466.474 204.884 471.44L190.397 480.546C189.569 480.96 181.291 485.927 180.463 486.341C176.324 487.583 172.185 489.238 168.046 490.066C161.009 490.894 153.559 490.066 148.178 487.997C147.351 487.583 145.695 486.755 144.867 486.341L88.9896 454.056L78.228 447.848L29.8008 419.702C27.7313 418.46 14.0724 409.354 13.6584 407.285C13.2445 406.871 13.2445 406.871 12.8306 406.457C7.03593 400.662 9.51937 392.384 19.4531 386.589Z" fill="black"/>
<path opacity="0.8182" d="M19.8678 387.832L45.1161 371.689C47.5996 370.448 52.5665 367.964 55.4638 367.136C62.0863 365.067 69.1227 364.653 75.7453 365.895C78.2287 366.309 80.2982 367.136 82.3678 367.964C83.1956 368.378 90.232 372.103 90.6459 372.517L139.901 400.663L151.904 407.699L188.742 429.223C189.984 430.05 202.815 438.329 202.815 439.57C202.815 440.398 214.404 449.09 212.749 450.332C218.129 456.127 214.818 465.232 205.298 470.613L191.225 479.719C190.398 480.133 182.119 485.514 181.292 485.514C177.566 487.17 173.427 488.825 168.874 489.239C161.838 490.067 154.802 489.653 149.007 487.17C148.179 486.756 146.523 485.928 145.696 485.514L90.232 453.643L79.4704 447.434L31.4572 419.703C30.2155 418.875 14.9009 409.355 14.9009 408.113C14.487 407.699 14.0731 407.699 14.0731 407.285C7.86447 401.491 9.934 393.213 19.8678 387.832Z" fill="black"/>
<path opacity="0.9091" d="M20.2806 388.659L44.7012 372.931C47.1846 371.275 51.3237 369.619 54.6349 368.791C61.2575 367.136 68.2939 366.722 74.0886 367.964C76.572 368.378 78.6416 369.619 80.7111 370.033C81.125 370.033 88.5753 374.172 88.5753 374.586L135.761 401.904L147.35 408.527L182.946 429.222C183.774 429.636 197.433 437.914 197.433 438.742C197.433 439.156 211.092 447.848 210.264 448.676C217.3 454.056 215.231 463.162 205.297 468.957L191.224 478.063C190.81 478.063 181.704 483.858 181.704 484.272C177.979 485.927 173.84 487.583 169.701 488.411C162.665 489.652 155.628 489.239 149.834 486.755C148.592 486.341 147.35 485.513 146.522 485.099L91.8866 453.643L81.5389 447.434L33.9396 420.116C33.1118 419.702 16.9694 409.768 16.9694 408.941C16.5555 408.527 16.1416 408.527 15.7277 408.113C8.69124 402.732 10.7608 394.454 20.2806 388.659Z" fill="black"/>
<path opacity="0.2" d="M147.351 484.272L82.7816 447.02L18.626 409.769C9.52003 404.802 10.7618 395.696 21.1094 389.487L44.2882 374.173C54.6359 368.378 70.3644 367.55 79.0565 372.931L143.626 410.183L208.196 447.434C217.301 452.401 216.06 461.507 205.712 467.716L182.533 483.03C171.772 488.825 156.457 489.239 147.351 484.272Z" fill="black"/>
</g>
<path d="M164.735 481.789L44.2881 412.252C30.6292 404.388 19.8676 383.279 19.8676 365.481V25.6627C19.4537 16.5567 12.0033 14.4872 16.5563 11.1759C16.5563 11.1759 35.1822 1.65608 35.5961 1.65608C40.563 -0.413458 45.9437 -1.24127 52.1524 2.48389L172.599 72.0203C186.258 79.8846 197.02 100.994 197.02 118.792V458.61C197.02 468.13 193.709 475.166 189.156 478.063C188.742 478.063 168.046 488.825 167.633 488.825C163.493 490.481 170.53 485.1 164.735 481.789Z" fill="url(#paint0_linear)"/>
<path opacity="0.6" d="M155.215 466.888L34.7682 397.351C21.1092 389.487 10.3477 368.378 10.3477 350.58V29.8016C10.3477 11.5897 21.5232 3.31151 34.7682 11.1757L155.215 80.7122C168.874 88.5764 179.636 109.686 179.636 127.484V447.848C179.636 466.474 168.874 474.752 155.215 466.888Z" fill="url(#paint1_radial)"/>
<path d="M153.145 487.17L32.6979 417.634C19.0389 409.769 8.27734 388.66 8.27734 370.862V31.0442C8.27734 12.8323 19.0389 4.55418 32.6979 12.4184L153.145 81.9548C166.804 89.8191 177.565 110.928 177.565 128.726V468.544C177.565 486.756 166.804 495.034 153.145 487.17Z" fill="white"/>
<path d="M11.5898 372.931V32.6988C11.5898 16.9704 21.1097 9.52002 33.113 16.5564L152.732 85.679C164.736 92.7154 174.255 110.927 174.255 126.656V466.888C174.255 482.616 164.736 490.066 152.732 483.03L33.113 413.907C21.1097 407.285 11.5898 388.659 11.5898 372.931Z" fill="url(#paint2_linear)"/>
<path d="M16.1426 355.547V36.425C16.1426 23.18 24.4207 16.9713 34.3545 22.766L151.49 90.2329C161.424 96.0276 169.702 111.342 169.702 124.587V443.71C169.702 456.955 161.424 463.163 151.49 457.369L34.3545 389.902C24.4207 384.107 16.1426 368.793 16.1426 355.547Z" fill="url(#paint3_linear)"/>
<path d="M35.5972 26.0763C26.4912 20.6955 18.627 25.2485 18.627 36.0101V358.858C18.627 369.619 26.0773 382.864 35.5972 388.245L149.836 454.47C159.355 459.851 166.806 455.712 166.806 444.95V122.103C166.806 111.341 159.355 98.0962 149.836 92.7154L35.5972 26.0763Z" fill="#BCBEC0"/>
<path opacity="0.5" d="M182.533 216.889V182.534C182.533 177.981 185.017 173.014 188.328 171.359C191.639 169.289 194.123 171.359 194.123 175.912V210.266C194.123 214.819 191.639 219.786 188.328 221.442C185.017 223.097 182.533 221.028 182.533 216.889Z" fill="url(#paint4_linear)"/>
<path d="M185.845 220.613C184.189 220.613 183.361 218.543 183.361 216.887V182.533C183.361 178.808 185.845 173.841 188.742 172.185C189.156 171.771 189.984 171.771 190.398 171.771C192.053 171.771 192.881 173.841 192.881 175.497V209.851C192.881 213.576 190.398 218.543 187.5 220.199C187.086 220.613 186.259 220.613 185.845 220.613Z" fill="url(#paint5_linear)"/>
<path d="M185.431 217.715V183.361C185.431 179.636 187.914 174.669 190.812 173.013C191.226 172.599 192.054 172.599 192.467 172.599C192.054 172.185 191.64 171.771 190.812 171.771C190.398 171.771 189.57 171.771 189.156 172.185C186.259 173.841 183.775 178.394 183.775 182.533V216.887C183.775 218.543 184.189 220.613 186.259 220.613C185.431 219.785 185.431 218.543 185.431 217.715Z" fill="url(#paint6_radial)"/>
<path d="M165.563 444.537C165.563 447.848 164.735 450.746 163.493 452.401C162.251 454.057 160.182 454.885 157.698 454.885C155.629 454.885 153.145 454.057 150.662 452.815L36.4236 386.59C27.3177 381.209 20.2812 368.792 20.2812 358.444V35.5967C20.2812 28.9742 23.1786 25.249 28.1455 25.249C30.215 25.249 32.6985 26.0768 35.1819 27.3186L149.42 93.5437C158.526 98.9245 165.563 111.342 165.563 121.689V444.537Z" fill="url(#paint7_linear)"/>
<path d="M91.4725 271.524C91.0585 271.524 91.0585 271.524 90.6446 271.524C88.5751 271.11 86.9195 268.627 87.3334 266.557C91.0585 250.001 92.7142 232.203 92.7142 213.163V211.921C92.7142 209.438 94.3698 207.782 96.8532 207.782C99.3367 207.782 100.992 209.438 100.992 211.921V213.163C100.992 233.031 98.9228 251.656 95.1976 268.627C94.7837 270.282 93.1281 271.524 91.4725 271.524Z" fill="#45108A"/>
<path d="M68.7085 293.047C68.2946 293.047 67.8807 293.047 67.8807 293.047C65.8111 292.633 64.1555 290.15 64.9833 288.08C71.6058 261.176 74.5032 224.338 74.5032 201.16C74.5032 194.951 76.5727 189.984 80.2979 187.087C81.9535 185.845 84.8509 185.845 86.0926 187.501C87.3343 189.156 87.3343 192.054 85.6787 193.295C84.0231 194.537 83.1952 197.434 83.1952 200.746C83.1952 224.338 80.2979 262.418 73.6754 289.736C72.0197 291.805 70.3641 293.047 68.7085 293.047Z" fill="#45108A"/>
<path d="M114.237 225.581C111.754 225.581 110.098 223.926 110.098 221.442C110.098 211.509 102.648 199.091 94.3698 194.124C92.3003 192.883 91.8864 190.399 92.7142 188.33C93.9559 186.26 96.4393 185.846 98.5089 186.674C109.684 193.297 118.376 208.197 118.376 221.442C118.376 223.926 116.307 225.581 114.237 225.581Z" fill="#45108A"/>
<path d="M101.408 316.64C100.994 316.64 100.58 316.64 100.58 316.64C98.5104 316.226 96.8547 313.743 97.6825 311.673C102.236 292.219 106.789 266.557 108.858 247.104C109.272 245.034 111.341 243.378 113.411 243.378C115.481 243.792 117.136 245.862 117.136 247.931C114.653 267.799 110.514 293.461 105.961 313.329C104.719 315.398 103.063 316.64 101.408 316.64Z" fill="#45108A"/>
<path d="M139.486 322.435C139.072 322.435 138.659 322.435 138.245 322.435C136.175 322.021 134.52 319.538 135.347 317.468C141.556 294.703 144.453 269.869 144.453 242.965V241.723C144.453 209.852 122.102 170.945 94.3705 154.803C81.5394 147.352 69.95 146.111 61.2579 151.077C52.9798 156.044 48.0129 166.806 48.0129 180.879C48.0129 204.471 45.5294 227.236 40.9765 247.932C40.5626 250.001 38.0791 251.657 36.0096 251.243C33.94 250.415 32.2844 248.346 33.1122 246.276C37.2513 225.995 39.7347 204.058 39.7347 180.879C39.7347 163.495 45.9434 150.25 57.1189 143.627C68.2943 137.005 83.195 138.66 98.5096 147.352C128.311 164.736 152.731 206.955 152.731 241.309V242.551C152.731 270.283 149.42 295.945 143.212 319.538C142.798 321.193 141.142 322.435 139.486 322.435Z" fill="#45108A"/>
<path d="M51.7378 273.593C51.3239 273.593 50.91 273.593 50.91 273.593C48.8404 273.179 47.1848 270.696 48.0126 268.626C50.4961 259.107 52.5656 248.759 53.8073 238.411C54.2212 236.342 56.2908 234.686 58.3603 234.686C60.4298 235.1 62.0855 237.169 62.0855 239.239C60.4298 250.001 58.3603 260.348 55.8769 270.282C55.463 272.352 53.8073 273.593 51.7378 273.593Z" fill="#45108A"/>
<path d="M58.7738 233.859H58.3599C56.2904 233.445 54.6348 231.376 54.6348 229.306C55.8765 216.889 56.7043 204.058 56.7043 190.813C56.7043 182.948 58.7738 175.912 62.0851 170.945C63.3268 169.289 65.8103 168.462 67.8798 170.117C69.9493 171.359 70.3632 173.842 68.7076 175.912C66.2242 179.637 64.5685 184.604 64.5685 190.813C64.5685 204.058 63.7407 217.303 62.499 230.134C62.9129 232.203 60.8434 233.859 58.7738 233.859Z" fill="#45108A"/>
<path d="M126.655 212.336C124.999 212.336 123.343 211.508 122.929 209.853C117.135 194.952 105.959 181.293 94.3698 174.67C87.7472 170.945 81.9525 169.703 76.9856 170.945C74.9161 171.359 72.4327 170.117 72.0188 168.048C71.6049 165.978 72.8466 163.495 74.9161 163.081C81.9525 161.425 90.2307 162.667 98.5088 167.634C111.754 175.498 123.757 189.985 130.794 206.955C131.621 209.025 130.794 211.508 128.31 212.336C127.482 212.336 127.068 212.336 126.655 212.336Z" fill="#45108A"/>
<path d="M118.377 322.435C117.963 322.435 117.549 322.435 117.135 322.021C115.066 321.193 113.824 319.124 114.652 316.64L115.48 314.571C123.344 290.564 127.483 262.832 127.483 232.617V231.375C127.483 228.892 129.139 227.236 131.622 227.236C134.106 227.236 135.761 228.892 135.761 231.375V232.617C135.761 263.66 131.622 292.22 123.344 317.468L122.516 319.538C121.688 321.193 120.033 322.435 118.377 322.435Z" fill="#45108A"/>
</g>
<defs>
<linearGradient id="paint0_linear" x1="-26.5107" y1="8.47479" x2="136.256" y2="290.395" gradientUnits="userSpaceOnUse">
<stop offset="0.0555556" stop-color="#9F79B8"/>
<stop offset="0.2575" stop-color="#A17BBA"/>
<stop offset="0.3569" stop-color="#A783BF"/>
<stop offset="0.4338" stop-color="#B290C9"/>
<stop offset="0.4949" stop-color="#C1A1D5"/>
<stop offset="0.5067" stop-color="#C4A5D7"/>
<stop offset="0.5196" stop-color="#CDB3DD"/>
<stop offset="0.5329" stop-color="#DBC8E7"/>
<stop offset="0.5466" stop-color="#EFE7F4"/>
<stop offset="0.5556" stop-color="white"/>
<stop offset="0.5678" stop-color="#ECE0F3"/>
<stop offset="0.5801" stop-color="#DDC8EA"/>
<stop offset="0.5915" stop-color="#D4B9E5"/>
<stop offset="0.601" stop-color="#D1B4E3"/>
<stop offset="0.658" stop-color="#B395D6"/>
<stop offset="0.7155" stop-color="#9C7DCB"/>
<stop offset="0.7687" stop-color="#8E6EC5"/>
<stop offset="0.8131" stop-color="#8969C3"/>
<stop offset="1" stop-color="#B086CC"/>
</linearGradient>
<radialGradient id="paint1_radial" cx="0" cy="0" r="1" gradientUnits="userSpaceOnUse" gradientTransform="translate(174.835 108.692) scale(173.78)">
<stop stop-color="#AF8AFC"/>
<stop offset="1" stop-color="#10054D"/>
</radialGradient>
<linearGradient id="paint2_linear" x1="198.894" y1="473.766" x2="-54.1022" y2="-60.8194" gradientUnits="userSpaceOnUse">
<stop stop-color="#9F79C8"/>
<stop offset="0.1409" stop-color="#A27DCA"/>
<stop offset="0.2725" stop-color="#AC88CF"/>
<stop offset="0.4" stop-color="#BC9BD7"/>
<stop offset="0.5202" stop-color="#D1B4E3"/>
<stop offset="0.6493" stop-color="#DBC4E9"/>
<stop offset="0.8997" stop-color="#F4EDF8"/>
<stop offset="1" stop-color="white"/>
</linearGradient>
<linearGradient id="paint3_linear" x1="178.802" y1="588.896" x2="41.4377" y2="31.2516" gradientUnits="userSpaceOnUse">
<stop offset="0.0959596" stop-color="#45108A"/>
<stop offset="1" stop-color="#7C1DC9"/>
</linearGradient>
<linearGradient id="paint4_linear" x1="193.19" y1="209.472" x2="164.686" y2="132.451" gradientUnits="userSpaceOnUse">
<stop offset="0.0959596" stop-color="#45108A"/>
<stop offset="1" stop-color="#7C1DC9"/>
</linearGradient>
<linearGradient id="paint5_linear" x1="197.595" y1="196.589" x2="167.685" y2="195.303" gradientUnits="userSpaceOnUse">
<stop stop-color="#9F79C8"/>
<stop offset="0.1409" stop-color="#A27DCA"/>
<stop offset="0.2725" stop-color="#AC88CF"/>
<stop offset="0.4" stop-color="#BC9BD7"/>
<stop offset="0.5202" stop-color="#D1B4E3"/>
<stop offset="0.6493" stop-color="#DBC4E9"/>
<stop offset="0.8997" stop-color="#F4EDF8"/>
<stop offset="1" stop-color="white"/>
</linearGradient>
<radialGradient id="paint6_radial" cx="0" cy="0" r="1" gradientUnits="userSpaceOnUse" gradientTransform="translate(184.397 183.907) scale(17.5658)">
<stop stop-color="#711F56"/>
<stop offset="0.1614" stop-color="#6C1E52"/>
<stop offset="0.3626" stop-color="#5C1946"/>
<stop offset="0.5849" stop-color="#431233"/>
<stop offset="0.8208" stop-color="#200918"/>
<stop offset="1"/>
</radialGradient>
<linearGradient id="paint7_linear" x1="165.999" y1="477.458" x2="13.1695" y2="-18.633" gradientUnits="userSpaceOnUse">
<stop offset="0.030303" stop-color="#7C1DC9"/>
<stop offset="0.2138" stop-color="#6E41D2"/>
<stop offset="0.6184" stop-color="#4C9BE8"/>
<stop offset="1" stop-color="#2AF6FF"/>
</linearGradient>
<clipPath id="clip0">
<rect width="249.172" height="500" fill="white"/>
</clipPath>
</defs>
</svg>
