<svg width="142" height="204" viewBox="0 0 142 204" fill="none" xmlns="http://www.w3.org/2000/svg">
<g opacity="0.2">
<path opacity="0.090909" d="M68.1822 121.164C71.6533 119.186 76.364 117.95 80.8269 117.95C82.8103 117.95 84.7938 118.197 86.5293 118.692C88.017 119.186 90.0004 119.928 91.2401 120.67L131.653 145.397C131.653 145.397 133.141 146.139 133.141 146.386C136.86 148.612 138.596 152.073 138.348 155.782C138.1 159.492 135.372 163.695 131.158 165.921L75.3723 198.066L70.9095 200.539C67.4384 202.517 62.9756 203.506 58.7607 203.506C55.0417 203.506 51.5706 202.764 48.5954 201.033L6.69448 175.812L6.19862 175.564C2.4796 173.339 0.74406 169.877 0.991994 166.168C0.991994 162.212 3.96721 158.255 7.93416 155.782L68.1822 121.164Z" fill="black"/>
<path opacity="0.1818" d="M66.446 122.647C69.9171 120.669 74.6278 119.433 79.0907 119.68C81.0741 119.68 82.8097 119.927 84.5452 120.422C86.0328 120.916 88.0163 121.658 89.256 122.4L129.421 146.88C129.421 146.88 130.661 147.622 130.909 147.869C134.628 150.094 135.868 153.556 135.372 157.265C134.876 160.727 131.901 164.683 128.182 166.909L74.3799 197.818C74.132 197.818 70.165 200.291 69.9171 200.291C66.446 202.022 62.2311 203.011 58.0162 203.011C54.2972 203.011 51.0741 202.269 48.3468 200.538L6.94177 175.316L6.44591 175.069C2.72689 172.843 1.48722 169.382 1.98309 165.673C2.47896 162.211 5.20623 158.254 9.17318 156.029L66.446 122.647Z" fill="black"/>
<path opacity="0.2727" d="M64.7109 124.378C68.182 122.4 72.8928 121.411 77.1076 121.411C79.0911 121.411 80.8266 121.906 82.5622 122.4C83.8019 122.648 86.0333 123.884 87.2729 124.378L127.19 148.611C127.438 148.611 128.43 149.353 128.678 149.6C132.149 151.826 132.893 155.288 132.397 158.997C131.901 161.964 128.678 166.168 125.207 167.898L73.6366 197.818C73.3886 198.066 69.6696 200.044 69.4217 200.044C66.1985 201.775 62.2316 202.764 58.0167 202.764C54.5456 202.764 51.3225 202.022 48.8431 200.538L6.94222 175.069L6.44635 174.822C2.72734 172.597 1.23973 168.888 2.47941 165.426C2.47941 162.458 6.19842 158.502 9.42157 156.524L64.7109 124.378Z" fill="black"/>
<path opacity="0.3636" d="M62.9755 125.862C66.4466 123.884 71.1573 122.895 75.3722 122.895C77.3557 122.895 79.0912 123.39 80.8268 123.884C81.8185 124.131 84.5458 125.368 85.2896 125.862L124.959 150.095C125.207 150.095 126.199 150.837 126.447 151.084C129.918 153.31 130.91 157.019 129.422 160.48C129.422 163.2 125.207 167.157 122.232 168.888L72.8929 197.571C72.645 197.819 69.1739 199.55 68.9259 199.797C65.7028 201.528 61.9838 202.27 58.0168 202.27C54.5458 202.27 51.5705 201.528 49.0912 200.044L7.19031 174.575L6.69444 174.328C2.97542 172.102 1.73575 168.393 3.47129 164.931C3.47129 162.211 7.43824 158.255 10.4135 156.524L62.9755 125.862Z" fill="black"/>
<path opacity="0.4545" d="M61.2402 127.345C64.7113 125.367 69.1741 124.378 73.6369 124.625C75.6204 124.625 77.3559 125.12 79.0915 125.614C80.0832 125.862 82.8105 127.345 83.5543 127.84L122.976 151.825C123.224 152.073 124.216 152.567 124.463 152.814C127.935 155.287 128.678 158.749 126.695 161.963C126.695 164.189 121.984 168.392 119.505 169.876L72.3973 197.571C71.9014 197.818 68.9262 199.549 68.4303 199.549C65.4551 201.032 61.7361 201.774 58.0171 201.774C54.7939 201.774 51.8187 201.032 49.5873 199.549L7.43847 174.327L6.9426 174.08C3.22358 171.607 2.23185 167.898 4.46325 164.683C4.46325 162.458 8.92607 158.502 11.4054 157.018L61.2402 127.345Z" fill="black"/>
<path opacity="0.5455" d="M59.5046 129.077C62.9757 127.099 67.4385 126.109 71.9014 126.357C73.8848 126.604 75.6204 127.098 77.108 127.593C77.8518 127.84 80.827 129.324 81.5708 129.819L120.744 153.804C120.992 154.051 121.984 154.546 121.984 154.793C125.207 157.266 125.703 160.728 123.224 163.942C123.224 165.92 118.265 169.877 116.034 171.113L71.4055 197.324C70.9096 197.571 68.1824 199.055 67.6865 199.302C64.7113 200.786 61.2402 201.528 57.7691 201.28C54.7939 201.28 51.8187 200.539 49.5873 199.302L7.68637 173.833L7.1905 173.586C3.47148 171.113 2.72768 167.404 5.45496 164.189C5.45496 162.211 10.1657 158.255 12.3971 157.019L59.5046 129.077Z" fill="black"/>
<path opacity="0.6364" d="M57.7684 130.561C61.2395 128.582 65.7023 127.593 69.9172 127.841C71.9007 128.088 73.6362 128.582 75.1238 129.077C75.8676 129.324 78.8429 131.055 79.3387 131.302L118.264 155.041C118.512 155.288 119.256 155.782 119.504 156.03C122.727 158.502 122.975 162.211 120 165.179C120 166.662 114.545 170.866 113.058 171.855L70.661 197.324C70.1652 197.571 67.6858 198.808 66.942 199.055C63.9668 200.291 60.7437 201.033 57.2726 200.786C54.2974 200.786 51.5701 200.044 49.5866 198.808L7.93366 173.586C7.68573 173.339 7.43779 173.091 7.18986 173.091C3.47085 170.619 3.22291 166.91 6.19812 163.695C6.19812 162.211 11.4047 158.255 12.8923 157.266L57.7684 130.561Z" fill="black"/>
<path opacity="0.7273" d="M56.2813 132.291C59.7524 130.313 64.2152 129.324 68.4301 129.818C70.4136 130.066 72.1491 130.56 73.6367 131.055C74.1326 131.302 77.6037 133.033 77.8516 133.28L116.529 157.018C116.777 157.266 117.521 157.76 117.769 158.008C120.992 160.48 120.744 164.189 117.521 167.157C117.521 168.393 111.819 172.597 110.579 173.091L69.9177 197.324C69.1739 197.818 67.1904 198.808 66.4466 199.055C63.7193 200.291 60.4962 200.786 57.273 200.786C54.5458 200.786 51.8185 200.044 49.835 198.808L7.93411 173.091C7.68618 173.091 7.43824 172.844 7.43824 172.844C3.71923 170.371 3.71923 166.415 7.19031 163.447C7.19031 162.211 12.6449 158.255 13.8845 157.513L56.2813 132.291Z" fill="black"/>
<path opacity="0.8182" d="M54.5458 133.775C58.0169 131.797 62.4797 131.055 66.6946 131.302C68.678 131.55 70.4136 132.044 71.9012 132.786C72.1491 132.786 75.8681 135.011 76.1161 135.259L114.794 158.75C115.29 158.997 115.786 159.491 116.033 159.739C119.009 162.211 118.761 165.92 115.042 168.64C115.042 169.382 108.843 173.586 108.1 174.08L69.6698 197.324C68.926 197.819 67.1904 198.56 66.4466 198.808C63.7193 199.797 60.7441 200.291 57.7689 200.291C55.0416 200.291 52.8102 199.55 50.8268 198.56L8.67793 172.844C8.43 172.844 8.18206 172.597 8.18206 172.597C4.46305 170.124 4.71098 166.168 8.67793 163.2C8.67793 162.459 14.3804 158.502 15.3722 158.008L54.5458 133.775Z" fill="black"/>
<path opacity="0.9091" d="M52.8094 135.505C56.2805 133.527 60.7433 132.785 64.9582 133.28C66.9417 133.527 68.4293 134.269 70.1648 134.763C70.4127 134.763 74.1318 137.236 74.3797 137.236L112.81 160.48C113.305 160.727 113.801 160.974 114.049 161.469C117.024 163.942 116.281 167.651 112.314 170.371C112.314 170.865 105.619 175.069 105.371 175.316L68.9251 197.323C68.1813 197.818 66.6937 198.56 65.702 198.807C63.2226 199.796 60.2474 200.291 57.5202 200.043C55.0408 199.796 52.8094 199.301 50.8259 198.312L8.67709 172.596C8.42916 172.596 8.18122 172.349 8.18122 172.349C4.46221 169.876 4.95808 165.672 9.17296 162.952C9.17296 162.458 15.3713 158.502 15.8672 158.254L52.8094 135.505Z" fill="black"/>
<path opacity="0.2" d="M50.8276 197.571L8.67879 171.855C4.21598 169.382 4.95978 164.931 9.91847 161.964L51.0756 136.742C56.0342 133.775 63.7202 133.528 68.183 136L110.332 161.717C114.795 164.189 114.051 168.64 109.092 171.608L67.6872 196.829C62.7285 199.797 55.0425 200.044 50.8276 197.571Z" fill="black"/>
</g>
<path d="M112.067 143.17H111.075C110.58 142.429 109.836 141.934 108.844 141.192L67.6869 117.454C62.7282 114.734 54.2985 114.981 48.8439 118.196L10.91 140.203C9.42236 140.945 8.18269 141.934 7.43889 143.17H6.19922V168.145C6.44715 169.876 7.43889 171.359 9.42236 172.349L50.5795 196.087C55.5381 198.807 63.9679 198.559 69.4225 195.345L107.356 173.585C110.084 172.101 111.571 170.123 111.819 168.145V143.17H112.067Z" fill="url(#paint0_linear)"/>
<path d="M50.5791 171.854L9.422 148.116C4.46332 145.396 5.20712 140.451 10.6617 137.236L48.5956 115.476C54.2981 112.262 62.7279 112.014 67.4386 114.734L108.596 138.472C113.554 141.192 112.811 146.138 107.356 149.352L69.4221 171.112C63.9676 174.327 55.2899 174.574 50.5791 171.854Z" fill="url(#paint1_linear)"/>
<path d="M107.356 148.363L69.4223 170.123C63.7198 173.338 55.2901 173.585 50.5793 170.865L9.4222 147.374C7.43873 146.138 6.44699 144.901 6.19906 143.17C5.95112 145.149 6.94286 147.127 9.4222 148.61L50.5793 172.349C55.538 175.069 63.9678 174.821 69.4223 171.607L107.356 149.847C110.827 147.869 112.315 145.396 111.819 143.17C111.819 144.901 110.084 146.879 107.356 148.363Z" fill="url(#paint2_radial)"/>
<path d="M108.1 129.076H107.108C106.612 128.334 105.869 127.839 105.125 127.345L67.1909 105.585C62.7281 103.112 54.7942 103.359 49.5876 106.327L14.3809 126.356C12.8933 127.098 11.9016 128.087 11.1578 129.076H10.166V142.181C10.4139 143.665 11.4057 145.148 13.1412 146.138L51.0752 168.145C55.538 170.618 63.4719 170.37 68.6785 167.403L103.885 147.127C106.365 145.643 107.852 143.912 108.1 142.181V129.076Z" fill="url(#paint3_linear)"/>
<path d="M108.1 126.851H107.108C106.612 126.109 105.869 125.614 105.125 125.12L67.1909 103.36C62.7281 100.887 54.7942 101.134 49.5876 104.102L14.3809 124.131C12.8933 124.873 11.9016 125.862 11.1578 126.851H10.166V139.956C10.4139 141.44 11.4057 142.923 13.1412 143.913L51.0752 165.672C55.538 168.145 63.4719 167.898 68.6785 164.931L103.885 144.654C106.365 143.171 107.852 141.44 108.1 139.709V126.851Z" fill="url(#paint4_linear)"/>
<path d="M112.067 120.422H111.075C110.58 119.68 109.836 119.185 108.844 118.444L67.6869 94.7055C62.7282 91.9854 54.2985 92.2327 48.8439 95.4473L10.91 117.702C9.42236 118.444 8.18269 119.433 7.43889 120.669H6.19922V135.011C6.44715 136.742 7.43889 138.225 9.42236 139.215L50.5795 162.953C55.5381 165.673 63.9679 165.425 69.4225 162.211L107.356 140.451C110.084 138.967 111.571 136.989 111.819 135.011V120.422H112.067Z" fill="url(#paint5_linear)"/>
<path d="M50.5791 149.353L9.422 125.615C4.46332 122.895 5.20712 117.949 10.6617 114.735L48.5956 92.9746C54.2981 89.7601 62.7279 89.5128 67.4386 92.2328L108.596 115.971C113.554 118.691 112.811 123.636 107.356 126.851L69.4221 148.364C63.9676 151.578 55.2899 152.073 50.5791 149.353Z" fill="url(#paint6_linear)"/>
<path d="M107.356 125.615L69.4223 147.622C63.7198 150.836 55.2901 151.084 50.5793 148.364L9.4222 124.626C7.43873 123.389 6.44699 122.153 6.19906 120.422C5.95112 122.4 6.94286 124.378 9.4222 125.862L50.5793 149.6C55.538 152.32 63.9678 152.073 69.4223 148.858L107.356 127.098C110.827 125.12 112.315 122.647 111.819 120.422C111.819 122.153 110.084 124.131 107.356 125.615Z" fill="url(#paint7_radial)"/>
<path d="M108.1 106.575H107.108C106.612 105.833 105.869 105.338 105.125 104.844L67.1909 83.0839C62.7281 80.6112 54.7942 80.8584 49.5876 83.8257L14.3809 103.855C12.8933 104.597 11.9016 105.586 11.1578 106.575H10.166V119.68C10.4139 121.164 11.4057 122.648 13.1412 123.637L51.0752 145.397C55.538 147.869 63.4719 147.622 68.6785 144.655L103.885 124.378C106.365 122.895 107.852 121.164 108.1 119.433V106.575Z" fill="url(#paint8_linear)"/>
<path d="M108.1 104.102H107.108C106.612 103.36 105.869 102.866 105.125 102.371L67.1909 80.6112C62.7281 78.1385 54.7942 78.3858 49.5876 81.3531L14.3809 101.629C12.8933 102.371 11.9016 103.36 11.1578 104.349H10.166V117.455C10.4139 118.939 11.4057 120.422 13.1412 121.411L51.0752 143.419C55.538 145.891 63.4719 145.644 68.6785 142.677L103.885 122.4C106.365 120.917 107.852 119.186 108.1 117.455V104.102Z" fill="url(#paint9_linear)"/>
<path d="M112.067 97.9199H111.075C110.58 97.178 109.836 96.6835 108.844 95.9417L67.6869 72.2035C62.7282 69.4835 54.2985 69.7308 48.8439 72.9453L10.91 94.9526C9.42236 95.6944 8.18269 96.6835 7.43889 97.9199H6.19922V112.262C6.44715 113.745 7.43889 115.229 9.42236 116.465L50.5795 140.203C55.5381 142.924 63.9679 142.676 69.4225 139.462L107.356 117.702C110.084 116.218 111.571 114.24 111.819 112.262V97.9199H112.067Z" fill="url(#paint10_linear)"/>
<path d="M50.5791 126.604L9.422 102.866C4.46332 100.146 5.20712 95.2001 10.6617 91.9856L48.5956 70.2256C54.2981 67.011 62.7279 66.7638 67.4386 69.4838L108.596 93.222C113.554 95.942 112.811 100.887 107.356 104.102L69.4221 125.862C63.9676 129.077 55.2899 129.324 50.5791 126.604Z" fill="url(#paint11_linear)"/>
<path d="M107.356 103.113L69.4223 124.873C63.7198 128.087 55.2901 128.334 50.5793 125.614L9.4222 102.124C7.43873 100.887 6.44699 99.6508 6.19906 97.9199C5.95112 99.8981 6.94286 101.876 9.4222 103.36L50.5793 127.098C55.538 129.818 63.9678 129.571 69.4223 126.356L107.356 104.596C110.827 102.618 112.315 100.145 111.819 97.9199C111.819 99.6508 110.084 101.629 107.356 103.113Z" fill="url(#paint12_radial)"/>
<path d="M108.1 83.8253H107.108C106.612 83.0835 105.869 82.5889 105.125 82.0944L67.1909 60.3344C62.7281 57.8617 54.7942 58.1089 49.5876 61.0762L14.3809 81.1053C12.8933 81.8471 11.9016 82.8362 11.1578 83.8253H10.166V96.9308C10.4139 98.4144 11.4057 99.898 13.1412 100.887L51.0752 122.647C55.538 125.12 63.4719 124.873 68.6785 121.905L103.885 101.629C106.365 100.145 107.852 98.4144 108.1 96.6835V83.8253Z" fill="url(#paint13_linear)"/>
<path d="M108.1 81.6002H107.108C106.612 80.8584 105.869 80.3638 105.125 79.8693L67.1909 58.1093C62.7281 55.6366 54.7942 55.8838 49.5876 58.8511L14.3809 78.8802C12.8933 79.622 11.9016 80.6111 11.1578 81.6002H10.166V94.7057C10.4139 96.4366 11.4057 97.6729 13.1412 98.9093L51.0752 120.669C55.538 123.142 63.4719 122.895 68.6785 119.927L103.885 99.6511C106.365 98.1675 107.852 96.4366 108.1 94.7057V81.6002Z" fill="url(#paint14_linear)"/>
<path d="M112.067 75.1703H111.075C110.58 74.4285 109.836 73.934 108.844 73.1922L67.6869 49.454C62.7282 46.734 54.2985 46.9813 48.8439 50.1958L10.91 72.4503C9.42236 73.1922 8.18269 74.1813 7.43889 75.1703H6.19922V89.5122C6.44715 91.2431 7.43889 92.7267 9.42236 93.9631L50.5795 117.701C55.5381 120.421 63.9679 120.174 69.4225 116.959L107.356 95.1994C110.084 93.7158 111.571 91.7376 111.819 89.7594V75.1703H112.067Z" fill="url(#paint15_linear)"/>
<path d="M50.5791 103.854L9.422 80.3631C4.46332 77.6431 5.20712 72.6977 10.6617 69.4831L48.5956 47.7231C54.2981 44.5086 62.7279 44.2613 67.4386 46.9813L108.596 70.7195C113.554 73.4395 112.811 78.385 107.356 81.5995L69.4221 103.112C63.9676 106.327 55.2899 106.821 50.5791 103.854Z" fill="url(#paint16_linear)"/>
<path d="M107.356 80.3631L69.4223 102.37C63.7198 105.585 55.2901 105.832 50.5793 103.112L9.4222 79.374C7.43873 78.1377 6.44699 76.9013 6.19906 75.1704C5.95112 77.1486 6.94286 79.1268 9.4222 80.6104L50.5793 104.349C55.538 107.069 63.9678 106.821 69.4223 103.607L107.356 81.8468C110.827 79.8686 112.315 77.3959 111.819 75.1704C111.819 76.9013 110.084 78.8795 107.356 80.3631Z" fill="url(#paint17_radial)"/>
<path d="M108.1 61.3233H107.108C106.612 60.5815 105.869 60.087 105.125 59.5924L67.1909 37.8324C62.7281 35.3597 54.7942 35.607 49.5876 38.5743L14.3809 58.6033C12.8933 59.3452 11.9016 60.3342 11.1578 61.3233H10.166V74.4288C10.4139 75.9124 11.4057 77.3961 13.1412 78.3852L51.0752 100.145C55.538 102.618 63.4719 102.371 68.6785 99.4033L103.885 79.127C106.365 77.6433 107.852 75.9124 108.1 74.1815V61.3233Z" fill="url(#paint18_linear)"/>
<path d="M108.1 58.8507H107.108C106.612 58.1089 105.869 57.6143 105.125 57.1198L67.1909 35.3598C62.7281 32.8871 54.7942 33.1343 49.5876 36.1016L14.3809 56.378C12.8933 57.1198 11.9016 58.1089 11.1578 59.098H10.166V72.2034C10.4139 73.687 11.4057 75.1707 13.1412 76.1598L51.0752 97.9198C55.538 100.392 63.4719 100.145 68.6785 97.1779L103.885 76.9016C106.365 75.4179 107.852 73.687 108.1 71.9561V58.8507Z" fill="url(#paint19_linear)"/>
<path d="M112.067 52.6697H111.075C110.58 51.9278 109.836 51.4333 108.844 50.6915L67.6869 27.2006C62.7282 24.4806 54.2985 24.7278 48.8439 27.9424L10.91 49.7024C9.42236 50.4442 8.18269 51.4333 7.43889 52.6697H6.19922V67.0115C6.44715 68.7424 7.43889 70.226 9.42236 71.2151L50.5795 94.9533C55.5381 97.6733 63.9679 97.426 69.4225 94.2115L107.356 72.4515C110.084 70.9678 111.571 68.9897 111.819 67.0115V52.6697H112.067Z" fill="url(#paint20_linear)"/>
<path d="M50.5791 81.3533L9.422 57.6151C4.46332 54.8951 5.20712 49.9496 10.6617 46.7351L48.5956 24.9751C54.2981 21.7606 62.7279 21.5133 67.4386 24.2333L108.596 47.9715C113.554 50.6915 112.811 55.6369 107.356 58.8515L69.4221 80.6115C63.9676 83.826 55.2899 84.0733 50.5791 81.3533Z" fill="url(#paint21_linear)"/>
<path d="M107.356 57.8622L69.4223 79.6222C63.7198 82.8367 55.2901 83.084 50.5793 80.364L9.4222 56.8731C7.43873 55.6367 6.44699 54.4003 6.19906 52.6694C5.95112 54.6476 6.94286 56.6258 9.4222 58.1094L50.5793 81.8476C55.538 84.5676 63.9678 84.3203 69.4223 81.1058L107.356 59.3458C110.827 57.3676 112.315 54.8949 111.819 52.6694C111.819 54.4003 110.084 56.3785 107.356 57.8622Z" fill="url(#paint22_radial)"/>
<path d="M108.1 38.5748H107.108C106.612 37.833 105.869 37.3384 105.125 36.8439L67.1909 15.0839C62.7281 12.6112 54.7942 12.8584 49.5876 15.8257L14.3809 35.8548C12.8933 36.5966 11.9016 37.5857 11.1578 38.5748H10.166V51.9275C10.4139 53.4112 11.4057 54.8948 13.1412 55.8839L51.0752 77.6439C55.538 80.1166 63.4719 79.8694 68.6785 76.9021L103.885 56.6257C106.365 55.1421 107.852 53.4112 108.1 51.6803V38.5748Z" fill="url(#paint23_linear)"/>
<path d="M108.1 36.3497H107.108C106.612 35.6079 105.869 35.1133 105.125 34.6188L67.1909 12.8588C62.7281 10.3861 54.7942 10.6333 49.5876 13.6006L14.3809 33.6297C12.8933 34.3715 11.9016 35.3606 11.1578 36.3497H10.166V49.4552C10.4139 50.9388 11.4057 52.4224 13.1412 53.4115L51.0752 75.1715C55.538 77.6443 63.4719 77.397 68.6785 74.4297L103.885 54.4006C106.365 52.917 107.852 51.1861 108.1 49.4552V36.3497Z" fill="url(#paint24_linear)"/>
<path d="M112.067 30.4153H111.075C110.58 29.6734 109.836 29.1789 108.844 28.4371L67.6869 4.94617C62.7282 2.22617 54.2985 2.47344 48.8439 5.68799L10.91 27.448C9.42236 28.1898 8.18269 29.1789 7.43889 30.4153H6.19922V44.7571C6.44715 46.488 7.43889 47.9716 9.42236 48.9607L50.5795 72.6989C55.5381 75.4189 63.9679 75.1716 69.4225 71.9571L107.356 50.1971C110.084 48.7134 111.571 46.7353 111.819 44.7571V30.4153H112.067Z" fill="url(#paint25_linear)"/>
<path d="M50.5791 59.0984L9.422 35.3602C4.46332 32.6402 5.20712 27.6948 10.6617 24.4802L48.5956 2.72022C54.2981 -0.494329 62.7279 -0.741602 67.4386 1.9784L108.596 25.7166C113.554 28.4366 112.811 33.382 107.356 36.5966L69.4221 58.3566C63.9676 61.5711 55.2899 61.8184 50.5791 59.0984Z" fill="url(#paint26_linear)"/>
<path d="M107.356 35.6078L69.4223 57.3678C63.7198 60.5823 55.2901 60.8296 50.5793 58.1096L9.4222 34.6187C7.43873 33.3823 6.44699 32.1459 6.19906 30.415C5.95112 32.3932 6.94286 34.3714 9.4222 35.855L50.5793 59.5932C55.538 62.3132 63.9678 62.0659 69.4223 58.8514L107.356 37.0914C110.827 35.1132 112.315 32.6405 111.819 30.415C111.819 32.1459 110.084 34.1241 107.356 35.6078Z" fill="url(#paint27_radial)"/>
<path d="M82.0656 22.2554H37.1895V30.9099C37.1895 30.9099 37.1895 30.9099 37.1895 31.1572C37.1895 38.3281 47.1068 44.2626 59.5035 44.2626C71.9003 44.2626 81.8176 38.3281 81.8176 31.1572C81.8176 31.1572 81.8176 31.1572 81.8176 30.9099V22.2554H82.0656Z" fill="url(#paint28_linear)"/>
<path d="M59.7516 35.6079C72.0753 35.6079 82.0657 29.7404 82.0657 22.5024C82.0657 15.2645 72.0753 9.39697 59.7516 9.39697C47.4279 9.39697 37.4375 15.2645 37.4375 22.5024C37.4375 29.7404 47.4279 35.6079 59.7516 35.6079Z" fill="url(#paint29_linear)"/>
<path d="M45.6191 22.5023C45.6191 26.9532 51.8175 30.6623 59.7514 30.6623C67.4374 30.6623 73.8837 26.9532 73.8837 22.5023C73.8837 18.0514 67.6853 14.3423 59.7514 14.3423C51.8175 14.3423 45.6191 17.8041 45.6191 22.5023Z" fill="#6B24D6"/>
<path d="M59.7514 22.0079C65.206 22.0079 69.6688 23.7389 72.1481 26.2116C73.1399 24.9752 73.8837 23.7389 73.8837 22.2552C73.8837 17.8043 67.6853 14.0952 59.7514 14.0952C52.0654 14.0952 45.6191 17.8043 45.6191 22.2552C45.6191 23.7389 46.115 24.9752 47.3547 26.2116C49.5861 23.7389 54.2968 22.0079 59.7514 22.0079Z" fill="url(#paint30_linear)"/>
<path d="M59.7516 35.3601C47.6028 35.3601 37.6854 29.6729 37.4375 22.502V22.7492C37.4375 29.9201 47.3549 35.8547 59.7516 35.8547C72.1483 35.8547 82.0657 29.9201 82.0657 22.7492V22.502C81.8177 29.6729 71.9004 35.3601 59.7516 35.3601Z" fill="url(#paint31_radial)"/>
<path d="M34.7109 175.812V196.83L43.8845 191.39V170.372L34.7109 175.812Z" fill="url(#paint32_linear)"/>
<path d="M34.7098 175.812V196.83L10.6602 183.477V162.212L34.7098 175.812Z" fill="url(#paint33_linear)"/>
<path d="M15.123 182.241V167.899L30.247 176.059V190.648L15.123 182.241Z" fill="#25054D"/>
<path d="M10.6602 162.211L34.7098 175.811L43.8834 170.371L19.8337 156.771L10.6602 162.211Z" fill="url(#paint34_linear)"/>
<path d="M26.2807 180.757C26.2807 181.993 25.7848 182.982 25.041 183.23L23.8014 183.971C23.0576 184.466 23.5534 183.477 22.3138 182.982C20.0824 181.746 18.3468 178.531 18.3468 176.059C18.3468 174.822 17.1071 174.822 17.8509 174.328L19.3386 173.586C20.0824 173.091 21.0741 173.339 22.0658 173.833C24.2972 175.07 26.2807 178.284 26.2807 180.757Z" fill="url(#paint35_linear)"/>
<path d="M24.7913 181.499C24.7913 183.972 23.0558 184.961 20.8244 183.724C18.593 182.488 16.8574 179.273 16.8574 176.801C16.8574 174.328 18.593 173.339 20.8244 174.575C23.0558 176.059 24.7913 179.026 24.7913 181.499Z" fill="url(#paint36_linear)"/>
<path d="M23.8011 181.499C23.8011 182.488 23.5532 183.229 22.8094 183.724L20.8259 184.96C20.0821 185.208 20.578 184.466 19.5863 183.971C17.6028 182.982 16.1152 180.262 16.1152 178.037C16.1152 177.048 15.1234 177.048 15.6193 176.553L17.6028 175.317C18.3466 175.069 19.0904 175.069 20.0821 175.564C22.3135 176.553 23.8011 179.273 23.8011 181.499Z" fill="url(#paint37_linear)"/>
<path d="M21.8172 182.488C21.8172 184.713 20.3296 185.455 18.3461 184.466C16.3626 183.477 14.875 180.757 14.875 178.532C14.875 176.306 16.3626 175.564 18.3461 176.553C20.0816 177.79 21.8172 180.51 21.8172 182.488Z" fill="url(#paint38_linear)"/>
<path d="M20.8249 174.575C19.8332 174.08 18.8415 173.833 18.0977 174.328C18.8415 174.08 19.5853 174.328 20.577 174.822C22.8084 176.059 24.5439 179.273 24.5439 181.746C24.5439 182.982 24.0481 183.971 23.3043 184.466C24.296 184.219 25.0398 183.23 25.0398 181.746C25.0398 179.026 23.0563 175.811 20.8249 174.575Z" fill="#E6E7E8"/>
<path d="M18.3465 176.554C17.3548 176.059 16.611 176.059 15.8672 176.306C16.3631 176.059 17.1069 176.306 17.8507 176.801C19.8341 177.79 21.3217 180.51 21.3217 182.736C21.3217 183.972 20.8259 184.714 20.33 184.961C21.0738 184.714 21.8176 183.972 21.8176 182.488C21.8176 180.263 20.33 177.543 18.3465 176.554Z" fill="url(#paint39_radial)"/>
<path d="M20.0822 181.993C20.0822 183.229 19.0904 183.724 18.0987 183.229C17.107 182.488 16.1152 181.004 16.1152 179.768C16.1152 178.531 17.107 178.037 18.0987 178.531C19.3384 179.273 20.0822 180.757 20.0822 181.993Z" fill="#2AF6FF"/>
<defs>
<linearGradient id="paint0_linear" x1="6.17219" y1="156.883" x2="112.082" y2="156.883" gradientUnits="userSpaceOnUse">
<stop offset="0.040404" stop-color="#B086CC"/>
<stop offset="0.1761" stop-color="#B289CD"/>
<stop offset="0.2653" stop-color="#B791D0"/>
<stop offset="0.3411" stop-color="#C1A0D5"/>
<stop offset="0.3434" stop-color="#C1A1D5"/>
<stop offset="0.3788" stop-color="#C8ABDA"/>
<stop offset="0.439" stop-color="#DAC6E6"/>
<stop offset="0.4949" stop-color="#EFE5F5"/>
<stop offset="0.536" stop-color="#E3D1EE"/>
<stop offset="0.5859" stop-color="#D1B4E3"/>
<stop offset="0.697" stop-color="#B395D6"/>
<stop offset="0.8094" stop-color="#9C7DCB"/>
<stop offset="0.9133" stop-color="#8E6EC5"/>
<stop offset="1" stop-color="#8969C3"/>
</linearGradient>
<linearGradient id="paint1_linear" x1="82.9147" y1="82.0112" x2="46.6507" y2="175.874" gradientUnits="userSpaceOnUse">
<stop stop-color="#9F79C8"/>
<stop offset="0.1367" stop-color="#A580CB"/>
<stop offset="0.3288" stop-color="#B492D3"/>
<stop offset="0.5529" stop-color="#CDB0E1"/>
<stop offset="0.5808" stop-color="#D1B4E3"/>
<stop offset="0.7644" stop-color="#DBC4E9"/>
<stop offset="1" stop-color="#EBDEF3"/>
</linearGradient>
<radialGradient id="paint2_radial" cx="0" cy="0" r="1" gradientUnits="userSpaceOnUse" gradientTransform="translate(59.1234 158.51) scale(39.0484 38.9442)">
<stop stop-color="white"/>
<stop offset="1"/>
</radialGradient>
<linearGradient id="paint3_linear" x1="10.133" y1="136.843" x2="108.121" y2="136.843" gradientUnits="userSpaceOnUse">
<stop stop-color="#25054D"/>
<stop offset="0.5" stop-color="#45108A"/>
<stop offset="1" stop-color="#25054D"/>
</linearGradient>
<linearGradient id="paint4_linear" x1="10.133" y1="134.59" x2="108.121" y2="134.59" gradientUnits="userSpaceOnUse">
<stop stop-color="#7C1DC9"/>
<stop offset="0.0487481" stop-color="#6E41D2"/>
<stop offset="0.1562" stop-color="#4C9BE8"/>
<stop offset="0.2576" stop-color="#2AF6FF"/>
<stop offset="0.3345" stop-color="#37D3F6"/>
<stop offset="0.4865" stop-color="#5093E6"/>
<stop offset="0.6249" stop-color="#6360DA"/>
<stop offset="0.745" stop-color="#703BD1"/>
<stop offset="0.8421" stop-color="#7925CB"/>
<stop offset="0.904" stop-color="#7C1DC9"/>
</linearGradient>
<linearGradient id="paint5_linear" x1="6.17219" y1="128.864" x2="112.082" y2="128.864" gradientUnits="userSpaceOnUse">
<stop offset="0.040404" stop-color="#B086CC"/>
<stop offset="0.1761" stop-color="#B289CD"/>
<stop offset="0.2653" stop-color="#B791D0"/>
<stop offset="0.3411" stop-color="#C1A0D5"/>
<stop offset="0.3434" stop-color="#C1A1D5"/>
<stop offset="0.3788" stop-color="#C8ABDA"/>
<stop offset="0.439" stop-color="#DAC6E6"/>
<stop offset="0.4949" stop-color="#EFE5F5"/>
<stop offset="0.536" stop-color="#E3D1EE"/>
<stop offset="0.5859" stop-color="#D1B4E3"/>
<stop offset="0.697" stop-color="#B395D6"/>
<stop offset="0.8094" stop-color="#9C7DCB"/>
<stop offset="0.9133" stop-color="#8E6EC5"/>
<stop offset="1" stop-color="#8969C3"/>
</linearGradient>
<linearGradient id="paint6_linear" x1="82.9147" y1="59.3853" x2="46.6507" y2="153.248" gradientUnits="userSpaceOnUse">
<stop stop-color="#9F79C8"/>
<stop offset="0.1367" stop-color="#A580CB"/>
<stop offset="0.3288" stop-color="#B492D3"/>
<stop offset="0.5529" stop-color="#CDB0E1"/>
<stop offset="0.5808" stop-color="#D1B4E3"/>
<stop offset="0.7644" stop-color="#DBC4E9"/>
<stop offset="1" stop-color="#EBDEF3"/>
</linearGradient>
<radialGradient id="paint7_radial" cx="0" cy="0" r="1" gradientUnits="userSpaceOnUse" gradientTransform="translate(59.1234 135.884) scale(39.0484 38.9442)">
<stop stop-color="white"/>
<stop offset="1"/>
</radialGradient>
<linearGradient id="paint8_linear" x1="10.133" y1="114.217" x2="108.121" y2="114.217" gradientUnits="userSpaceOnUse">
<stop stop-color="#25054D"/>
<stop offset="0.5" stop-color="#45108A"/>
<stop offset="1" stop-color="#25054D"/>
</linearGradient>
<linearGradient id="paint9_linear" x1="10.133" y1="111.964" x2="108.121" y2="111.964" gradientUnits="userSpaceOnUse">
<stop stop-color="#7C1DC9"/>
<stop offset="0.0487481" stop-color="#6E41D2"/>
<stop offset="0.1562" stop-color="#4C9BE8"/>
<stop offset="0.2576" stop-color="#2AF6FF"/>
<stop offset="0.3345" stop-color="#37D3F6"/>
<stop offset="0.4865" stop-color="#5093E6"/>
<stop offset="0.6249" stop-color="#6360DA"/>
<stop offset="0.745" stop-color="#703BD1"/>
<stop offset="0.8421" stop-color="#7925CB"/>
<stop offset="0.904" stop-color="#7C1DC9"/>
</linearGradient>
<linearGradient id="paint10_linear" x1="6.17219" y1="106.238" x2="112.082" y2="106.238" gradientUnits="userSpaceOnUse">
<stop offset="0.040404" stop-color="#B086CC"/>
<stop offset="0.1761" stop-color="#B289CD"/>
<stop offset="0.2653" stop-color="#B791D0"/>
<stop offset="0.3411" stop-color="#C1A0D5"/>
<stop offset="0.3434" stop-color="#C1A1D5"/>
<stop offset="0.3788" stop-color="#C8ABDA"/>
<stop offset="0.439" stop-color="#DAC6E6"/>
<stop offset="0.4949" stop-color="#EFE5F5"/>
<stop offset="0.536" stop-color="#E3D1EE"/>
<stop offset="0.5859" stop-color="#D1B4E3"/>
<stop offset="0.697" stop-color="#B395D6"/>
<stop offset="0.8094" stop-color="#9C7DCB"/>
<stop offset="0.9133" stop-color="#8E6EC5"/>
<stop offset="1" stop-color="#8969C3"/>
</linearGradient>
<linearGradient id="paint11_linear" x1="82.9147" y1="36.7592" x2="46.6507" y2="130.622" gradientUnits="userSpaceOnUse">
<stop stop-color="#9F79C8"/>
<stop offset="0.1367" stop-color="#A580CB"/>
<stop offset="0.3288" stop-color="#B492D3"/>
<stop offset="0.5529" stop-color="#CDB0E1"/>
<stop offset="0.5808" stop-color="#D1B4E3"/>
<stop offset="0.7644" stop-color="#DBC4E9"/>
<stop offset="1" stop-color="#EBDEF3"/>
</linearGradient>
<radialGradient id="paint12_radial" cx="0" cy="0" r="1" gradientUnits="userSpaceOnUse" gradientTransform="translate(59.1234 113.258) scale(39.0484 38.9442)">
<stop stop-color="white"/>
<stop offset="1"/>
</radialGradient>
<linearGradient id="paint13_linear" x1="10.133" y1="91.5906" x2="108.121" y2="91.5906" gradientUnits="userSpaceOnUse">
<stop stop-color="#25054D"/>
<stop offset="0.5" stop-color="#45108A"/>
<stop offset="1" stop-color="#25054D"/>
</linearGradient>
<linearGradient id="paint14_linear" x1="10.133" y1="89.3376" x2="108.121" y2="89.3376" gradientUnits="userSpaceOnUse">
<stop stop-color="#7C1DC9"/>
<stop offset="0.0487481" stop-color="#6E41D2"/>
<stop offset="0.1562" stop-color="#4C9BE8"/>
<stop offset="0.2576" stop-color="#2AF6FF"/>
<stop offset="0.3345" stop-color="#37D3F6"/>
<stop offset="0.4865" stop-color="#5093E6"/>
<stop offset="0.6249" stop-color="#6360DA"/>
<stop offset="0.745" stop-color="#703BD1"/>
<stop offset="0.8421" stop-color="#7925CB"/>
<stop offset="0.904" stop-color="#7C1DC9"/>
</linearGradient>
<linearGradient id="paint15_linear" x1="6.17219" y1="83.611" x2="112.082" y2="83.611" gradientUnits="userSpaceOnUse">
<stop offset="0.040404" stop-color="#B086CC"/>
<stop offset="0.1761" stop-color="#B289CD"/>
<stop offset="0.2653" stop-color="#B791D0"/>
<stop offset="0.3411" stop-color="#C1A0D5"/>
<stop offset="0.3434" stop-color="#C1A1D5"/>
<stop offset="0.3788" stop-color="#C8ABDA"/>
<stop offset="0.439" stop-color="#DAC6E6"/>
<stop offset="0.4949" stop-color="#EFE5F5"/>
<stop offset="0.536" stop-color="#E3D1EE"/>
<stop offset="0.5859" stop-color="#D1B4E3"/>
<stop offset="0.697" stop-color="#B395D6"/>
<stop offset="0.8094" stop-color="#9C7DCB"/>
<stop offset="0.9133" stop-color="#8E6EC5"/>
<stop offset="1" stop-color="#8969C3"/>
</linearGradient>
<linearGradient id="paint16_linear" x1="82.9147" y1="14.1324" x2="46.6507" y2="107.995" gradientUnits="userSpaceOnUse">
<stop stop-color="#9F79C8"/>
<stop offset="0.1367" stop-color="#A580CB"/>
<stop offset="0.3288" stop-color="#B492D3"/>
<stop offset="0.5529" stop-color="#CDB0E1"/>
<stop offset="0.5808" stop-color="#D1B4E3"/>
<stop offset="0.7644" stop-color="#DBC4E9"/>
<stop offset="1" stop-color="#EBDEF3"/>
</linearGradient>
<radialGradient id="paint17_radial" cx="0" cy="0" r="1" gradientUnits="userSpaceOnUse" gradientTransform="translate(59.1234 90.6314) scale(39.0484 38.9442)">
<stop stop-color="white"/>
<stop offset="1"/>
</radialGradient>
<linearGradient id="paint18_linear" x1="10.133" y1="68.9643" x2="108.121" y2="68.9643" gradientUnits="userSpaceOnUse">
<stop stop-color="#25054D"/>
<stop offset="0.5" stop-color="#45108A"/>
<stop offset="1" stop-color="#25054D"/>
</linearGradient>
<linearGradient id="paint19_linear" x1="10.133" y1="66.711" x2="108.121" y2="66.711" gradientUnits="userSpaceOnUse">
<stop stop-color="#7C1DC9"/>
<stop offset="0.0487481" stop-color="#6E41D2"/>
<stop offset="0.1562" stop-color="#4C9BE8"/>
<stop offset="0.2576" stop-color="#2AF6FF"/>
<stop offset="0.3345" stop-color="#37D3F6"/>
<stop offset="0.4865" stop-color="#5093E6"/>
<stop offset="0.6249" stop-color="#6360DA"/>
<stop offset="0.745" stop-color="#703BD1"/>
<stop offset="0.8421" stop-color="#7925CB"/>
<stop offset="0.904" stop-color="#7C1DC9"/>
</linearGradient>
<linearGradient id="paint20_linear" x1="6.17219" y1="60.9859" x2="112.082" y2="60.9859" gradientUnits="userSpaceOnUse">
<stop offset="0.040404" stop-color="#B086CC"/>
<stop offset="0.1761" stop-color="#B289CD"/>
<stop offset="0.2653" stop-color="#B791D0"/>
<stop offset="0.3411" stop-color="#C1A0D5"/>
<stop offset="0.3434" stop-color="#C1A1D5"/>
<stop offset="0.3788" stop-color="#C8ABDA"/>
<stop offset="0.439" stop-color="#DAC6E6"/>
<stop offset="0.4949" stop-color="#EFE5F5"/>
<stop offset="0.536" stop-color="#E3D1EE"/>
<stop offset="0.5859" stop-color="#D1B4E3"/>
<stop offset="0.697" stop-color="#B395D6"/>
<stop offset="0.8094" stop-color="#9C7DCB"/>
<stop offset="0.9133" stop-color="#8E6EC5"/>
<stop offset="1" stop-color="#8969C3"/>
</linearGradient>
<linearGradient id="paint21_linear" x1="82.9147" y1="-8.49276" x2="46.6507" y2="85.3697" gradientUnits="userSpaceOnUse">
<stop stop-color="#9F79C8"/>
<stop offset="0.1367" stop-color="#A580CB"/>
<stop offset="0.3288" stop-color="#B492D3"/>
<stop offset="0.5529" stop-color="#CDB0E1"/>
<stop offset="0.5808" stop-color="#D1B4E3"/>
<stop offset="0.7644" stop-color="#DBC4E9"/>
<stop offset="1" stop-color="#EBDEF3"/>
</linearGradient>
<radialGradient id="paint22_radial" cx="0" cy="0" r="1" gradientUnits="userSpaceOnUse" gradientTransform="translate(59.1234 68.006) scale(39.0484 38.9442)">
<stop stop-color="white"/>
<stop offset="1"/>
</radialGradient>
<linearGradient id="paint23_linear" x1="10.133" y1="46.3387" x2="108.121" y2="46.3387" gradientUnits="userSpaceOnUse">
<stop stop-color="#25054D"/>
<stop offset="0.5" stop-color="#45108A"/>
<stop offset="1" stop-color="#25054D"/>
</linearGradient>
<linearGradient id="paint24_linear" x1="10.133" y1="44.0856" x2="108.121" y2="44.0856" gradientUnits="userSpaceOnUse">
<stop stop-color="#7C1DC9"/>
<stop offset="0.0487481" stop-color="#6E41D2"/>
<stop offset="0.1562" stop-color="#4C9BE8"/>
<stop offset="0.2576" stop-color="#2AF6FF"/>
<stop offset="0.3345" stop-color="#37D3F6"/>
<stop offset="0.4865" stop-color="#5093E6"/>
<stop offset="0.6249" stop-color="#6360DA"/>
<stop offset="0.745" stop-color="#703BD1"/>
<stop offset="0.8421" stop-color="#7925CB"/>
<stop offset="0.904" stop-color="#7C1DC9"/>
</linearGradient>
<linearGradient id="paint25_linear" x1="6.17219" y1="38.7296" x2="112.082" y2="38.7296" gradientUnits="userSpaceOnUse">
<stop offset="0.040404" stop-color="#B086CC"/>
<stop offset="0.1761" stop-color="#B289CD"/>
<stop offset="0.2653" stop-color="#B791D0"/>
<stop offset="0.3411" stop-color="#C1A0D5"/>
<stop offset="0.3434" stop-color="#C1A1D5"/>
<stop offset="0.3788" stop-color="#C8ABDA"/>
<stop offset="0.439" stop-color="#DAC6E6"/>
<stop offset="0.4949" stop-color="#EFE5F5"/>
<stop offset="0.536" stop-color="#E3D1EE"/>
<stop offset="0.5859" stop-color="#D1B4E3"/>
<stop offset="0.697" stop-color="#B395D6"/>
<stop offset="0.8094" stop-color="#9C7DCB"/>
<stop offset="0.9133" stop-color="#8E6EC5"/>
<stop offset="1" stop-color="#8969C3"/>
</linearGradient>
<linearGradient id="paint26_linear" x1="82.9147" y1="-30.7496" x2="46.6507" y2="63.1126" gradientUnits="userSpaceOnUse">
<stop stop-color="#9F79C8"/>
<stop offset="0.1367" stop-color="#A580CB"/>
<stop offset="0.3288" stop-color="#B492D3"/>
<stop offset="0.5529" stop-color="#CDB0E1"/>
<stop offset="0.5808" stop-color="#D1B4E3"/>
<stop offset="0.7644" stop-color="#DBC4E9"/>
<stop offset="1" stop-color="#EBDEF3"/>
</linearGradient>
<radialGradient id="paint27_radial" cx="0" cy="0" r="1" gradientUnits="userSpaceOnUse" gradientTransform="translate(59.1234 45.7497) scale(39.0484 38.9442)">
<stop stop-color="white"/>
<stop offset="1"/>
</radialGradient>
<linearGradient id="paint28_linear" x1="37.459" y1="33.2279" x2="81.5357" y2="33.2279" gradientUnits="userSpaceOnUse">
<stop offset="0.010101" stop-color="#C1A1D5"/>
<stop offset="0.0487861" stop-color="#C8ABDA"/>
<stop offset="0.1149" stop-color="#DAC6E6"/>
<stop offset="0.1998" stop-color="#F7F2F9"/>
<stop offset="0.2222" stop-color="white"/>
<stop offset="0.2513" stop-color="#F9F5FB"/>
<stop offset="0.3001" stop-color="#E9DBF2"/>
<stop offset="0.3586" stop-color="#D1B4E3"/>
<stop offset="0.4264" stop-color="#B395D6"/>
<stop offset="0.4949" stop-color="#9C7DCB"/>
<stop offset="0.5583" stop-color="#8E6EC5"/>
<stop offset="0.6111" stop-color="#8969C3"/>
<stop offset="0.755" stop-color="#9471C6"/>
<stop offset="1" stop-color="#B086CC"/>
</linearGradient>
<linearGradient id="paint29_linear" x1="85.934" y1="-5.73562" x2="50.5582" y2="32.2982" gradientUnits="userSpaceOnUse">
<stop stop-color="#9F79C8"/>
<stop offset="0.1367" stop-color="#A580CB"/>
<stop offset="0.3288" stop-color="#B492D3"/>
<stop offset="0.5529" stop-color="#CDB0E1"/>
<stop offset="0.5808" stop-color="#D1B4E3"/>
<stop offset="0.7644" stop-color="#DBC4E9"/>
<stop offset="1" stop-color="#EBDEF3"/>
</linearGradient>
<linearGradient id="paint30_linear" x1="76.0047" y1="20.2899" x2="41.4045" y2="20.2899" gradientUnits="userSpaceOnUse">
<stop offset="0.010101" stop-color="#C1A1D5"/>
<stop offset="0.0487861" stop-color="#C8ABDA"/>
<stop offset="0.1149" stop-color="#DAC6E6"/>
<stop offset="0.1998" stop-color="#F7F2F9"/>
<stop offset="0.2222" stop-color="white"/>
<stop offset="0.2513" stop-color="#F9F5FB"/>
<stop offset="0.3001" stop-color="#E9DBF2"/>
<stop offset="0.3586" stop-color="#D1B4E3"/>
<stop offset="0.4264" stop-color="#B395D6"/>
<stop offset="0.4949" stop-color="#9C7DCB"/>
<stop offset="0.5583" stop-color="#8E6EC5"/>
<stop offset="0.6111" stop-color="#8969C3"/>
<stop offset="0.755" stop-color="#9471C6"/>
<stop offset="1" stop-color="#B086CC"/>
</linearGradient>
<radialGradient id="paint31_radial" cx="0" cy="0" r="1" gradientUnits="userSpaceOnUse" gradientTransform="translate(52.4517 33.5956) scale(16.5152 16.4711)">
<stop stop-color="white"/>
<stop offset="1"/>
</radialGradient>
<linearGradient id="paint32_linear" x1="36.8913" y1="184.298" x2="67.0989" y2="175.228" gradientUnits="userSpaceOnUse">
<stop stop-color="#9F79C8"/>
<stop offset="0.1367" stop-color="#A580CB"/>
<stop offset="0.3288" stop-color="#B492D3"/>
<stop offset="0.5529" stop-color="#CDB0E1"/>
<stop offset="0.5808" stop-color="#D1B4E3"/>
<stop offset="0.7644" stop-color="#DBC4E9"/>
<stop offset="1" stop-color="#EBDEF3"/>
</linearGradient>
<linearGradient id="paint33_linear" x1="-16.5972" y1="188.36" x2="63.554" y2="170.345" gradientUnits="userSpaceOnUse">
<stop stop-color="#9F79C8"/>
<stop offset="0.1367" stop-color="#A580CB"/>
<stop offset="0.3288" stop-color="#B492D3"/>
<stop offset="0.5529" stop-color="#CDB0E1"/>
<stop offset="0.5808" stop-color="#D1B4E3"/>
<stop offset="0.7644" stop-color="#DBC4E9"/>
<stop offset="1" stop-color="#EBDEF3"/>
</linearGradient>
<linearGradient id="paint34_linear" x1="37.954" y1="145.835" x2="24.9188" y2="170.744" gradientUnits="userSpaceOnUse">
<stop stop-color="#9F79C8"/>
<stop offset="0.1367" stop-color="#A580CB"/>
<stop offset="0.3288" stop-color="#B492D3"/>
<stop offset="0.5529" stop-color="#CDB0E1"/>
<stop offset="0.5808" stop-color="#D1B4E3"/>
<stop offset="0.7644" stop-color="#DBC4E9"/>
<stop offset="1" stop-color="#EBDEF3"/>
</linearGradient>
<linearGradient id="paint35_linear" x1="25.0611" y1="183.267" x2="19.0239" y2="172.779" gradientUnits="userSpaceOnUse">
<stop offset="0.2879" stop-color="#838091"/>
<stop offset="0.4656" stop-color="#A5A2B1"/>
<stop offset="0.5859" stop-color="#B7B4C2"/>
<stop offset="0.8081" stop-color="#9B98A7"/>
</linearGradient>
<linearGradient id="paint36_linear" x1="18.8947" y1="182.435" x2="24.2302" y2="173.214" gradientUnits="userSpaceOnUse">
<stop offset="0.0353535" stop-color="#9D9EB3"/>
<stop offset="0.5808" stop-color="#D4D1D8"/>
<stop offset="1" stop-color="#EEEBF2"/>
</linearGradient>
<linearGradient id="paint37_linear" x1="22.4306" y1="183.791" x2="17.2487" y2="174.789" gradientUnits="userSpaceOnUse">
<stop offset="0.1667" stop-color="#838091"/>
<stop offset="0.4167" stop-color="#A5A2B1"/>
<stop offset="0.5859" stop-color="#B7B4C2"/>
<stop offset="0.9091" stop-color="#9B98A7"/>
</linearGradient>
<linearGradient id="paint38_linear" x1="16.7174" y1="183.32" x2="21.2967" y2="175.405" gradientUnits="userSpaceOnUse">
<stop offset="0.0353535" stop-color="#9D9EB3"/>
<stop offset="0.5808" stop-color="#D4D1D8"/>
<stop offset="1" stop-color="#EEEBF2"/>
</linearGradient>
<radialGradient id="paint39_radial" cx="0" cy="0" r="1" gradientUnits="userSpaceOnUse" gradientTransform="translate(20.0201 179.274) scale(3.74455 3.73456)">
<stop stop-color="white"/>
<stop offset="1"/>
</radialGradient>
</defs>
</svg>
