<svg width="386" height="407" viewBox="0 0 386 407" fill="none" xmlns="http://www.w3.org/2000/svg">
<g opacity="0.2">
<path opacity="0.090909" d="M91.5868 227.516C91.5868 227.516 101.488 223.633 101.842 223.28C108.207 219.749 113.157 213.395 118.462 216.219L243.995 284.356L254.25 290.005L369.882 352.494C376.247 356.024 381.198 362.732 381.198 369.087C381.198 369.793 381.198 370.499 381.198 371.205C380.844 377.913 376.601 383.915 369.175 388.151C369.175 388.151 365.992 389.916 361.749 392.035C351.848 396.977 334.521 404.391 328.863 404.038C322.144 404.038 315.072 401.92 310.475 399.095L195.196 331.664L79.9175 264.233C73.5524 260.702 68.9554 254.348 68.9554 247.64C68.6018 240.579 83.4537 232.106 91.5868 227.516Z" fill="black"/>
<path opacity="0.1818" d="M93.7087 230.695C93.7087 230.695 102.903 226.811 103.61 226.811C109.975 223.634 114.926 217.632 119.876 220.456L242.227 286.829L252.128 292.124L364.578 353.201C370.236 356.378 375.894 363.086 375.894 368.735C375.894 369.441 376.247 370.147 375.894 370.5C375.54 376.855 372.358 382.856 364.932 387.093C364.932 387.093 361.396 388.858 357.859 390.976C348.312 395.566 331.692 402.627 326.034 401.921C320.023 401.921 312.597 399.449 308.353 396.978L196.964 331.312L85.5755 265.999C79.9177 262.822 74.967 256.114 74.2598 250.465C73.9062 243.404 85.5755 235.284 93.7087 230.695Z" fill="black"/>
<path opacity="0.2727" d="M95.4755 233.518C95.4755 233.518 103.962 229.988 105.377 229.635C111.388 226.458 116.692 221.162 121.289 223.986L240.458 288.593L250.005 293.889L359.626 353.2C364.577 356.025 371.296 362.732 371.296 367.675C371.296 368.028 371.649 369.087 371.649 369.44C371.649 375.442 369.174 381.444 361.748 385.68C361.748 385.68 358.212 387.798 354.676 389.564C345.482 394.153 329.569 400.155 323.911 399.449C318.607 399.449 310.827 396.624 306.938 394.153L199.085 330.958L91.2321 267.764C86.2815 264.939 80.6236 258.231 79.9164 253.289C79.2092 246.581 87.6959 238.108 95.4755 233.518Z" fill="black"/>
<path opacity="0.3636" d="M97.2429 236.696C97.2429 236.696 105.376 233.518 106.791 233.165C112.802 230.341 117.753 225.751 122.35 228.223L238.336 291.064L247.883 296.007L354.675 353.553C358.918 356.024 366.698 362.732 366.698 367.322C366.698 367.675 367.052 368.381 367.052 369.087C368.466 374.736 365.284 380.737 358.211 384.974C358.211 384.974 354.321 387.092 351.492 388.504C342.652 393.094 327.8 398.39 321.789 397.331C317.192 397.331 308.705 393.8 305.522 392.035L201.206 330.605L96.5357 269.176C92.2923 266.704 85.9272 259.997 85.22 255.407C84.1591 249.405 89.817 241.285 97.2429 236.696Z" fill="black"/>
<path opacity="0.4545" d="M99.0116 239.874C99.0116 239.874 106.438 237.05 108.559 236.343C114.217 233.872 119.521 229.636 123.765 232.107L236.568 293.183L245.762 298.126L349.371 353.907C353.261 356.025 361.748 362.733 361.748 366.617C361.748 366.97 362.455 367.676 362.455 368.029C364.577 373.324 361.748 379.326 354.676 383.21C354.676 383.21 350.786 385.681 348.311 386.74C339.824 390.976 325.679 395.919 320.021 394.507C316.132 394.507 307.291 390.623 304.462 388.858L202.975 329.9L102.194 270.942C98.3044 268.823 90.8784 262.116 90.8784 258.232C88.4031 252.583 91.5857 244.11 99.0116 239.874Z" fill="black"/>
<path opacity="0.5455" d="M101.134 243.051C101.134 243.051 107.853 240.227 110.328 239.874C115.986 237.756 121.29 233.872 125.18 236.343L234.801 295.302L243.641 300.244L344.422 354.613C347.604 356.378 356.798 363.439 356.798 366.616C356.798 366.969 357.505 367.676 357.505 368.029C360.334 372.971 357.859 378.973 350.787 382.856C350.787 382.856 346.897 385.328 344.775 386.387C336.642 390.623 323.205 394.507 317.547 392.742C314.364 392.742 305.17 388.505 302.695 387.093L205.097 329.547L107.853 272.707C104.67 270.942 96.1834 264.234 96.1834 261.056C93.3545 255.761 93.7081 247.288 101.134 243.051Z" fill="black"/>
<path opacity="0.6364" d="M102.901 246.228C102.901 246.228 108.912 243.757 111.741 243.404C117.046 241.286 122.703 238.462 126.24 240.58L232.678 297.773L241.165 302.362L339.116 354.966C341.591 356.378 351.846 363.439 351.846 365.91C351.846 366.263 352.907 366.969 352.907 367.322C356.09 371.912 353.968 377.914 347.249 381.797C347.249 381.797 343.006 384.622 341.238 385.328C333.105 389.211 320.728 392.742 315.07 390.623C312.595 390.623 302.694 385.681 300.926 384.622L207.218 329.194L113.509 274.119C111.034 272.707 101.84 265.999 101.84 263.175C98.304 258.585 95.8287 250.112 102.901 246.228Z" fill="black"/>
<path opacity="0.7273" d="M104.67 249.052C104.67 249.052 110.327 246.934 113.51 246.228C118.814 244.462 124.118 241.991 127.655 244.109L230.91 299.537L239.397 304.127L334.52 354.965C336.288 356.024 347.603 363.085 347.603 365.203C347.603 365.556 348.664 366.262 348.664 366.262C352.554 370.499 350.786 376.148 344.067 380.031C344.067 380.031 339.824 382.856 338.409 383.562C330.63 387.445 318.961 390.269 313.303 387.798C311.181 387.798 301.28 382.502 299.865 381.796L209.34 328.84L119.168 275.883C117.4 274.824 107.498 267.763 107.498 265.998C103.255 261.762 97.5973 253.289 104.67 249.052Z" fill="black"/>
<path opacity="0.8182" d="M106.437 252.23C106.437 252.23 111.388 250.465 114.924 249.759C119.875 248.347 125.533 246.229 128.715 248.347L228.788 302.009L236.922 306.246L328.862 355.672C330.276 356.378 342.299 363.439 342.299 364.851L343.36 365.91C347.603 369.794 346.189 375.442 339.824 379.326C339.824 379.326 335.227 382.15 334.519 382.856C327.093 386.74 316.131 388.505 310.474 386.034C309.059 386.034 298.451 380.385 297.743 379.679L211.108 328.488L124.472 277.649C123.057 276.943 112.449 269.882 112.449 268.823C108.206 264.587 99.7187 256.114 106.437 252.23Z" fill="black"/>
<path opacity="0.9091" d="M108.56 255.407C108.56 255.407 112.803 253.995 116.693 252.936C121.644 251.524 127.302 250.465 130.131 252.23L227.375 304.127L235.154 308.364L324.265 356.025C324.973 356.378 337.703 363.792 337.703 364.145C337.703 364.145 339.117 364.851 339.117 365.204C344.068 368.734 343.007 374.383 336.642 378.266C336.642 378.266 332.045 381.444 331.691 381.797C324.619 385.327 314.364 386.739 308.706 383.915C307.999 383.915 297.037 377.56 296.683 377.56L213.23 327.781L130.131 279.414C129.423 279.061 118.108 272 118.108 271.294C113.157 267.764 101.841 259.291 108.56 255.407Z" fill="black"/>
<path opacity="0.2" d="M306.585 381.091L214.998 327.428L123.765 273.766C118.107 270.588 103.963 262.115 110.328 258.585C110.328 258.585 125.887 252.936 131.545 256.114L233.032 310.129L334.52 364.145C340.178 367.322 339.471 372.971 333.106 376.855L328.155 380.032C321.79 383.915 312.242 384.268 306.585 381.091Z" fill="black"/>
</g>
<path d="M207.218 57.3503V76.7677L76.0264 1.21637C71.4294 -1.60798 65.418 1.92245 65.418 7.21811V248.347L315.778 393.801C321.789 397.331 328.862 396.978 334.873 393.448L340.177 390.27C345.128 387.093 347.957 381.797 347.957 376.149V137.491C347.957 130.783 344.421 124.429 338.409 121.251L217.826 51.3485C213.229 48.5242 207.218 52.0546 207.218 57.3503Z" fill="url(#paint0_linear)"/>
<path d="M73.1991 3.3343L204.39 78.8856V75.0021L76.028 0.862995C72.8454 -0.902222 68.6021 0.156908 66.834 2.98126C68.6021 2.27517 71.0774 2.27517 73.1991 3.3343Z" fill="url(#paint1_radial)"/>
<path d="M338.763 120.897L217.827 51.3479C214.644 49.5826 210.401 50.6418 208.633 53.4661C210.401 52.76 212.876 52.407 214.998 53.8192L335.934 123.722C341.946 127.252 345.482 133.254 345.482 139.962V378.266C345.482 382.503 343.714 386.739 340.885 389.917C345.482 386.739 348.311 381.797 348.311 376.148V137.49C348.311 130.783 344.775 124.428 338.763 120.897Z" fill="url(#paint2_radial)"/>
<path d="M52.6895 226.811L335.582 389.917V175.619L52.6895 12.5132V226.811Z" fill="white"/>
<path opacity="0.7" d="M52.6895 233.871L330.278 394.153V193.624L52.6895 33.6958V233.871Z" fill="#C7BCD6"/>
<path d="M54.8101 242.698L316.486 393.447C321.79 396.625 328.509 396.625 334.166 393.8L335.934 392.741L334.166 393.447C329.923 395.213 325.326 392.035 325.326 387.446V208.1C325.326 201.392 321.79 195.037 315.778 191.86L53.0421 40.0508C48.4451 37.2265 42.4336 40.7569 42.4336 46.0526V221.162C42.7872 230.341 47.3842 238.108 54.8101 242.698Z" fill="url(#paint3_linear)"/>
<path d="M334.166 393.447C329.922 395.212 325.326 392.035 325.326 387.445V208.099C325.326 201.391 321.789 195.036 315.778 191.859L53.0416 40.0504C49.859 38.2852 46.3229 39.3443 44.2012 41.4626C45.9692 40.7565 48.4446 40.7565 50.2126 41.8156L312.949 193.271C318.96 196.802 322.497 202.803 322.497 209.511V388.857C322.497 392.388 324.972 394.859 328.154 395.212C330.63 395.212 332.398 394.859 334.166 393.447L335.934 392.741L334.166 393.447Z" fill="url(#paint4_radial)"/>
<path d="M258.139 196.097C235.508 183.387 213.23 162.557 194.842 137.138H194.488C176.1 141.375 153.822 136.432 131.191 123.017L130.484 122.664L118.461 129.371L132.252 138.551C136.495 195.744 158.773 242.698 194.842 298.479L195.549 298.832C201.914 296.361 192.367 302.01 197.671 299.185C198.024 299.185 213.583 290.712 213.583 290.712C238.69 276.238 253.896 254.349 257.432 211.984L258.493 197.156L258.139 196.097Z" fill="url(#paint5_linear)"/>
<path d="M258.138 196.097C235.507 183.387 213.229 162.558 194.841 137.139H194.488H194.134L148.518 163.264L241.872 205.982L258.846 196.45L258.138 196.097Z" fill="url(#paint6_linear)"/>
<path d="M247.53 201.746C224.899 189.036 202.621 168.206 184.233 142.787H183.879C165.491 147.024 143.214 142.081 120.582 128.666L119.875 128.312L120.936 144.553C125.179 201.746 147.457 248.7 183.526 304.481L184.233 304.834C220.302 290.713 242.58 269.53 246.823 217.279L247.884 202.452L247.53 201.746Z" fill="url(#paint7_radial)"/>
<path d="M245.45 202.59C222.819 189.88 200.541 169.051 182.153 143.632H181.799C163.411 147.868 141.134 142.925 118.502 129.51L117.795 129.157L118.856 145.397C123.099 202.59 145.377 249.545 181.446 305.325L182.153 305.678C218.222 291.557 240.499 270.374 244.743 218.124L245.804 203.296L245.45 202.59Z" fill="url(#paint8_linear)"/>
<path d="M245.762 202.451C245.409 202.098 245.055 202.098 244.702 201.745L243.641 216.573C239.397 268.823 217.119 290.006 181.404 304.128C181.758 304.481 181.758 304.834 182.112 305.187L182.819 305.54C218.888 291.418 241.165 270.236 245.409 217.985L246.47 203.157L245.762 202.451Z" fill="url(#paint9_radial)"/>
<path d="M185.294 297.068C152.761 246.582 130.484 200.687 126.24 144.553L125.887 141.022C140.739 148.083 155.237 151.614 168.674 151.614C172.21 151.614 175.747 151.261 179.283 150.908C197.317 174.562 217.827 193.979 239.397 206.689L238.69 217.28C234.447 265.294 215.351 284.358 185.294 297.068Z" fill="url(#paint10_linear)"/>
<path opacity="0.2" d="M130.837 143.847V143.141C129.423 142.435 127.655 141.729 126.24 141.022L126.594 144.553C130.837 200.687 153.115 246.229 185.294 296.715C186.709 296.009 188.123 295.655 189.184 294.949C157.005 245.17 135.081 199.628 130.837 143.847Z" fill="url(#paint11_radial)"/>
<path d="M189.538 258.938L174.332 250.465V181.621L189.538 190.094V258.938Z" fill="url(#paint12_linear)"/>
<path opacity="0.7" d="M178.929 247.64V184.092L174.332 181.621V250.465L189.538 258.938V253.642L178.929 247.64Z" fill="url(#paint13_linear)"/>
<g opacity="0.2">
<path opacity="0.090909" d="M179.99 258.937C179.99 258.937 172.917 256.113 172.564 256.113C170.442 255.053 163.016 259.996 155.236 265.998C146.396 273.412 135.788 282.591 134.02 283.65L79.5627 314.365L72.4904 318.248L10.9613 353.199C7.42513 355.318 4.5962 358.495 3.53536 361.673C3.18174 362.732 2.82812 363.791 2.82812 365.203C2.82812 370.499 6.01066 375.441 11.6685 378.972C11.6685 378.972 14.8511 380.737 18.7408 382.502C26.1668 386.033 36.7752 390.622 40.665 390.622C43.1403 390.622 45.6156 390.269 48.0909 389.563C50.2126 389.21 52.3343 388.151 54.1024 387.092L108.559 352.846L119.875 345.786L163.016 318.248C167.613 315.424 170.796 311.187 170.796 306.245C170.796 304.126 173.271 297.419 175.393 289.652C178.929 276.942 183.879 261.055 179.99 258.937Z" fill="black"/>
<path opacity="0.1818" d="M173.625 264.586C173.625 264.586 166.906 261.762 166.553 261.762C164.077 260.703 157.005 264.939 150.286 270.588C142.153 276.943 131.898 286.122 130.13 287.181L78.5023 316.484L71.7836 320.367L13.4371 353.553C10.2545 355.319 7.42559 358.496 6.36475 361.673C6.01113 362.733 5.65751 363.792 5.65751 364.851C5.3039 369.793 8.48644 374.736 14.1443 377.913C14.1443 377.913 17.3268 379.679 20.863 381.444C27.5817 384.621 37.8365 389.211 41.7263 388.858C44.2016 388.858 46.3233 388.505 48.445 387.799C50.2131 387.446 52.3348 386.386 54.1028 385.68L105.377 352.847L115.986 346.14L156.651 320.014C160.895 317.543 164.077 313.306 164.077 309.07C164.077 307.305 166.906 300.597 168.674 293.889C172.21 281.533 177.515 266.705 173.625 264.586Z" fill="black"/>
<path opacity="0.2727" d="M167.26 270.588C167.26 270.588 161.248 268.117 160.895 268.117C158.419 267.057 151.701 270.588 145.336 275.884C138.263 281.532 127.655 290.358 126.24 291.064L77.4416 318.602L71.0765 322.132L16.2661 353.553C13.4371 355.318 10.6082 358.143 9.54737 360.967C9.19375 362.026 8.84014 362.732 8.84014 363.791C8.48652 368.381 11.3154 372.97 16.6197 376.148C16.6197 376.148 19.8022 377.913 22.9848 379.325C29.3498 382.503 38.8974 386.386 42.4336 386.033C44.5553 386.033 47.0306 385.68 48.7987 384.974C50.5668 384.621 52.6885 383.562 54.1029 382.856L102.195 352.141L112.096 345.786L150.286 321.073C153.822 318.955 157.712 314.718 157.712 310.835C157.712 309.423 160.895 302.715 162.663 296.713C165.492 286.122 171.15 272.706 167.26 270.588Z" fill="black"/>
<path opacity="0.3636" d="M160.895 276.236C160.895 276.236 155.591 274.118 154.883 273.765C152.408 272.706 146.043 275.883 140.031 280.473C133.666 285.415 123.058 293.889 121.997 294.595L76.3807 320.72L70.7228 323.897L19.095 353.2C16.6197 354.612 13.4371 357.789 12.7299 359.908C12.3763 360.614 12.0227 361.673 12.0227 362.732C11.3154 366.969 13.7907 371.205 19.095 374.382C19.095 374.382 22.2775 376.148 24.7528 377.56C30.7643 380.384 39.2511 383.915 43.1408 383.915C45.2625 383.915 47.3842 383.562 49.1523 382.856C50.5668 382.502 52.6884 381.443 53.7493 380.737L98.6585 351.788L107.852 345.786L143.568 322.838C146.75 321.073 150.64 316.836 150.64 313.306C150.64 311.894 153.822 305.892 155.591 300.596C158.419 290.711 164.785 278.355 160.895 276.236Z" fill="black"/>
<path opacity="0.4545" d="M154.53 281.886C154.53 281.886 149.579 279.768 148.872 279.768C146.396 278.708 140.031 281.18 134.727 285.416C129.423 289.653 118.814 297.773 117.754 298.479L74.9661 322.839L69.6619 326.016L21.2165 353.201C19.0948 354.26 15.9123 357.437 15.2051 359.202C14.8515 359.908 14.4978 360.968 14.4978 361.674C13.7906 365.557 15.9123 369.794 20.8629 372.265C20.8629 372.265 24.0455 374.03 26.1672 375.089C31.825 377.914 39.6045 380.738 43.1407 380.738C45.2624 380.738 47.0305 380.385 48.7986 379.679C49.8594 379.326 52.3347 378.267 53.0419 377.561L94.7686 350.729L103.255 345.081L136.495 323.545C139.324 321.78 143.214 317.896 143.214 315.072C143.214 314.013 146.75 308.011 148.518 303.422C151.701 295.302 158.419 284.004 154.53 281.886Z" fill="black"/>
<path opacity="0.5455" d="M148.165 287.535C148.165 287.535 143.922 285.77 142.861 285.417C140.385 284.358 134.374 286.476 129.777 290.006C125.18 293.537 114.572 301.304 113.511 302.01L73.9058 324.958L68.9551 327.782L24.046 353.201C22.2779 354.26 18.7417 357.084 18.0345 358.85C17.6809 359.556 17.3273 360.262 16.9737 360.968C15.9128 364.498 18.0345 368.382 22.6315 370.853C22.6315 370.853 25.4604 372.618 27.5821 373.678C32.5327 376.149 39.9587 378.973 43.4948 378.62C45.2629 378.62 47.031 378.267 48.7991 377.561C49.8599 377.208 51.9816 376.149 52.6888 375.796L91.2329 350.73L99.0125 345.434L129.777 325.664C132.252 324.251 136.496 320.368 136.496 317.897C136.496 316.838 140.385 311.189 141.8 307.658C144.982 299.891 152.055 290.006 148.165 287.535Z" fill="black"/>
<path opacity="0.6364" d="M141.8 293.536C141.8 293.536 138.264 292.124 136.849 291.771C134.021 290.712 128.716 292.124 124.473 295.654C120.937 298.479 110.328 305.892 109.267 306.246L72.4914 327.075L67.8944 329.899L26.5214 353.2C25.1069 353.906 21.2172 356.731 20.8635 358.143C20.5099 358.849 20.1563 359.555 19.8027 360.261C18.7418 363.439 20.5099 366.969 24.7533 369.44C24.7533 369.44 27.5822 371.206 29.3503 371.912C33.9473 374.383 40.666 376.501 43.8486 376.148C45.6166 376.148 47.0311 375.442 48.4456 375.089C49.1528 374.736 51.2745 373.677 51.9817 373.324L87.3433 350.376L94.7692 345.786L123.058 327.428C124.827 326.369 129.424 322.486 129.424 320.367C129.424 319.661 133.667 314.366 135.081 311.188C137.91 304.48 145.69 295.654 141.8 293.536Z" fill="black"/>
<path opacity="0.7273" d="M135.435 299.185C135.435 299.185 132.253 298.126 130.838 297.773C128.009 296.714 122.705 297.773 119.169 300.597C116.34 302.716 105.732 309.776 105.024 310.13L71.0772 329.194L66.8339 331.665L29.3506 353.201C28.2898 353.907 24.4 356.378 24.0464 357.437C23.6927 358.143 23.3391 358.496 22.9855 359.203C21.9247 362.027 23.3391 365.557 27.2289 367.676C27.2289 367.676 30.0578 369.441 31.4723 370.147C35.7157 372.265 41.3735 374.03 44.9097 373.677C46.3241 373.677 47.7386 372.971 49.1531 372.618C49.8603 372.265 51.982 371.206 52.3356 370.853L84.8682 349.67L91.5869 345.434L117.401 328.488C118.815 327.782 123.412 323.898 123.412 322.486C123.412 321.78 128.009 316.837 129.07 314.719C131.192 309.07 139.325 301.303 135.435 299.185Z" fill="black"/>
<path opacity="0.8182" d="M129.069 304.833C129.069 304.833 126.594 303.774 124.826 303.421C121.997 302.715 117.046 302.715 114.217 305.186C112.449 306.598 101.487 313.306 101.134 313.659L70.3692 330.958L66.4794 333.077L31.4715 352.847C30.7642 353.2 26.5208 356.024 26.5208 356.73C26.1672 357.083 25.46 357.79 25.46 358.143C24.0455 360.614 25.46 363.791 28.9962 365.91C28.9962 365.91 31.8251 367.675 32.5323 368.028C36.4221 369.793 41.3727 371.558 44.5552 370.852C45.9697 370.852 47.3842 370.146 48.445 369.793C48.7986 369.793 50.9203 368.381 51.2739 368.028L80.624 348.963L86.6355 345.08L109.974 329.899C111.035 329.193 115.986 325.663 115.986 324.603C115.986 324.25 121.29 319.661 121.997 317.896C125.533 314.012 132.959 306.951 129.069 304.833Z" fill="black"/>
<path opacity="0.9091" d="M122.704 310.835C122.704 310.835 120.582 310.129 118.814 309.776C115.985 309.07 111.388 308.717 108.913 310.482C107.852 311.188 97.2437 317.543 96.8901 317.896L68.9545 333.783L65.4184 335.901L33.9466 353.554C33.593 353.907 29.3496 356.378 28.996 356.731C28.6424 357.084 27.9351 357.437 27.5815 358.143C26.167 360.261 27.2279 363.086 30.4104 365.204C30.4104 365.204 33.2394 366.969 33.593 367.322C36.7755 369.088 41.3725 370.147 44.555 369.441C45.9695 369.088 47.0304 368.735 48.0912 368.381C48.4448 368.381 50.5665 366.969 50.5665 366.969L76.7341 349.67L82.0383 346.14L102.902 332.371C103.255 332.018 108.559 328.488 108.559 327.781C108.559 327.428 114.217 323.192 114.571 322.486C118.814 318.955 126.594 312.954 122.704 310.835Z" fill="black"/>
<path opacity="0.2" d="M48.7994 365.204L78.5031 345.08L108.207 324.957C111.389 323.192 119.876 318.249 115.986 316.131C115.986 316.131 106.792 312.953 103.61 314.718L67.8946 334.842L32.1795 354.965C28.9969 356.731 29.3505 360.261 33.2403 362.379L36.0692 364.145C39.959 366.969 45.6169 367.322 48.7994 365.204Z" fill="black"/>
</g>
<path d="M182.466 186.211L74.2598 247.288V310.836L182.82 247.994L186.002 237.05L188.831 190.095L182.466 186.211Z" fill="url(#paint14_linear)"/>
<path d="M188.831 190.095L80.9785 251.172V314.366L188.831 252.231V190.095Z" fill="url(#paint15_linear)"/>
<path d="M188.831 203.864L96.5371 256.467V287.535L188.831 234.932V203.864Z" fill="url(#paint16_linear)"/>
<path d="M188.831 231.754L96.5371 284.357V287.535L188.831 234.931V231.754Z" fill="#7A52C3"/>
<path d="M85.2217 218.338L74.6132 213.042C72.1379 211.277 68.6018 211.63 64.712 213.748L19.4492 239.874C12.0233 244.11 5.6582 254.701 5.6582 263.528V356.025C5.6582 360.968 7.7799 364.145 10.6088 365.204L21.2173 370.853V365.557C21.5709 365.557 21.5709 365.204 21.9245 365.204L67.5409 339.079C74.9669 334.842 81.3319 324.251 81.3319 315.425V222.928C81.3319 222.575 81.3319 221.868 81.3319 221.515L85.2217 218.338ZM51.2746 309.07C51.2746 316.837 45.6168 326.369 38.8981 330.606L36.4228 332.018C29.7041 335.901 24.0462 332.724 24.0462 324.957V312.601L32.8866 261.056C33.9474 259.997 35.3619 258.938 36.4228 258.232L38.8981 256.82C45.6168 252.936 51.2746 256.114 51.2746 263.881V309.07Z" fill="url(#paint17_linear)"/>
<path d="M75.3215 219.044L29.7051 245.169C22.2791 249.406 15.9141 259.997 15.9141 268.823V361.321C15.9141 370.147 21.9255 373.324 29.7051 369.088L75.3215 342.962C82.7474 338.726 89.1125 328.135 89.1125 319.309V226.811C89.1125 218.338 83.101 214.808 75.3215 219.044ZM59.4088 312.954C59.4088 320.721 53.7509 330.253 47.0322 334.489L44.5569 335.902C37.8382 339.785 32.1804 336.608 32.1804 328.841V283.651C32.1804 275.884 37.8382 266.352 44.5569 262.115L47.0322 260.703C53.7509 256.82 59.4088 259.997 59.4088 267.764V312.954Z" fill="url(#paint18_linear)"/>
<path d="M45.6157 335.902L48.091 334.49C54.8097 330.607 60.4675 321.075 60.4675 312.955V267.765C60.4675 262.469 57.9922 259.645 54.4561 258.939C56.9314 259.998 58.3458 262.822 58.3458 267.059V312.249C58.3458 320.016 52.688 329.548 45.9693 333.784L43.494 335.196C41.0187 336.609 38.897 336.962 37.1289 336.962C39.2506 338.021 42.4331 338.021 45.6157 335.902Z" fill="url(#paint19_radial)"/>
<path d="M17.6804 361.321V268.824C17.6804 259.998 23.6918 249.407 31.4714 245.17L76.7342 219.045C79.5631 217.633 82.0384 216.927 83.8065 217.28C81.3312 216.221 78.1486 216.221 74.6125 218.339L28.9961 244.464C21.5702 248.701 15.2051 259.292 15.2051 268.118V360.615C15.2051 366.264 17.6804 369.794 21.5702 370.148C19.4485 369.088 17.6804 365.911 17.6804 361.321Z" fill="url(#paint20_radial)"/>
<path d="M188.832 209.159C185.296 211.984 182.82 216.926 182.82 221.163C182.82 225.399 185.296 227.517 188.832 226.458V209.159Z" fill="url(#paint21_linear)"/>
<path d="M130.485 241.639C126.241 244.11 122.705 250.112 122.705 255.055C122.705 259.997 126.241 261.763 130.485 259.291C134.728 256.82 138.264 250.818 138.264 245.876C138.264 241.286 134.728 239.168 130.485 241.639Z" fill="url(#paint22_linear)"/>
<path d="M110.682 252.937C106.438 255.408 102.902 261.41 102.902 266.352C102.902 271.295 106.438 273.06 110.682 270.942C114.925 268.47 118.461 262.469 118.461 257.526C118.461 252.584 114.925 250.818 110.682 252.937Z" fill="url(#paint23_linear)"/>
<path d="M170.444 219.045C166.2 221.516 162.664 227.518 162.664 232.46C162.664 237.403 166.2 239.168 170.444 237.05C174.687 234.579 178.223 228.577 178.223 223.634C178.223 218.692 175.041 216.573 170.444 219.045Z" fill="url(#paint24_linear)"/>
<path d="M150.641 230.341C146.397 232.812 142.861 238.814 142.861 243.757C142.861 248.699 146.397 250.465 150.641 247.993C154.884 245.522 158.42 239.52 158.42 234.578C158.42 229.988 154.884 227.87 150.641 230.341Z" fill="url(#paint25_linear)"/>
<defs>
<linearGradient id="paint0_linear" x1="206.716" y1="194.859" x2="234.161" y2="-174.882" gradientUnits="userSpaceOnUse">
<stop offset="0.030303" stop-color="#7C1DC9"/>
<stop offset="0.2138" stop-color="#6E41D2"/>
<stop offset="0.6184" stop-color="#4C9BE8"/>
<stop offset="1" stop-color="#2AF6FF"/>
</linearGradient>
<radialGradient id="paint1_radial" cx="0" cy="0" r="1" gradientUnits="userSpaceOnUse" gradientTransform="translate(135.649 39.6653) scale(56.1297 56.0389)">
<stop stop-color="white"/>
<stop offset="1"/>
</radialGradient>
<radialGradient id="paint2_radial" cx="0" cy="0" r="1" gradientUnits="userSpaceOnUse" gradientTransform="translate(249.722 161.723) scale(101.183 101.02)">
<stop stop-color="white"/>
<stop offset="1"/>
</radialGradient>
<linearGradient id="paint3_linear" x1="57.0072" y1="736.242" x2="257.309" y2="-49.2312" gradientUnits="userSpaceOnUse">
<stop offset="0.030303" stop-color="#7C1DC9"/>
<stop offset="0.2138" stop-color="#6E41D2"/>
<stop offset="0.6184" stop-color="#4C9BE8"/>
<stop offset="1" stop-color="#2AF6FF"/>
</linearGradient>
<radialGradient id="paint4_radial" cx="0" cy="0" r="1" gradientUnits="userSpaceOnUse" gradientTransform="translate(150.479 218.411) scale(162.96 162.697)">
<stop stop-color="white"/>
<stop offset="1"/>
</radialGradient>
<linearGradient id="paint5_linear" x1="234.077" y1="271.454" x2="163.543" y2="115.795" gradientUnits="userSpaceOnUse">
<stop offset="0.030303" stop-color="#7C1DC9"/>
<stop offset="0.2138" stop-color="#6E41D2"/>
<stop offset="0.6184" stop-color="#4C9BE8"/>
<stop offset="1" stop-color="#2AF6FF"/>
</linearGradient>
<linearGradient id="paint6_linear" x1="192.063" y1="247.939" x2="209.882" y2="143.566" gradientUnits="userSpaceOnUse">
<stop offset="0.030303" stop-color="#7C1DC9"/>
<stop offset="0.2138" stop-color="#6E41D2"/>
<stop offset="0.6184" stop-color="#4C9BE8"/>
<stop offset="1" stop-color="#2AF6FF"/>
</linearGradient>
<radialGradient id="paint7_radial" cx="0" cy="0" r="1" gradientUnits="userSpaceOnUse" gradientTransform="translate(231.516 190.864) scale(103.986 103.818)">
<stop offset="0.3636" stop-color="white"/>
<stop offset="0.4269" stop-color="#E1E1E1"/>
<stop offset="0.6404" stop-color="#828282"/>
<stop offset="0.8134" stop-color="#3C3C3C"/>
<stop offset="0.9372" stop-color="#111111"/>
<stop offset="1"/>
</radialGradient>
<linearGradient id="paint8_linear" x1="124.915" y1="322.641" x2="257.057" y2="-5.72641" gradientUnits="userSpaceOnUse">
<stop offset="0.030303" stop-color="#7C1DC9"/>
<stop offset="0.2138" stop-color="#6E41D2"/>
<stop offset="0.6184" stop-color="#4C9BE8"/>
<stop offset="1" stop-color="#2AF6FF"/>
</linearGradient>
<radialGradient id="paint9_radial" cx="0" cy="0" r="1" gradientUnits="userSpaceOnUse" gradientTransform="translate(236.013 305.097) scale(43.3126 43.2425)">
<stop stop-color="#FF63CE"/>
<stop offset="1"/>
</radialGradient>
<linearGradient id="paint10_linear" x1="99.8836" y1="384.527" x2="226.216" y2="82.5443" gradientUnits="userSpaceOnUse">
<stop offset="0.030303" stop-color="#7C1DC9"/>
<stop offset="0.2138" stop-color="#6E41D2"/>
<stop offset="0.6184" stop-color="#4C9BE8"/>
<stop offset="1" stop-color="#2AF6FF"/>
</linearGradient>
<radialGradient id="paint11_radial" cx="0" cy="0" r="1" gradientUnits="userSpaceOnUse" gradientTransform="translate(148.304 243.685) scale(59.5358 98.7884)">
<stop offset="0.1364" stop-color="#25166D"/>
<stop offset="0.2167" stop-color="#2C1D72"/>
<stop offset="0.3354" stop-color="#3E317E"/>
<stop offset="0.4779" stop-color="#5D5293"/>
<stop offset="0.6389" stop-color="#887FAF"/>
<stop offset="0.8154" stop-color="#BEBAD4"/>
<stop offset="1" stop-color="white"/>
</radialGradient>
<linearGradient id="paint12_linear" x1="217.412" y1="244.316" x2="158.721" y2="204.583" gradientUnits="userSpaceOnUse">
<stop stop-color="#9F79C8"/>
<stop offset="0.1409" stop-color="#A27DCA"/>
<stop offset="0.2725" stop-color="#AC88CF"/>
<stop offset="0.4" stop-color="#BC9BD7"/>
<stop offset="0.5202" stop-color="#D1B4E3"/>
<stop offset="0.6493" stop-color="#DBC4E9"/>
<stop offset="0.8997" stop-color="#F4EDF8"/>
<stop offset="1" stop-color="white"/>
</linearGradient>
<linearGradient id="paint13_linear" x1="179.445" y1="220.956" x2="295.921" y2="189.27" gradientUnits="userSpaceOnUse">
<stop offset="0.030303" stop-color="#7C1DC9"/>
<stop offset="0.2138" stop-color="#6E41D2"/>
<stop offset="0.6184" stop-color="#4C9BE8"/>
<stop offset="1" stop-color="#2AF6FF"/>
</linearGradient>
<linearGradient id="paint14_linear" x1="9.50391" y1="289.427" x2="239.895" y2="209.73" gradientUnits="userSpaceOnUse">
<stop stop-color="#9F79C8"/>
<stop offset="0.1409" stop-color="#A27DCA"/>
<stop offset="0.2725" stop-color="#AC88CF"/>
<stop offset="0.4" stop-color="#BC9BD7"/>
<stop offset="0.5202" stop-color="#D1B4E3"/>
<stop offset="0.6493" stop-color="#DBC4E9"/>
<stop offset="0.8997" stop-color="#F4EDF8"/>
<stop offset="1" stop-color="white"/>
</linearGradient>
<linearGradient id="paint15_linear" x1="103.99" y1="274.227" x2="403.791" y2="55.0658" gradientUnits="userSpaceOnUse">
<stop stop-color="#9F79C8"/>
<stop offset="0.1409" stop-color="#A27DCA"/>
<stop offset="0.2725" stop-color="#AC88CF"/>
<stop offset="0.4" stop-color="#BC9BD7"/>
<stop offset="0.5202" stop-color="#D1B4E3"/>
<stop offset="0.6493" stop-color="#DBC4E9"/>
<stop offset="0.8997" stop-color="#F4EDF8"/>
<stop offset="1" stop-color="white"/>
</linearGradient>
<linearGradient id="paint16_linear" x1="85.9322" y1="183.267" x2="172.708" y2="279.062" gradientUnits="userSpaceOnUse">
<stop stop-color="#9F79C8"/>
<stop offset="0.1409" stop-color="#A27DCA"/>
<stop offset="0.2725" stop-color="#AC88CF"/>
<stop offset="0.4" stop-color="#BC9BD7"/>
<stop offset="0.5202" stop-color="#D1B4E3"/>
<stop offset="0.6493" stop-color="#DBC4E9"/>
<stop offset="0.8997" stop-color="#F4EDF8"/>
<stop offset="1" stop-color="white"/>
</linearGradient>
<linearGradient id="paint17_linear" x1="89.656" y1="406.561" x2="5.84477" y2="181.754" gradientUnits="userSpaceOnUse">
<stop stop-color="#9F79C8"/>
<stop offset="0.1409" stop-color="#A27DCA"/>
<stop offset="0.2725" stop-color="#AC88CF"/>
<stop offset="0.4" stop-color="#BC9BD7"/>
<stop offset="0.5202" stop-color="#D1B4E3"/>
<stop offset="0.6493" stop-color="#DBC4E9"/>
<stop offset="0.8997" stop-color="#F4EDF8"/>
<stop offset="1" stop-color="white"/>
</linearGradient>
<linearGradient id="paint18_linear" x1="78.0602" y1="282.131" x2="260.59" y2="194.998" gradientUnits="userSpaceOnUse">
<stop stop-color="#9F79C8"/>
<stop offset="0.1409" stop-color="#A27DCA"/>
<stop offset="0.2725" stop-color="#AC88CF"/>
<stop offset="0.4" stop-color="#BC9BD7"/>
<stop offset="0.5202" stop-color="#D1B4E3"/>
<stop offset="0.6493" stop-color="#DBC4E9"/>
<stop offset="0.8997" stop-color="#F4EDF8"/>
<stop offset="1" stop-color="white"/>
</linearGradient>
<radialGradient id="paint19_radial" cx="0" cy="0" r="1" gradientUnits="userSpaceOnUse" gradientTransform="translate(73.7557 325.195) scale(29.0421 28.9951)">
<stop stop-color="white"/>
<stop offset="1"/>
</radialGradient>
<radialGradient id="paint20_radial" cx="0" cy="0" r="1" gradientUnits="userSpaceOnUse" gradientTransform="translate(40.379 256.366) scale(59.5626 59.4663)">
<stop stop-color="white"/>
<stop offset="1"/>
</radialGradient>
<linearGradient id="paint21_linear" x1="72.5401" y1="275.089" x2="239.913" y2="192.239" gradientUnits="userSpaceOnUse">
<stop offset="0.0959596" stop-color="#45108A"/>
<stop offset="1" stop-color="#7C1DC9"/>
</linearGradient>
<linearGradient id="paint22_linear" x1="74.2209" y1="278.493" x2="241.599" y2="195.641" gradientUnits="userSpaceOnUse">
<stop offset="0.0959596" stop-color="#45108A"/>
<stop offset="1" stop-color="#7C1DC9"/>
</linearGradient>
<linearGradient id="paint23_linear" x1="74.8023" y1="279.667" x2="242.179" y2="196.815" gradientUnits="userSpaceOnUse">
<stop offset="0.0959596" stop-color="#45108A"/>
<stop offset="1" stop-color="#7C1DC9"/>
</linearGradient>
<linearGradient id="paint24_linear" x1="73.0597" y1="276.145" x2="240.437" y2="193.294" gradientUnits="userSpaceOnUse">
<stop offset="0.0959596" stop-color="#45108A"/>
<stop offset="1" stop-color="#7C1DC9"/>
</linearGradient>
<linearGradient id="paint25_linear" x1="73.6404" y1="277.318" x2="241.017" y2="194.467" gradientUnits="userSpaceOnUse">
<stop offset="0.0959596" stop-color="#45108A"/>
<stop offset="1" stop-color="#7C1DC9"/>
</linearGradient>
</defs>
</svg>
