<svg width="98" height="220" viewBox="0 0 98 220" fill="none" xmlns="http://www.w3.org/2000/svg">
<g opacity="0.2">
<path opacity="0.090909" d="M6.70853 166.608L8.38579 165.769C8.38579 165.769 13.6971 162.694 13.9766 162.694C17.3312 161.017 21.2447 159.899 25.1583 160.178C25.7174 160.178 26.2765 160.178 26.8356 160.178C29.3515 160.458 32.4265 161.296 34.3832 162.414L62.3375 178.628L90.2918 194.841C92.8076 196.239 95.044 198.755 95.6031 201.271C95.8826 201.83 95.8826 202.669 95.8826 203.228C96.1622 206.862 93.9258 210.496 89.7327 213.012L88.335 213.85C88.335 213.85 83.0237 216.925 82.7441 216.925C79.3896 218.602 75.476 219.721 71.5624 219.441C71.0033 219.441 70.4442 219.441 69.8852 219.441C67.3693 219.162 64.2943 218.323 62.3375 217.205L34.3832 200.991L6.14945 184.498C3.63356 183.101 1.39722 180.585 0.838136 178.069C0.558594 177.51 0.558594 176.671 0.558594 176.112C0.558594 172.478 2.51539 168.844 6.70853 166.608Z" fill="black"/>
<path opacity="0.1818" d="M6.9884 166.887L8.38611 166.048C8.66565 165.769 13.4179 162.973 13.977 162.973C17.3315 161.296 21.2451 160.458 25.1587 160.737C25.7178 160.737 26.2768 160.737 26.8359 161.017C29.3518 161.296 32.4268 162.414 34.104 163.532L61.7787 179.466L89.1739 195.4C91.4102 196.798 93.9261 199.314 94.4852 201.271C94.7648 201.83 94.7648 202.389 95.0443 203.228C95.3238 206.862 93.3671 210.216 89.1739 212.732L87.7762 213.571C87.4967 213.85 82.7444 216.646 82.1853 216.646C78.8308 218.323 74.9172 219.161 71.0036 218.882C70.4446 218.882 69.8855 218.882 69.3264 218.602C66.8105 218.323 63.7355 217.205 62.0583 216.087L34.3836 200.153L6.9884 184.219C4.75206 182.821 2.23617 180.305 1.67709 178.348C1.39755 177.789 1.39755 177.23 1.118 176.391C0.838461 172.757 2.79526 169.403 6.9884 166.887Z" fill="black"/>
<path opacity="0.2727" d="M7.26969 167.446L8.66741 166.607C8.94695 166.328 13.6992 163.812 13.9787 163.812C17.3332 162.135 21.2468 161.576 25.1604 161.855C25.7195 161.855 26.2786 161.855 26.8377 162.135C29.074 162.414 32.4285 163.812 33.8262 164.651L60.9419 180.305L88.0575 195.959C90.0143 197.078 92.8097 199.873 93.3688 201.55C93.6483 202.109 93.9279 202.668 93.9279 203.228C94.487 206.582 92.5302 210.216 88.6166 212.452L87.2189 213.291C86.9393 213.571 82.1871 216.087 81.9075 216.087C78.553 217.764 74.6394 218.323 71.0054 218.043C70.4463 218.043 69.8872 218.043 69.3281 217.764C67.0918 217.484 63.7373 216.087 62.3396 215.248L35.2239 199.594L8.10832 183.939C6.15152 182.821 3.3561 180.026 2.79701 178.348C2.51747 177.789 2.23793 177.23 2.23793 176.671C1.11976 173.317 3.07656 169.682 7.26969 167.446Z" fill="black"/>
<path opacity="0.3636" d="M7.54806 167.725L8.94578 166.886C9.50486 166.607 13.698 164.37 14.2571 164.091C17.6116 162.693 21.5252 162.134 24.8797 162.414C25.4388 162.414 25.9979 162.693 26.2774 162.693C28.2342 162.973 31.8683 164.37 33.266 165.209L59.8225 180.584L86.3791 195.959C88.0563 197.077 91.1313 199.872 91.6904 201.27C91.9699 201.829 92.2495 202.388 92.2495 202.947C93.0881 206.302 91.4108 209.656 87.2177 212.172L85.82 213.011C85.2609 213.29 81.0678 215.527 80.5087 215.806C77.1542 217.204 73.2406 217.763 69.8861 217.484C69.327 217.484 68.7679 217.204 68.4883 217.204C66.5315 216.924 62.8975 215.527 61.4998 214.688L34.9432 199.313L8.38669 183.938C6.70944 182.82 3.63447 180.025 3.07538 178.627C2.79584 178.068 2.5163 177.509 2.5163 176.95C1.67767 173.595 3.35493 170.241 7.54806 167.725Z" fill="black"/>
<path opacity="0.4545" d="M7.82823 168.285L9.22594 167.725C9.78502 167.446 13.6986 165.21 14.5372 165.21C17.8918 163.812 21.5258 163.253 25.1599 163.812C25.719 163.812 26.278 164.091 26.5576 164.091C28.2348 164.371 32.1484 166.048 33.2666 166.887L59.2641 181.982L85.2615 197.077C86.6592 197.916 90.2933 200.712 90.8524 202.109C91.1319 202.668 91.4115 203.227 91.691 203.786C92.8092 206.861 91.1319 210.495 86.9388 212.732L85.5411 213.291C84.982 213.57 81.0684 215.807 80.2298 215.807C76.8752 217.205 73.2412 217.484 69.6071 217.205C69.048 217.205 68.489 216.925 68.2094 216.925C66.5322 216.645 62.6186 214.968 61.5004 214.13L35.5029 199.034L9.50548 183.939C8.10777 183.1 4.47372 180.305 3.91463 178.907C3.63509 178.348 3.35555 177.789 3.076 177.23C1.95783 174.155 3.63509 170.521 7.82823 168.285Z" fill="black"/>
<path opacity="0.5455" d="M8.10802 168.843L9.50573 168.284C10.3444 167.725 13.6989 166.048 14.817 165.768C18.1716 164.65 21.8056 164.091 25.1601 164.65C25.7192 164.65 25.9987 164.93 26.5578 164.93C27.9555 165.209 32.1487 167.166 32.9873 167.725L58.4257 182.541L83.8641 197.077C84.9822 197.916 89.1754 200.711 89.4549 201.829C89.7345 202.388 90.014 202.668 90.2935 203.227C91.4117 206.302 90.014 209.656 86.1004 211.893L84.7027 212.452C83.8641 213.29 80.23 215.247 79.3914 215.247C76.0369 216.365 72.4028 216.924 69.0483 216.365C68.4892 216.365 68.2097 216.086 67.6506 216.086C66.2529 215.806 62.0597 213.849 61.2211 213.29L35.5032 198.475L10.0648 183.938C8.94665 183.1 4.75351 180.304 4.47396 179.186C4.19442 178.627 3.91488 178.348 3.63534 177.788C2.51717 174.434 3.91488 171.079 8.10802 168.843Z" fill="black"/>
<path opacity="0.6364" d="M8.38678 169.123L9.78449 168.564C10.6231 168.005 13.6981 166.328 14.8163 166.328C18.1708 165.21 21.8048 164.93 24.8798 165.769C25.4389 165.769 25.7184 166.048 26.2775 166.048C27.3957 166.328 31.8684 168.564 32.707 168.844L57.8658 183.38L82.7451 197.637C83.8633 198.196 88.0564 201.271 88.336 202.109C88.6155 202.668 88.895 202.948 89.1746 203.507C90.5723 206.303 89.1746 209.657 85.261 212.173L83.8633 212.732C83.0247 213.291 79.9497 214.968 78.8315 214.968C75.477 216.087 71.8429 216.366 68.768 215.527C68.2089 215.527 67.9294 215.248 67.3703 215.248C66.2521 214.968 61.7794 212.732 60.9408 212.452L35.7819 197.916L10.9027 183.66C9.78449 183.101 5.59135 180.026 5.31181 179.187C5.03226 178.628 4.75272 178.348 4.47318 177.789C2.79592 174.714 4.19364 171.36 8.38678 169.123Z" fill="black"/>
<path opacity="0.7273" d="M8.66464 169.683L10.0624 169.123C11.1805 168.564 13.9759 167.167 15.0941 166.887C18.4486 165.769 22.0827 165.769 25.1576 166.608C25.7167 166.608 25.9963 166.887 26.5554 167.167C27.394 167.446 32.1462 169.683 32.7053 169.962L57.305 184.219L81.6252 198.196C82.4639 198.755 87.2161 201.83 87.2161 202.389C87.7752 202.669 88.0547 203.228 88.3343 203.787C90.0115 206.582 88.8933 209.937 84.7002 212.173L83.023 212.453C81.9048 213.012 79.1094 214.409 77.9912 214.689C74.6367 215.807 71.0026 215.807 67.9277 214.968C67.3686 214.968 67.089 214.689 66.5299 214.409C65.6913 214.13 60.9391 211.893 60.38 211.614L35.7803 197.357L11.4601 183.38C10.6214 182.821 5.86921 179.746 5.86921 179.187C5.58967 178.907 5.31013 178.348 5.03059 178.069C3.35333 175.273 4.4715 171.919 8.66464 169.683Z" fill="black"/>
<path opacity="0.8182" d="M8.66654 169.962L10.0643 169.403C11.1824 168.844 13.6983 167.725 15.096 167.446C18.4505 166.607 22.0846 166.607 24.88 167.446C25.4391 167.446 25.7186 167.725 26.2777 168.005C26.8368 168.005 31.8686 170.8 32.1481 171.08L56.1888 185.057L79.9499 198.755C80.509 199.034 85.5407 202.109 85.8203 202.668C86.3794 202.948 86.6589 203.507 86.9385 203.786C88.8953 206.302 87.7771 209.657 83.8635 212.173L82.4658 212.452C81.3476 213.011 78.8317 214.129 77.434 214.409C74.0795 215.248 70.4454 215.248 67.65 214.409C67.0909 214.409 66.8114 214.129 66.2523 213.85C65.6932 213.85 60.6615 211.055 60.3819 210.775L36.3413 196.798L12.5801 183.1C12.021 182.821 6.98928 179.746 6.70974 179.187C6.15066 178.907 5.87111 178.348 5.59157 178.068C3.63477 175.553 4.75294 172.198 8.66654 169.962Z" fill="black"/>
<path opacity="0.9091" d="M8.94543 170.521L10.3431 169.962C11.7409 169.123 13.6977 168.285 15.3749 168.005C18.7294 167.166 22.0839 167.166 24.8794 168.285C25.4384 168.564 25.718 168.564 25.9975 168.844C26.2771 168.844 31.5884 171.919 31.5884 171.919L55.07 185.616L78.272 199.034C78.5515 199.314 84.1424 202.389 84.1424 202.668C84.7015 202.948 84.981 203.507 85.2606 203.786C87.4969 206.302 86.3787 209.657 82.4651 211.893L81.6265 212.452C80.2288 213.291 78.272 214.13 76.5947 214.409C73.2402 215.248 69.8857 215.248 67.0903 214.13C66.5312 213.85 66.2517 213.85 65.9721 213.57C65.6926 213.57 60.3813 210.496 60.3813 210.496L36.8997 196.798L13.6977 183.38C13.4181 183.1 7.82726 180.025 7.82726 179.746C7.26817 179.466 6.98863 178.907 6.70909 178.628C3.91366 176.112 5.03183 172.757 8.94543 170.521Z" fill="black"/>
<path opacity="0.2" d="M65.4136 212.732L36.9003 196.239L8.10738 179.746C4.19379 177.509 4.75287 173.596 9.22555 170.8L10.6233 170.521C15.0959 168.005 22.0845 167.725 25.9981 169.962L54.5114 186.455L83.0248 202.948C86.9384 205.184 86.3793 209.098 81.9066 211.893L80.5089 212.173C76.3158 214.689 69.3272 215.248 65.4136 212.732Z" fill="black"/>
</g>
<path d="M72.9617 211.613L19.569 180.864C13.4191 177.509 8.66686 168.005 8.66686 159.898V9.50412C8.66686 5.31098 5.31235 4.47235 7.26915 3.07464L12.0214 0.838295C14.5373 -0.000333223 16.7736 -0.559418 19.569 1.11784L72.9617 31.8675C79.1116 35.222 83.8638 44.7265 83.8638 52.8332V203.507C83.8638 207.7 82.4661 210.775 80.2298 212.172L74.3594 214.968C72.4026 215.527 75.7571 213.291 72.9617 211.613Z" fill="url(#paint0_linear)"/>
<path opacity="0.6" d="M68.7674 205.184L15.3748 174.434C9.22488 171.08 4.47266 161.575 4.47266 153.468V11.1812C4.47266 3.07449 9.22488 -0.559562 15.3748 3.07449L68.7674 33.8242C74.9174 37.1787 79.6696 46.6831 79.6696 54.7899V197.077C79.6696 204.904 74.9174 208.538 68.7674 205.184Z" fill="url(#paint1_radial)"/>
<path d="M67.9276 214.129L14.535 183.379C8.38504 179.745 3.63281 170.52 3.63281 162.414V11.7403C3.63281 3.63357 8.38504 -0.000480413 14.535 3.63357L67.9276 34.3833C74.0775 37.7378 78.8298 47.2422 78.8298 55.3489V206.022C78.8298 213.85 73.798 217.763 67.9276 214.129Z" fill="white"/>
<path d="M5.03125 163.532V12.5791C5.03125 5.59058 9.22439 2.23607 14.5357 5.31104L67.6488 36.0607C72.9601 39.1357 77.1532 47.2424 77.1532 54.231V205.184C77.1532 212.173 72.9601 215.527 67.6488 212.452L14.5357 181.702C9.50393 178.627 5.03125 170.521 5.03125 163.532Z" fill="url(#paint2_linear)"/>
<path d="M7.26758 155.705V14.2561C7.26758 8.3857 10.9016 5.59028 15.0948 8.10616L67.0897 38.0172C71.5624 40.5331 75.1964 47.5217 75.1964 53.3921V195.12C75.1964 200.991 71.5624 203.786 67.0897 201.27L15.0948 171.079C10.9016 168.564 7.26758 161.575 7.26758 155.705Z" fill="url(#paint3_linear)"/>
<path d="M15.9344 9.78365C11.7412 7.26777 8.38672 9.22457 8.38672 13.9768V157.103C8.38672 161.855 11.7412 167.725 15.9344 170.241L66.8111 199.593C71.0043 202.109 74.3588 200.152 74.3588 195.4V51.9946C74.3588 47.2424 71.0043 41.372 66.8111 38.8561L15.9344 9.78365Z" fill="url(#paint4_linear)"/>
<path d="M15.9344 9.78365C11.7412 7.26777 8.38672 9.22457 8.38672 13.9768V157.103C8.38672 161.855 11.7412 167.725 15.9344 170.241L66.8111 199.593C71.0043 202.109 74.3588 200.152 74.3588 195.4V51.9946C74.3588 47.2424 71.0043 41.372 66.8111 38.8561L15.9344 9.78365Z" fill="url(#paint5_linear)"/>
<path d="M80.2285 88.0559V78.5514C80.2285 77.4332 81.0671 76.0355 81.9058 75.4765C82.7444 74.9174 83.583 75.4765 83.583 76.8742V86.3786C83.583 87.4968 82.7444 88.8945 81.9058 89.4536C81.0671 90.0127 80.2285 89.4536 80.2285 88.0559Z" fill="url(#paint6_linear)"/>
<path d="M81.3481 89.1741C80.7891 89.1741 80.7891 88.6151 80.7891 88.056V78.5515C80.7891 77.4334 81.3481 76.0356 82.1868 75.7561C82.4663 75.7561 82.4663 75.4766 82.7459 75.4766C83.3049 75.4766 83.3049 76.0356 83.3049 76.5947V86.0992C83.3049 87.2173 82.7459 88.6151 81.9072 88.8946C81.6277 89.1741 81.3481 89.1741 81.3481 89.1741Z" fill="url(#paint7_linear)"/>
<path d="M81.0669 88.3355V78.8311C81.0669 77.7129 81.626 76.3152 82.4646 76.0356C82.7441 76.0356 82.7441 76.0356 83.0237 75.7561C83.0237 75.4766 82.7441 75.4766 82.4646 75.4766C82.1851 75.4766 82.1851 75.4766 81.9055 75.7561C81.0669 76.3152 80.5078 77.4334 80.5078 78.5515V88.056C80.5078 88.6151 80.7874 89.1741 81.0669 89.1741C81.0669 88.8946 81.0669 88.6151 81.0669 88.3355Z" fill="url(#paint8_radial)"/>
<path d="M66.5316 38.8561L15.9344 9.78365C11.7412 7.26777 8.38672 9.22457 8.38672 13.9768V157.103C8.38672 161.855 11.7412 167.725 15.9344 170.241L66.8111 199.593C71.0043 202.109 74.3588 200.152 74.3588 195.4V51.9946C74.0792 47.2424 70.7247 41.372 66.5316 38.8561ZM73.5201 195.12C73.5201 196.518 73.2406 197.916 72.402 198.754C71.8429 199.593 71.0043 199.873 69.8861 199.873C69.0475 199.873 67.9293 199.593 66.8111 199.034L16.2139 169.682C12.3003 167.446 8.9458 161.855 8.9458 157.382V13.9768C8.9458 11.1814 10.3435 9.22457 12.5799 9.22457C13.4185 9.22457 14.5367 9.50411 15.6548 10.0632L66.5316 39.4152C70.4452 41.6515 73.7997 47.2424 73.7997 51.715V195.12H73.5201Z" fill="#BCBEC0"/>
<path d="M43.3282 192.045C43.3282 193.443 42.7691 194.282 42.2101 194.841L40.8123 195.68C39.9737 196.239 40.5328 195.12 39.4146 194.561C37.1783 193.164 35.2215 190.089 35.2215 187.293C35.2215 185.896 34.1033 185.896 34.6624 185.616L36.0601 184.777C36.8987 184.498 37.7374 184.498 39.1351 185.057C41.651 186.175 43.3282 189.53 43.3282 192.045Z" fill="url(#paint9_linear)"/>
<path d="M41.9312 192.884C41.9312 195.679 39.9744 196.518 37.7381 195.4C35.5017 194.002 33.5449 190.927 33.5449 188.132C33.5449 185.336 35.5017 184.498 37.7381 185.616C39.9744 187.014 41.9312 190.368 41.9312 192.884Z" fill="url(#paint10_linear)"/>
<path d="M38.0161 185.616C36.898 185.057 35.7798 184.777 35.2207 185.336C36.0593 185.057 36.898 185.336 37.7366 185.896C39.9729 187.293 41.9297 190.368 41.9297 193.164C41.9297 194.561 41.3706 195.4 40.532 195.959C41.6502 195.68 42.2093 194.561 42.2093 193.164C42.2093 190.089 40.2525 187.014 38.0161 185.616Z" fill="#E6E7E8"/>
<path d="M15.9338 66.2514L38.8563 79.3899C40.254 80.2285 41.3721 82.1853 41.3721 83.8626V99.2374C41.3721 100.915 40.254 101.474 38.8563 100.635L24.5996 92.5284L17.611 96.7216V88.6148L16.2133 87.7762C14.8156 86.9376 13.6974 84.9808 13.6974 83.3035V67.9287C13.4179 65.9719 14.536 65.4128 15.9338 66.2514Z" fill="url(#paint11_linear)"/>
<path d="M22.6431 79.1108C23.4818 80.5085 23.4818 81.9063 22.6431 82.1858C21.8045 82.7449 20.6863 81.9062 19.8477 80.5085C19.0091 79.1108 19.0091 77.7131 19.8477 77.4336C20.6863 77.154 21.8045 77.9927 22.6431 79.1108Z" fill="white"/>
<path d="M28.7935 82.7447C29.6322 84.1424 29.6322 85.5401 28.7935 85.8197C27.9549 86.3788 26.8367 85.5401 25.9981 84.1424C25.1595 82.7447 25.1595 81.347 25.9981 81.0674C26.8367 80.7879 27.9549 81.347 28.7935 82.7447Z" fill="white"/>
<path d="M34.942 86.3785C35.7806 87.7762 35.7806 89.1739 34.942 89.4535C34.1034 90.0125 32.9852 89.1739 32.1466 87.7762C31.3079 86.3785 31.3079 84.9808 32.1466 84.7012C32.9852 84.4217 34.3829 84.9808 34.942 86.3785Z" fill="white"/>
<path d="M15.9339 125.794L46.1245 143.405C47.5222 144.244 48.6403 146.201 48.6403 147.878V163.253C48.6403 164.93 47.5222 165.489 46.1245 164.651L24.3201 152.071L17.3316 156.264V148.158L15.9339 147.319C14.5361 146.48 13.418 144.523 13.418 142.846V127.471C13.418 125.794 14.5361 125.235 15.9339 125.794Z" fill="url(#paint12_linear)"/>
<path d="M64.8538 61.2197L16.4929 33.2655C14.8157 32.1473 13.418 32.9859 13.418 34.9427V53.9516C13.418 55.9084 14.8157 58.4243 16.4929 59.2629L54.2312 81.0673L62.897 96.1626V86.099L64.5743 87.2172C66.2515 88.3354 67.6492 87.4967 67.6492 85.5399V66.531C67.9288 64.5742 66.5311 62.3379 64.8538 61.2197Z" fill="url(#paint13_linear)"/>
<path d="M40.2535 64.2947L20.6855 53.3926V55.6289L40.2535 66.5311V64.2947Z" fill="white"/>
<path d="M39.1354 53.3924L20.6855 43.0493V45.2857L39.1354 55.6287V53.3924Z" fill="white"/>
<path d="M31.8672 54.5103L20.6855 48.3604V50.3172L31.8672 56.4671V54.5103Z" fill="white"/>
<path d="M33.8242 55.6289V57.8653L49.1991 66.5311V64.5743L33.8242 55.6289Z" fill="white"/>
<path d="M42.2109 65.6924V67.6492L45.0064 69.3264V67.0901L42.2109 65.6924Z" fill="white"/>
<path d="M41.373 56.7473L60.6615 67.929V65.9722L41.373 54.7905V56.7473Z" fill="white"/>
<path d="M51.4355 67.9287L60.6605 73.24V71.0037L51.4355 65.6924V67.9287Z" fill="white"/>
<path d="M47.2422 70.4444L60.6602 78.2715V76.0352L47.2422 68.208V70.4444Z" fill="white"/>
<path d="M64.8528 122.16L26.5554 99.7962C24.8782 98.6781 23.4805 99.5167 23.4805 101.473V120.482C23.4805 122.439 24.8782 124.955 26.5554 125.794L54.5097 142.007L63.1755 157.102V147.039L64.8528 148.157C66.53 149.275 67.9277 148.437 67.9277 146.48V127.471C67.9277 125.514 66.53 122.998 64.8528 122.16Z" fill="url(#paint14_linear)"/>
<path d="M40.2527 125.235L30.4688 119.644V121.88L40.2527 127.471V125.235Z" fill="white"/>
<path d="M39.1346 114.332L30.4688 109.58V111.537L39.1346 116.569V114.332Z" fill="white"/>
<path d="M33.5437 116.289L30.4688 114.611V116.848L33.5437 118.525V116.289Z" fill="white"/>
<path d="M35.7812 117.687V119.643L49.1993 127.471V125.234L35.7812 117.687Z" fill="white"/>
<path d="M42.209 126.353V128.589L45.0044 129.987V128.03L42.209 126.353Z" fill="white"/>
<path d="M41.3711 117.687L60.6595 128.869V126.632L41.3711 115.451V117.687Z" fill="white"/>
<path d="M51.4336 128.589L60.6585 133.9V131.944L51.4336 126.632V128.589Z" fill="white"/>
<path d="M47.2422 131.384L60.6602 139.211V136.975L47.2422 129.148V131.384Z" fill="white"/>
<path d="M27.3946 139.492L18.4492 134.46V136.697L27.3946 141.449V139.492Z" fill="white"/>
<path d="M21.8037 141.449L18.4492 139.771V141.728L21.8037 143.406V141.449Z" fill="white"/>
<path d="M23.7617 142.567V144.803L37.4593 152.351V150.394L23.7617 142.567Z" fill="white"/>
<path d="M29.3516 142.847L42.7696 150.395V148.438L29.3516 140.611V142.847Z" fill="white"/>
<path d="M39.4141 153.749L42.7686 155.706V153.469L39.4141 151.513V153.749Z" fill="white"/>
<defs>
<linearGradient id="paint0_linear" x1="-10.8452" y1="7.44361" x2="61.3352" y2="132.464" gradientUnits="userSpaceOnUse">
<stop offset="0.0555556" stop-color="#9F79B8"/>
<stop offset="0.2575" stop-color="#A17BBA"/>
<stop offset="0.3569" stop-color="#A783BF"/>
<stop offset="0.4338" stop-color="#B290C9"/>
<stop offset="0.4949" stop-color="#C1A1D5"/>
<stop offset="0.5067" stop-color="#C4A5D7"/>
<stop offset="0.5196" stop-color="#CDB3DD"/>
<stop offset="0.5329" stop-color="#DBC8E7"/>
<stop offset="0.5466" stop-color="#EFE7F4"/>
<stop offset="0.5556" stop-color="white"/>
<stop offset="0.5678" stop-color="#ECE0F3"/>
<stop offset="0.5801" stop-color="#DDC8EA"/>
<stop offset="0.5915" stop-color="#D4B9E5"/>
<stop offset="0.601" stop-color="#D1B4E3"/>
<stop offset="0.658" stop-color="#B395D6"/>
<stop offset="0.7155" stop-color="#9C7DCB"/>
<stop offset="0.7687" stop-color="#8E6EC5"/>
<stop offset="0.8131" stop-color="#8969C3"/>
<stop offset="1" stop-color="#B086CC"/>
</linearGradient>
<radialGradient id="paint1_radial" cx="0" cy="0" r="1" gradientUnits="userSpaceOnUse" gradientTransform="translate(77.5596 46.2493) scale(77.0917)">
<stop stop-color="#AF8AFC"/>
<stop offset="1" stop-color="#10054D"/>
</radialGradient>
<linearGradient id="paint2_linear" x1="88.2321" y1="208.202" x2="-24.0012" y2="-28.9489" gradientUnits="userSpaceOnUse">
<stop stop-color="#9F79C8"/>
<stop offset="0.1409" stop-color="#A27DCA"/>
<stop offset="0.2725" stop-color="#AC88CF"/>
<stop offset="0.4" stop-color="#BC9BD7"/>
<stop offset="0.5202" stop-color="#D1B4E3"/>
<stop offset="0.6493" stop-color="#DBC4E9"/>
<stop offset="0.8997" stop-color="#F4EDF8"/>
<stop offset="1" stop-color="white"/>
</linearGradient>
<linearGradient id="paint3_linear" x1="7.23012" y1="104.582" x2="75.197" y2="104.582" gradientUnits="userSpaceOnUse">
<stop stop-color="#25054D"/>
<stop offset="1" stop-color="#45108A"/>
</linearGradient>
<linearGradient id="paint4_linear" x1="139.733" y1="309.198" x2="-30.4289" y2="-44.2148" gradientUnits="userSpaceOnUse">
<stop stop-color="#2A0C5C"/>
<stop offset="0.6869" stop-color="#5F27BD"/>
<stop offset="1" stop-color="#B4299A"/>
</linearGradient>
<linearGradient id="paint5_linear" x1="74.5571" y1="210.784" x2="7.15038" y2="-11.5345" gradientUnits="userSpaceOnUse">
<stop offset="0.030303" stop-color="#7C1DC9"/>
<stop offset="0.2138" stop-color="#6E41D2"/>
<stop offset="0.6184" stop-color="#4C9BE8"/>
<stop offset="1" stop-color="#2AF6FF"/>
</linearGradient>
<linearGradient id="paint6_linear" x1="84.9469" y1="73.5644" x2="91.0268" y2="84.0948" gradientUnits="userSpaceOnUse">
<stop stop-color="#311B61"/>
<stop offset="0.2031" stop-color="#290F52"/>
<stop offset="0.4949" stop-color="#200041"/>
<stop offset="1" stop-color="#0F001F"/>
</linearGradient>
<linearGradient id="paint7_linear" x1="85.0384" y1="82.4741" x2="76.6524" y2="82.1135" gradientUnits="userSpaceOnUse">
<stop stop-color="#3D065F"/>
<stop offset="1" stop-color="#5F27BD"/>
</linearGradient>
<radialGradient id="paint8_radial" cx="0" cy="0" r="1" gradientUnits="userSpaceOnUse" gradientTransform="translate(80.8198 78.8962) scale(4.92469)">
<stop stop-color="#711F56"/>
<stop offset="0.1614" stop-color="#6C1E52"/>
<stop offset="0.3626" stop-color="#5C1946"/>
<stop offset="0.5849" stop-color="#431233"/>
<stop offset="0.8208" stop-color="#200918"/>
<stop offset="1"/>
</radialGradient>
<linearGradient id="paint9_linear" x1="42.2618" y1="194.758" x2="35.9002" y2="183.737" gradientUnits="userSpaceOnUse">
<stop offset="0.2879" stop-color="#838091"/>
<stop offset="0.4656" stop-color="#A5A2B1"/>
<stop offset="0.5859" stop-color="#B7B4C2"/>
<stop offset="0.8081" stop-color="#9B98A7"/>
</linearGradient>
<linearGradient id="paint10_linear" x1="35.7933" y1="193.882" x2="41.4143" y2="184.192" gradientUnits="userSpaceOnUse">
<stop offset="0.0353535" stop-color="#9D9EB3"/>
<stop offset="0.5808" stop-color="#D4D1D8"/>
<stop offset="1" stop-color="#EEEBF2"/>
</linearGradient>
<linearGradient id="paint11_linear" x1="9.7855" y1="64.2342" x2="65.8841" y2="136.219" gradientUnits="userSpaceOnUse">
<stop stop-color="#7C1DC9"/>
<stop offset="0.1472" stop-color="#6C19B3"/>
<stop offset="0.5437" stop-color="#460E7C"/>
<stop offset="0.8398" stop-color="#2E075A"/>
<stop offset="1" stop-color="#25054D"/>
</linearGradient>
<linearGradient id="paint12_linear" x1="10.6108" y1="122.358" x2="77.0366" y2="207.595" gradientUnits="userSpaceOnUse">
<stop stop-color="#7C1DC9"/>
<stop offset="0.1472" stop-color="#6C19B3"/>
<stop offset="0.5437" stop-color="#460E7C"/>
<stop offset="0.8398" stop-color="#2E075A"/>
<stop offset="1" stop-color="#25054D"/>
</linearGradient>
<linearGradient id="paint13_linear" x1="10.18" y1="27.8337" x2="89.212" y2="112.27" gradientUnits="userSpaceOnUse">
<stop stop-color="#7C1DC9"/>
<stop offset="0.1472" stop-color="#6C19B3"/>
<stop offset="0.5437" stop-color="#460E7C"/>
<stop offset="0.8398" stop-color="#2E075A"/>
<stop offset="1" stop-color="#25054D"/>
</linearGradient>
<linearGradient id="paint14_linear" x1="19.4184" y1="96.0238" x2="87.761" y2="169.039" gradientUnits="userSpaceOnUse">
<stop stop-color="#7C1DC9"/>
<stop offset="0.1472" stop-color="#6C19B3"/>
<stop offset="0.5437" stop-color="#460E7C"/>
<stop offset="0.8398" stop-color="#2E075A"/>
<stop offset="1" stop-color="#25054D"/>
</linearGradient>
</defs>
</svg>
