<svg width="97" height="30" viewBox="0 0 97 30" fill="none" xmlns="http://www.w3.org/2000/svg">
<path d="M14.6186 24.9792C13.481 24.9792 12.3033 24.9167 11.1056 24.8543C10.7487 24.8364 10.3896 24.8164 10.026 24.7985L8.17249 24.7093V5.19926L10.0639 5.14572C14.6364 5.01859 19.3628 4.88699 22.3584 7.82677C24.1182 9.55316 24.9591 12.0245 24.9279 15.3792L24.9256 15.4595C24.7539 18.832 23.8238 21.2342 22.0818 22.8067C20.1145 24.5844 17.5004 24.9792 14.6186 24.9792ZM12.0647 21.0067C15.2922 21.1673 18.0379 21.2119 19.4743 19.9182C20.4045 19.0773 20.9152 17.5695 21.0357 15.3033C21.0491 13.084 20.5918 11.5472 19.6305 10.6059C18.1204 9.12268 15.174 8.95093 12.0647 8.99331V21.0067ZM5.40892 13.2669H15.7026V16.8625H5.40892V13.2669ZM14.9152 30C6.69145 30 0 23.2706 0 15C0 6.72937 6.69145 0 14.9152 0C23.139 0 29.8305 6.72937 29.8305 15C29.8305 23.2706 23.1368 30 14.9152 30ZM14.9152 1.07063C7.2803 1.07063 1.07063 7.31822 1.07063 15C1.07063 22.6796 7.2803 28.9294 14.913 28.9294C22.5457 28.9294 28.7554 22.6818 28.7554 15C28.7576 7.31822 22.548 1.07063 14.9152 1.07063Z" fill="#FFB600"/>
<path d="M37.2598 10.6H40.7998C41.6878 10.6 42.4758 10.776 43.1638 11.128C43.8518 11.48 44.3838 11.976 44.7598 12.616C45.1438 13.248 45.3358 13.976 45.3358 14.8C45.3358 15.624 45.1438 16.356 44.7598 16.996C44.3838 17.628 43.8518 18.12 43.1638 18.472C42.4758 18.824 41.6878 19 40.7998 19H37.2598V10.6ZM40.7278 17.956C41.4078 17.956 42.0038 17.824 42.5158 17.56C43.0358 17.296 43.4358 16.928 43.7158 16.456C43.9958 15.976 44.1358 15.424 44.1358 14.8C44.1358 14.176 43.9958 13.628 43.7158 13.156C43.4358 12.676 43.0358 12.304 42.5158 12.04C42.0038 11.776 41.4078 11.644 40.7278 11.644H38.4598V17.956H40.7278Z" fill="#4D4D4D"/>
<path d="M49.7298 19.072C49.0978 19.072 48.5298 18.932 48.0258 18.652C47.5218 18.372 47.1258 17.988 46.8378 17.5C46.5578 17.004 46.4178 16.444 46.4178 15.82C46.4178 15.196 46.5578 14.64 46.8378 14.152C47.1258 13.656 47.5218 13.272 48.0258 13C48.5298 12.72 49.0978 12.58 49.7298 12.58C50.3618 12.58 50.9258 12.72 51.4218 13C51.9258 13.272 52.3178 13.656 52.5978 14.152C52.8858 14.64 53.0298 15.196 53.0298 15.82C53.0298 16.444 52.8858 17.004 52.5978 17.5C52.3178 17.988 51.9258 18.372 51.4218 18.652C50.9258 18.932 50.3618 19.072 49.7298 19.072ZM49.7298 18.064C50.1378 18.064 50.5018 17.972 50.8218 17.788C51.1498 17.596 51.4058 17.332 51.5898 16.996C51.7738 16.652 51.8658 16.26 51.8658 15.82C51.8658 15.38 51.7738 14.992 51.5898 14.656C51.4058 14.312 51.1498 14.048 50.8218 13.864C50.5018 13.68 50.1378 13.588 49.7298 13.588C49.3218 13.588 48.9538 13.68 48.6258 13.864C48.3058 14.048 48.0498 14.312 47.8578 14.656C47.6738 14.992 47.5818 15.38 47.5818 15.82C47.5818 16.26 47.6738 16.652 47.8578 16.996C48.0498 17.332 48.3058 17.596 48.6258 17.788C48.9538 17.972 49.3218 18.064 49.7298 18.064Z" fill="#4D4D4D"/>
<path d="M60.707 12.64V18.136C60.707 19.248 60.431 20.068 59.879 20.596C59.327 21.132 58.503 21.4 57.407 21.4C56.807 21.4 56.235 21.316 55.691 21.148C55.147 20.988 54.707 20.756 54.371 20.452L54.923 19.564C55.219 19.82 55.583 20.02 56.015 20.164C56.455 20.316 56.907 20.392 57.371 20.392C58.115 20.392 58.663 20.216 59.015 19.864C59.375 19.512 59.555 18.976 59.555 18.256V17.752C59.283 18.08 58.947 18.328 58.547 18.496C58.155 18.656 57.727 18.736 57.263 18.736C56.655 18.736 56.103 18.608 55.607 18.352C55.119 18.088 54.735 17.724 54.455 17.26C54.175 16.788 54.035 16.252 54.035 15.652C54.035 15.052 54.175 14.52 54.455 14.056C54.735 13.584 55.119 13.22 55.607 12.964C56.103 12.708 56.655 12.58 57.263 12.58C57.743 12.58 58.187 12.668 58.595 12.844C59.011 13.02 59.351 13.28 59.615 13.624V12.64H60.707ZM57.395 17.728C57.811 17.728 58.183 17.64 58.511 17.464C58.847 17.288 59.107 17.044 59.291 16.732C59.483 16.412 59.579 16.052 59.579 15.652C59.579 15.036 59.375 14.54 58.967 14.164C58.559 13.78 58.035 13.588 57.395 13.588C56.747 13.588 56.219 13.78 55.811 14.164C55.403 14.54 55.199 15.036 55.199 15.652C55.199 16.052 55.291 16.412 55.475 16.732C55.667 17.044 55.927 17.288 56.255 17.464C56.591 17.64 56.971 17.728 57.395 17.728Z" fill="#4D4D4D"/>
<path d="M68.6562 15.856C68.6562 15.944 68.6482 16.06 68.6322 16.204H63.4722C63.5442 16.764 63.7882 17.216 64.2042 17.56C64.6282 17.896 65.1522 18.064 65.7762 18.064C66.5362 18.064 67.1482 17.808 67.6122 17.296L68.2482 18.04C67.9602 18.376 67.6002 18.632 67.1682 18.808C66.7442 18.984 66.2682 19.072 65.7402 19.072C65.0682 19.072 64.4722 18.936 63.9522 18.664C63.4322 18.384 63.0282 17.996 62.7402 17.5C62.4602 17.004 62.3202 16.444 62.3202 15.82C62.3202 15.204 62.4562 14.648 62.7282 14.152C63.0082 13.656 63.3882 13.272 63.8682 13C64.3562 12.72 64.9042 12.58 65.5122 12.58C66.1202 12.58 66.6602 12.72 67.1322 13C67.6122 13.272 67.9842 13.656 68.2482 14.152C68.5202 14.648 68.6562 15.216 68.6562 15.856ZM65.5122 13.552C64.9602 13.552 64.4962 13.72 64.1202 14.056C63.7522 14.392 63.5362 14.832 63.4722 15.376H67.5522C67.4882 14.84 67.2682 14.404 66.8922 14.068C66.5242 13.724 66.0642 13.552 65.5122 13.552Z" fill="#4D4D4D"/>
<path d="M74.1798 19.096C73.3398 19.096 72.5798 18.912 71.8998 18.544C71.2278 18.168 70.6998 17.656 70.3158 17.008C69.9318 16.352 69.7398 15.616 69.7398 14.8C69.7398 13.984 69.9318 13.252 70.3158 12.604C70.6998 11.948 71.2318 11.436 71.9118 11.068C72.5918 10.692 73.3518 10.504 74.1918 10.504C74.8478 10.504 75.4478 10.616 75.9918 10.84C76.5358 11.056 76.9998 11.38 77.3838 11.812L76.6038 12.568C75.9718 11.904 75.1838 11.572 74.2398 11.572C73.6158 11.572 73.0518 11.712 72.5478 11.992C72.0438 12.272 71.6478 12.66 71.3598 13.156C71.0798 13.644 70.9398 14.192 70.9398 14.8C70.9398 15.408 71.0798 15.96 71.3598 16.456C71.6478 16.944 72.0438 17.328 72.5478 17.608C73.0518 17.888 73.6158 18.028 74.2398 18.028C75.1758 18.028 75.9638 17.692 76.6038 17.02L77.3838 17.776C76.9998 18.208 76.5318 18.536 75.9798 18.76C75.4358 18.984 74.8358 19.096 74.1798 19.096Z" fill="#4D4D4D"/>
<path d="M81.3822 19.072C80.7502 19.072 80.1822 18.932 79.6782 18.652C79.1742 18.372 78.7782 17.988 78.4902 17.5C78.2102 17.004 78.0702 16.444 78.0702 15.82C78.0702 15.196 78.2102 14.64 78.4902 14.152C78.7782 13.656 79.1742 13.272 79.6782 13C80.1822 12.72 80.7502 12.58 81.3822 12.58C82.0142 12.58 82.5782 12.72 83.0742 13C83.5782 13.272 83.9702 13.656 84.2502 14.152C84.5382 14.64 84.6822 15.196 84.6822 15.82C84.6822 16.444 84.5382 17.004 84.2502 17.5C83.9702 17.988 83.5782 18.372 83.0742 18.652C82.5782 18.932 82.0142 19.072 81.3822 19.072ZM81.3822 18.064C81.7902 18.064 82.1542 17.972 82.4742 17.788C82.8022 17.596 83.0582 17.332 83.2422 16.996C83.4262 16.652 83.5182 16.26 83.5182 15.82C83.5182 15.38 83.4262 14.992 83.2422 14.656C83.0582 14.312 82.8022 14.048 82.4742 13.864C82.1542 13.68 81.7902 13.588 81.3822 13.588C80.9742 13.588 80.6062 13.68 80.2782 13.864C79.9582 14.048 79.7022 14.312 79.5102 14.656C79.3262 14.992 79.2342 15.38 79.2342 15.82C79.2342 16.26 79.3262 16.652 79.5102 16.996C79.7022 17.332 79.9582 17.596 80.2782 17.788C80.6062 17.972 80.9742 18.064 81.3822 18.064Z" fill="#4D4D4D"/>
<path d="M86.2754 12.64H87.4274V19H86.2754V12.64ZM86.8514 11.416C86.6274 11.416 86.4394 11.344 86.2874 11.2C86.1434 11.056 86.0714 10.88 86.0714 10.672C86.0714 10.464 86.1434 10.288 86.2874 10.144C86.4394 9.99202 86.6274 9.91602 86.8514 9.91602C87.0754 9.91602 87.2594 9.98802 87.4034 10.132C87.5554 10.268 87.6314 10.44 87.6314 10.648C87.6314 10.864 87.5554 11.048 87.4034 11.2C87.2594 11.344 87.0754 11.416 86.8514 11.416Z" fill="#4D4D4D"/>
<path d="M93.0229 12.58C93.8309 12.58 94.4709 12.816 94.9429 13.288C95.4229 13.752 95.6629 14.436 95.6629 15.34V19H94.5109V15.472C94.5109 14.856 94.3629 14.392 94.0669 14.08C93.7709 13.768 93.3469 13.612 92.7949 13.612C92.1709 13.612 91.6789 13.796 91.3189 14.164C90.9589 14.524 90.7789 15.044 90.7789 15.724V19H89.6269V12.64H90.7309V13.6C90.9629 13.272 91.2749 13.02 91.6669 12.844C92.0669 12.668 92.5189 12.58 93.0229 12.58Z" fill="#4D4D4D"/>
</svg>
