<svg width="95" height="30" viewBox="0 0 95 30" fill="none" xmlns="http://www.w3.org/2000/svg">
<path d="M13.712 27.8038C20.6285 27.8038 26.2355 22.1968 26.2355 15.2803C26.2355 8.36379 20.6285 2.75684 13.712 2.75684C6.79543 2.75684 1.18848 8.36379 1.18848 15.2803C1.18848 22.1968 6.79543 27.8038 13.712 27.8038Z" fill="#26A17B"/>
<path d="M15.0462 16.4361V16.4341C14.9596 16.4402 14.5126 16.4663 13.518 16.4663C12.7227 16.4663 12.1649 16.4442 11.9676 16.4341V16.4361C8.90924 16.3012 6.62803 15.7697 6.62803 15.1314C6.62803 14.4952 8.91125 13.9616 11.9676 13.8267V15.9066C12.167 15.9207 12.7408 15.9549 13.5321 15.9549C14.4824 15.9549 14.9576 15.9147 15.0462 15.9066V13.8288C18.0985 13.9657 20.3737 14.4972 20.3737 15.1335C20.3737 15.7697 18.0965 16.3012 15.0462 16.4381V16.4361ZM15.0462 13.6133V11.7529H19.3045V8.91602H7.71125V11.7529H11.9696V13.6133C8.50857 13.7724 5.90723 14.4569 5.90723 15.2784C5.90723 16.0999 8.51058 16.7845 11.9696 16.9455V22.9093H15.0482V16.9455C18.5032 16.7865 21.1005 16.1019 21.1005 15.2804C21.1005 14.461 18.5032 13.7744 15.0482 13.6153" fill="white"/>
<path d="M36.872 9.69144V12.6995H39.7955V14.9565H36.8519V19.533C36.8519 20.5438 37.4096 21.0371 38.2271 21.0371C38.6358 21.0371 39.1089 20.9082 39.4955 20.7149L40.2264 22.9498C39.4754 23.2498 38.8512 23.3787 38.0559 23.4008C35.7566 23.4874 34.2526 22.1767 34.2526 19.533V14.9565H32.2754V12.6995H34.2526V9.9713L36.872 9.69144ZM87.274 12.5585L87.4673 13.7827C88.2848 12.472 89.3801 12.2787 90.4552 12.2787C91.5506 12.2787 92.6036 12.7075 93.1834 13.2874L92.0016 15.5646C91.464 15.1136 90.9707 14.876 90.111 14.876C88.7358 14.876 87.4673 15.6069 87.4673 17.5619V23.1491H84.8459V12.5545L87.274 12.5585ZM80.8492 16.6196C80.6781 15.2445 79.6029 14.5559 78.0989 14.5559C76.6814 14.5559 75.5197 15.2445 75.1331 16.6196H80.8492ZM75.0908 18.7901C75.262 20.1008 76.4016 21.0471 78.2499 21.0471C79.2163 21.0471 80.4848 20.6807 81.0868 20.0585L82.762 21.7136C81.6445 22.8733 79.8183 23.433 78.2056 23.433C74.5532 23.433 72.3808 21.176 72.3808 17.7814C72.3808 14.5579 74.5734 12.2364 78.0123 12.2364C81.5579 12.2364 83.7727 14.429 83.364 18.7901H75.0908ZM63.5298 8.10889V13.9961C64.4761 12.772 65.6358 12.4055 66.8398 12.4055C69.8479 12.4055 71.1808 14.4471 71.1808 17.5639V23.1512H68.5593V17.5861C68.5593 15.6512 67.5485 14.8357 66.1512 14.8357C64.6029 14.8357 63.5298 16.1465 63.5298 17.7371V23.1532H60.9083V8.1109L63.5298 8.10889ZM56.5673 9.57063V12.5787H59.4908V14.8357H56.5472V19.4122C56.5472 20.423 57.1069 20.9163 57.9224 20.9163C58.3311 20.9163 58.8042 20.7874 59.1908 20.5941L59.9217 22.829C59.1707 23.129 58.5465 23.2579 57.7512 23.28C55.4519 23.3666 53.9479 22.0538 53.9479 19.4122V14.8357H51.9707V12.5787H53.9479V9.8505L56.5673 9.57063ZM49.3251 16.6196C49.1539 15.2445 48.0787 14.5559 46.5747 14.5559C45.1573 14.5559 43.9955 15.2445 43.6089 16.6196H49.3251ZM43.5667 18.7901C43.7378 20.1008 44.8774 21.0471 46.7257 21.0471C47.6922 21.0471 48.9606 20.6807 49.5626 20.0585L51.2378 21.7136C50.1204 22.8733 48.2942 23.433 46.6814 23.433C43.0271 23.433 40.8566 21.176 40.8566 17.7814C40.8566 14.5579 43.0492 12.2364 46.4861 12.2364C50.0318 12.2364 52.2445 14.429 51.8378 18.7901H43.5667Z" fill="#5B5A5D"/>
</svg>
