<svg width="95" height="30" viewBox="0 0 95 30" fill="none" xmlns="http://www.w3.org/2000/svg">
<path d="M13.712 27.8048C20.6285 27.8048 26.2355 22.1978 26.2355 15.2813C26.2355 8.36476 20.6285 2.75781 13.712 2.75781C6.79543 2.75781 1.18848 8.36476 1.18848 15.2813C1.18848 22.1978 6.79543 27.8048 13.712 27.8048Z" fill="#26A17B"/>
<path d="M15.0462 16.4361V16.4341C14.9596 16.4402 14.5126 16.4663 13.518 16.4663C12.7227 16.4663 12.1649 16.4442 11.9676 16.4341V16.4361C8.90924 16.3012 6.62803 15.7697 6.62803 15.1314C6.62803 14.4952 8.91125 13.9616 11.9676 13.8267V15.9066C12.167 15.9207 12.7408 15.9549 13.5321 15.9549C14.4824 15.9549 14.9576 15.9147 15.0462 15.9066V13.8288C18.0985 13.9657 20.3737 14.4972 20.3737 15.1335C20.3737 15.7697 18.0965 16.3012 15.0462 16.4381V16.4361ZM15.0462 13.6133V11.7529H19.3045V8.91602H7.71125V11.7529H11.9696V13.6133C8.50857 13.7724 5.90723 14.4569 5.90723 15.2784C5.90723 16.0999 8.51058 16.7845 11.9696 16.9455V22.9093H15.0482V16.9455C18.5032 16.7865 21.1005 16.1019 21.1005 15.2804C21.1005 14.461 18.5032 13.7744 15.0482 13.6153" fill="white"/>
<path d="M36.872 9.69192V12.7H39.7955V14.957H36.8519V19.5335C36.8519 20.5443 37.4096 21.0376 38.2271 21.0376C38.6358 21.0376 39.1089 20.9087 39.4955 20.7154L40.2264 22.9503C39.4754 23.2503 38.8512 23.3792 38.0559 23.4013C35.7566 23.4879 34.2526 22.1772 34.2526 19.5335V14.957H32.2754V12.7H34.2526V9.97179L36.872 9.69192ZM87.274 12.559L87.4673 13.7832C88.2848 12.4725 89.3801 12.2792 90.4552 12.2792C91.5506 12.2792 92.6036 12.708 93.1834 13.2879L92.0016 15.5651C91.464 15.1141 90.9707 14.8765 90.111 14.8765C88.7358 14.8765 87.4673 15.6074 87.4673 17.5624V23.1496H84.8459V12.555L87.274 12.559ZM80.8492 16.6201C80.6781 15.2449 79.6029 14.5564 78.0989 14.5564C76.6814 14.5564 75.5197 15.2449 75.1331 16.6201H80.8492ZM75.0908 18.7906C75.262 20.1013 76.4016 21.0476 78.2499 21.0476C79.2163 21.0476 80.4848 20.6812 81.0868 20.059L82.762 21.7141C81.6445 22.8738 79.8183 23.4335 78.2056 23.4335C74.5532 23.4335 72.3808 21.1765 72.3808 17.7819C72.3808 14.5584 74.5734 12.2369 78.0123 12.2369C81.5579 12.2369 83.7727 14.4295 83.364 18.7906H75.0908ZM63.5298 8.10938V13.9966C64.4761 12.7725 65.6358 12.406 66.8398 12.406C69.8479 12.406 71.1808 14.4476 71.1808 17.5644V23.1516H68.5593V17.5865C68.5593 15.6517 67.5485 14.8362 66.1512 14.8362C64.6029 14.8362 63.5298 16.147 63.5298 17.7376V23.1537H60.9083V8.11139L63.5298 8.10938ZM56.5673 9.57112V12.5792H59.4908V14.8362H56.5472V19.4127C56.5472 20.4235 57.1069 20.9167 57.9224 20.9167C58.3311 20.9167 58.8042 20.7879 59.1908 20.5946L59.9217 22.8295C59.1707 23.1295 58.5465 23.2584 57.7512 23.2805C55.4519 23.3671 53.9479 22.0543 53.9479 19.4127V14.8362H51.9707V12.5792H53.9479V9.85098L56.5673 9.57112ZM49.3251 16.6201C49.1539 15.2449 48.0787 14.5564 46.5747 14.5564C45.1573 14.5564 43.9955 15.2449 43.6089 16.6201H49.3251ZM43.5667 18.7906C43.7378 20.1013 44.8774 21.0476 46.7257 21.0476C47.6922 21.0476 48.9606 20.6812 49.5626 20.059L51.2378 21.7141C50.1204 22.8738 48.2942 23.4335 46.6814 23.4335C43.0271 23.4335 40.8566 21.1765 40.8566 17.7819C40.8566 14.5584 43.0492 12.2369 46.4861 12.2369C50.0318 12.2369 52.2445 14.4295 51.8378 18.7906H43.5667Z" fill="white"/>
</svg>
