<svg width="151" height="30" viewBox="0 0 151 30" fill="none" xmlns="http://www.w3.org/2000/svg">
<g clip-path="url(#clip0)">
<path d="M41.2875 23.7798C40.4244 23.7798 39.5577 23.7547 38.7054 23.6974C37.8065 23.6365 36.9112 23.5112 36.0303 23.325V8.03326C36.7537 7.89359 37.5594 7.80048 38.4261 7.72885C39.2892 7.65723 40.0949 7.625 40.8434 7.625C41.8497 7.625 42.7701 7.69662 43.6117 7.84703C44.4532 7.9867 45.1766 8.2338 45.7854 8.58118C46.3942 8.93214 46.8705 9.38695 47.2108 9.95994C47.551 10.5329 47.7264 11.2348 47.7264 12.0621C47.7264 13.3227 47.1176 14.3147 45.9036 15.0417C46.9099 15.4141 47.5868 15.9405 47.9485 16.5851C48.3102 17.2405 48.4964 17.9746 48.4964 18.7912C48.4964 20.4493 47.8876 21.6883 46.6843 22.5192C45.4596 23.3715 43.6725 23.7798 41.2875 23.7798ZM39.4897 14.0031H41.2194C42.3189 14.0031 43.0888 13.8634 43.5687 13.5841C44.0342 13.3048 44.2706 12.85 44.2706 12.2304C44.2706 11.5894 44.0271 11.1453 43.5472 10.8875C43.0566 10.6296 42.3439 10.5007 41.4092 10.5007C41.1048 10.5007 40.7789 10.5007 40.428 10.5114C40.077 10.5222 39.7726 10.5365 39.4933 10.5687C39.4897 10.5687 39.4897 14.0031 39.4897 14.0031ZM39.4897 16.7141V20.7895C39.7476 20.8253 40.0269 20.8468 40.3313 20.8611C40.6357 20.8754 40.9723 20.8862 41.3376 20.8862C42.4012 20.8862 43.2535 20.7357 43.9089 20.4313C44.5643 20.1269 44.8901 19.5683 44.8901 18.7482C44.8901 18.0248 44.6216 17.4984 44.0736 17.1939C43.5257 16.8788 42.7414 16.7284 41.7244 16.7284H39.4933V16.7141H39.4897Z" fill="white"/>
<path d="M53.5526 8.15183C53.5526 8.77138 53.3556 9.26201 52.9438 9.62371C52.5463 9.98541 52.0664 10.1609 51.5185 10.1609C50.9921 10.1681 50.4835 9.97825 50.0932 9.62371C49.6957 9.26201 49.4844 8.78212 49.4844 8.15183C49.4844 7.53228 49.6813 7.04166 50.0932 6.67995C50.4835 6.329 50.9921 6.13561 51.5185 6.14277C52.0449 6.13561 52.5535 6.32542 52.9438 6.67995C53.3521 7.04166 53.5526 7.53228 53.5526 8.15183ZM53.2267 23.5833H49.8389V11.6077H53.2267V23.5833Z" fill="white"/>
<path d="M55.0486 8.628L58.4364 8.08008V11.6075H62.5118V14.4331H58.4364V18.6374C58.4364 19.35 58.5653 19.923 58.8088 20.342C59.0524 20.761 59.5681 20.9831 60.3273 20.9831C60.7033 20.9795 61.0793 20.9472 61.4482 20.8792C61.8099 20.8147 62.1644 20.7216 62.5118 20.5999L62.9916 23.2392C62.5476 23.4183 62.0892 23.5651 61.6236 23.6725C61.1223 23.7907 60.5135 23.8587 59.7793 23.8587C58.8554 23.8587 58.0855 23.7298 57.4767 23.4863C56.8679 23.2428 56.3772 22.8918 56.0155 22.4334C55.6538 21.9894 55.396 21.4414 55.2563 20.8112C55.1059 20.1164 55.0307 19.4073 55.0343 18.6983V8.628H55.0486Z" fill="white"/>
<path d="M62.9915 17.5985C62.9843 16.7676 63.1275 15.9404 63.4105 15.1561C63.6755 14.4148 64.0873 13.7344 64.6244 13.1578C65.1509 12.5848 65.8026 12.1407 66.5618 11.8041C67.321 11.4639 68.184 11.3027 69.1545 11.3027C69.7955 11.3027 70.3792 11.36 70.9057 11.4782C71.4357 11.5928 71.9513 11.7575 72.4491 11.9688L71.7472 14.6798C71.4034 14.5545 71.0525 14.447 70.6944 14.3647C70.2754 14.268 69.8492 14.2214 69.4195 14.225C68.4132 14.225 67.6684 14.5401 67.1778 15.1597C66.6871 15.7792 66.4436 16.5957 66.4436 17.6128C66.4436 18.6872 66.6764 19.5287 67.1312 20.1125C67.5967 20.7069 68.4061 21.0006 69.5484 21.0006C69.9925 21.0006 70.433 20.9612 70.8699 20.8824C71.3139 20.8144 71.7508 20.6926 72.1662 20.5207L72.6461 23.2997C72.1662 23.4931 71.672 23.6364 71.1635 23.7331C70.5153 23.8584 69.86 23.9229 69.2011 23.9193C68.1017 23.9193 67.167 23.7545 66.3756 23.4287C65.5806 23.1028 64.9396 22.6587 64.4239 22.0965C63.9082 21.5342 63.5465 20.8717 63.3138 20.1089C63.0989 19.2888 62.9915 18.4472 62.9915 17.5985Z" fill="white"/>
<path d="M84.3232 17.577C84.3232 18.5224 84.1835 19.3747 83.915 20.159C83.6464 20.9433 83.2489 21.6058 82.7368 22.1573C82.214 22.7124 81.5801 23.1493 80.8783 23.443C80.1513 23.7474 79.3492 23.8978 78.4611 23.8978C77.5837 23.8978 76.778 23.7474 76.0546 23.443C75.3492 23.1529 74.7189 22.7124 74.1961 22.1573C73.6804 21.6094 73.2722 20.9326 72.9929 20.159C72.6992 19.3747 72.5596 18.5117 72.5596 17.577C72.5596 16.6315 72.71 15.7792 73.0036 15.0057C73.2973 14.2357 73.7055 13.5696 74.2283 13.0325C74.7583 12.4845 75.3922 12.0476 76.0976 11.7575C76.821 11.4531 77.6052 11.3027 78.4575 11.3027C79.3205 11.3027 80.1155 11.4531 80.8389 11.7575C81.5622 12.0619 82.1818 12.4809 82.6974 13.0325C83.2274 13.6019 83.6392 14.2715 83.9006 15.0057C84.1728 15.7792 84.3232 16.6315 84.3232 17.577ZM80.8675 17.577C80.8675 16.5241 80.6562 15.7076 80.2373 15.1131C79.8183 14.5186 79.2203 14.2142 78.4503 14.2142C77.6804 14.2142 77.0716 14.5186 76.6527 15.1131C76.2337 15.7076 76.0117 16.5384 76.0117 17.577C76.0117 18.6299 76.2229 19.4571 76.6527 20.0659C77.0716 20.6855 77.6804 20.9899 78.4503 20.9899C79.2203 20.9899 79.8183 20.6855 80.2373 20.0659C80.6562 19.4464 80.8675 18.6155 80.8675 17.577Z" fill="white"/>
<path d="M89.3944 8.15183C89.3944 8.77138 89.1974 9.26201 88.7856 9.62371C88.3881 9.98541 87.9082 10.1609 87.3603 10.1609C86.8339 10.1681 86.3253 9.97825 85.935 9.62371C85.5375 9.26201 85.3262 8.78212 85.3262 8.15183C85.3262 7.53228 85.5231 7.04166 85.935 6.67995C86.3253 6.329 86.8339 6.13561 87.3603 6.14277C87.8867 6.13561 88.3953 6.32542 88.7856 6.67995C89.1939 7.04166 89.3944 7.53228 89.3944 8.15183ZM89.0793 23.5833H85.6915V11.6077H89.0793V23.5833Z" fill="white"/>
<path d="M91.0059 12.0157C91.5788 11.851 92.3273 11.6898 93.2369 11.5502C94.1824 11.4033 95.1386 11.3281 96.0983 11.3281C97.1154 11.3281 97.957 11.457 98.6338 11.7256C99.3106 11.9942 99.8478 12.3667 100.235 12.8466C100.632 13.3372 100.911 13.9102 101.076 14.5763C101.241 15.2424 101.32 15.9908 101.32 16.8074V23.5722H97.9319V17.2156C97.9319 16.1162 97.7922 15.3462 97.4986 14.8914C97.2049 14.4366 96.6677 14.2146 95.887 14.2146C95.6435 14.2146 95.3857 14.2253 95.1171 14.2504C94.8485 14.2754 94.6014 14.2969 94.3937 14.3327V23.5722H91.0059V12.0157Z" fill="white"/>
<path d="M110.581 23.8979C108.01 23.8979 106.062 23.1852 104.719 21.7599C103.376 20.3346 102.71 18.3148 102.71 15.6863C102.71 14.3791 102.921 13.2224 103.33 12.1946C103.738 11.1668 104.3 10.3037 105.013 9.60183C105.736 8.89276 106.606 8.34484 107.559 8.00105C108.54 7.63935 109.615 7.45312 110.771 7.45312C111.437 7.45312 112.046 7.49968 112.594 7.60353C113.081 7.68232 113.561 7.79692 114.03 7.94375C114.381 8.05118 114.725 8.18369 115.058 8.34126C115.327 8.48092 115.523 8.58478 115.652 8.6564L114.625 11.5178C114.084 11.2384 113.518 11.02 112.931 10.8624C112.29 10.6762 111.552 10.5938 110.735 10.5938C110.191 10.5938 109.65 10.6869 109.135 10.8624C108.612 11.0486 108.139 11.3494 107.745 11.7398C107.348 12.1373 107.022 12.6637 106.775 13.294C106.531 13.9351 106.413 14.7086 106.413 15.6182C106.409 16.3022 106.488 16.9862 106.646 17.6523C106.81 18.2826 107.065 18.8198 107.416 19.2746C107.788 19.7437 108.268 20.1162 108.816 20.3597C109.389 20.6283 110.091 20.7572 110.907 20.7572C111.373 20.7572 111.835 20.7286 112.297 20.6641C112.669 20.614 113.035 20.5423 113.396 20.4421C113.683 20.3704 113.966 20.2773 114.238 20.1627C114.481 20.0589 114.703 19.9514 114.893 19.8691L115.874 22.7197C115.373 23.0241 114.671 23.2927 113.762 23.5362C112.834 23.7797 111.774 23.8979 110.581 23.8979Z" fill="#0AC18E"/>
<path d="M121.19 11.291C122.196 11.291 123.024 11.4092 123.69 11.6312C124.356 11.8533 124.893 12.1792 125.291 12.6125C125.699 13.0494 125.989 13.5794 126.143 14.156C126.308 14.7648 126.386 15.4416 126.386 16.1758V23.2307C125.896 23.3346 125.23 23.4635 124.367 23.6032C123.504 23.7428 122.451 23.8252 121.226 23.8252C120.456 23.8252 119.754 23.7536 119.124 23.6139C118.493 23.4742 117.956 23.2522 117.501 22.9478C117.05 22.6398 116.689 22.2244 116.449 21.7338C116.205 21.2324 116.087 20.6236 116.087 19.8895C116.087 19.1875 116.227 18.6038 116.506 18.1132C116.771 17.6369 117.158 17.2394 117.627 16.9565C118.092 16.6628 118.633 16.4551 119.238 16.3262C119.861 16.1937 120.495 16.1292 121.129 16.1292C121.573 16.1292 121.96 16.1543 122.297 16.1865C122.637 16.2223 122.916 16.2689 123.128 16.3369V16.0218C123.128 15.4488 122.952 14.9832 122.601 14.6323C122.25 14.2813 121.645 14.1058 120.778 14.1058C120.209 14.1058 119.639 14.1488 119.074 14.2348C118.511 14.3171 118.021 14.4317 117.613 14.5857L117.179 11.8533C117.376 11.796 117.623 11.7243 117.913 11.6563C118.207 11.5847 118.533 11.5274 118.884 11.4701C119.235 11.4128 119.596 11.377 119.983 11.3304C120.395 11.3161 120.793 11.291 121.19 11.291ZM121.459 21.2073C121.799 21.2073 122.114 21.1966 122.415 21.1823C122.658 21.1787 122.898 21.1536 123.138 21.1106V18.5394C122.999 18.5035 122.798 18.4821 122.519 18.4462C122.272 18.414 122.021 18.3997 121.77 18.3997C121.469 18.4033 121.169 18.4212 120.871 18.457C120.592 18.4928 120.345 18.5608 120.137 18.679C119.933 18.7757 119.761 18.9261 119.636 19.1123C119.511 19.3165 119.446 19.5492 119.45 19.7892C119.45 20.3156 119.625 20.6881 119.987 20.8886C120.349 21.1142 120.839 21.2073 121.459 21.2073Z" fill="#0AC18E"/>
<path d="M131.654 21.15C132.273 21.15 132.717 21.0927 132.975 20.9638C133.233 20.8456 133.362 20.6021 133.362 20.2619C133.362 19.9933 133.197 19.7462 132.861 19.5492C132.521 19.338 132.019 19.1159 131.332 18.8617C130.805 18.6647 130.314 18.4641 129.885 18.2421C129.451 18.0308 129.079 17.7766 128.785 17.4829C128.477 17.1821 128.241 16.8204 128.083 16.4193C127.919 16.011 127.84 15.5204 127.84 14.9367C127.84 13.8158 128.259 12.9276 129.09 12.2723C129.921 11.6169 131.063 11.291 132.524 11.291C133.226 11.291 133.924 11.3591 134.615 11.488C135.282 11.6169 135.819 11.7566 136.206 11.907L135.611 14.5463C135.188 14.3995 134.762 14.2777 134.325 14.1846C133.813 14.0736 133.294 14.0163 132.771 14.0199C131.708 14.0199 131.181 14.3135 131.181 14.908C131.178 15.0334 131.203 15.1551 131.253 15.2697C131.314 15.3915 131.407 15.4989 131.521 15.5741C131.7 15.6959 131.887 15.7997 132.084 15.8893C132.374 16.0325 132.674 16.1543 132.982 16.2617C133.731 16.541 134.336 16.8096 134.827 17.0782C135.317 17.3468 135.69 17.6405 135.973 17.9413C136.241 18.2385 136.445 18.5859 136.567 18.9691C136.685 19.3415 136.743 19.7856 136.743 20.2906C136.743 21.4688 136.299 22.3712 135.411 22.9657C134.522 23.5745 133.273 23.8753 131.65 23.8753C130.587 23.8753 129.699 23.7822 129 23.6067C128.298 23.4205 127.808 23.2665 127.528 23.1519L128.101 20.3944C128.678 20.62 129.272 20.7991 129.878 20.9316C130.458 21.0784 131.056 21.15 131.654 21.15Z" fill="#0AC18E"/>
<path d="M138.002 23.5824V6.46784L141.39 5.91992V11.657C141.676 11.5675 141.97 11.4923 142.267 11.435C142.607 11.3669 142.958 11.3311 143.306 11.3311C144.276 11.3311 145.082 11.46 145.723 11.7286C146.364 11.9972 146.88 12.3697 147.267 12.8495C147.653 13.3402 147.922 13.9131 148.083 14.5792C148.248 15.2453 148.316 15.9938 148.316 16.8103V23.5752H144.928V17.215C144.928 16.1156 144.788 15.3456 144.509 14.8908C144.23 14.436 143.703 14.214 142.955 14.214C142.668 14.2104 142.382 14.239 142.102 14.2963C141.834 14.3536 141.601 14.4002 141.39 14.4718V23.5716H138.002V23.5824Z" fill="#0AC18E"/>
<path d="M15.1283 29.9814C23.3092 29.9814 29.9412 23.3494 29.9412 15.1685C29.9412 6.98747 23.3092 0.355469 15.1283 0.355469C6.94737 0.355469 0.31543 6.98747 0.31543 15.1685C0.31543 23.3494 6.94737 29.9814 15.1283 29.9814Z" fill="#0AC18E"/>
<path d="M19.7354 10.2104C18.9932 8.52425 17.2893 8.17396 15.1994 8.51831L14.5286 5.92383L12.9434 6.33348L13.6024 8.92796C13.1868 9.03483 12.7593 9.12389 12.3378 9.24263L11.6728 6.66596L10.0876 7.07561L10.7585 9.67603C10.4201 9.77102 7.57031 10.5072 7.57031 10.5072L8.00966 12.1993C8.00966 12.1993 9.17332 11.8727 9.16145 11.9024C9.80265 11.7362 10.1054 12.0568 10.2539 12.3596L12.0944 19.484C12.1181 19.6918 12.0825 20.048 11.6372 20.1608C11.661 20.1727 10.4854 20.4577 10.4854 20.4577L10.6576 22.4288C10.6576 22.4288 13.4777 21.7044 13.8517 21.6154L14.5345 24.2455L16.1138 23.8358L15.4369 21.1879C15.8763 21.087 16.2919 20.9801 16.7075 20.8733L17.3843 23.5093L18.9695 23.0996L18.2927 20.4755C20.7269 19.8818 22.4486 18.35 22.0924 15.999C21.8668 14.586 20.3231 13.4223 19.0348 13.2917C19.8244 12.5733 20.2281 11.5521 19.7354 10.2104ZM18.9754 16.4086C19.2901 18.7359 16.0603 19.0209 14.9857 19.3L14.0536 15.8209C15.1341 15.5418 18.447 14.3603 18.9754 16.4086ZM17.0281 11.6768C17.3605 13.7429 14.5998 13.9863 13.7033 14.2179L12.8543 11.0594C13.7508 10.8278 16.3512 9.75915 17.0281 11.6768Z" fill="white"/>
</g>
<defs>
<clipPath id="clip0">
<rect width="150" height="30" fill="white" transform="translate(0.31543)"/>
</clipPath>
</defs>
</svg>
