<svg width="70" height="48" viewBox="0 0 70 48" fill="none" xmlns="http://www.w3.org/2000/svg">
<rect width="70" height="48" rx="6" fill="white"/>
<path d="M40.1896 24.2537C40.1896 31.8786 34.0794 38.0597 26.5421 38.0597C19.0047 38.0597 12.8945 31.8786 12.8945 24.2537C12.8945 16.6289 19.0047 10.4478 26.5421 10.4478C34.0794 10.4478 40.1896 16.6289 40.1896 24.2537Z" fill="#ED0006"/>
<path d="M57.8947 24.2537C57.8947 31.8786 51.7845 38.0597 44.2472 38.0597C36.7098 38.0597 30.5996 31.8786 30.5996 24.2537C30.5996 16.6289 36.7098 10.4478 44.2472 10.4478C51.7845 10.4478 57.8947 16.6289 57.8947 24.2537Z" fill="#0099DF"/>
<path fill-rule="evenodd" clip-rule="evenodd" d="M35.3946 13.7461C38.329 16.2784 40.1897 20.0463 40.1897 24.254C40.1897 28.4616 38.329 32.2295 35.3946 34.7618C32.4603 32.2295 30.5996 28.4616 30.5996 24.254C30.5996 20.0463 32.4603 16.2784 35.3946 13.7461Z" fill="#6C6BBD"/>
</svg>
