<svg width="70" height="48" viewBox="0 0 70 48" fill="none" xmlns="http://www.w3.org/2000/svg">
<rect width="70" height="48" rx="6" fill="white"/>
<path fill-rule="evenodd" clip-rule="evenodd" d="M35.3945 34.7616C33.0114 36.8182 29.92 38.0597 26.5421 38.0597C19.0047 38.0597 12.8945 31.8786 12.8945 24.2537C12.8945 16.6289 19.0047 10.4478 26.5421 10.4478C29.92 10.4478 33.0114 11.6893 35.3945 13.7458C37.7777 11.6893 40.869 10.4478 44.247 10.4478C51.7843 10.4478 57.8945 16.6289 57.8945 24.2537C57.8945 31.8786 51.7843 38.0597 44.247 38.0597C40.869 38.0597 37.7777 36.8182 35.3945 34.7616Z" fill="#ED0006"/>
<path fill-rule="evenodd" clip-rule="evenodd" d="M35.3945 34.7616C38.3289 32.2294 40.1896 28.4614 40.1896 24.2537C40.1896 20.0461 38.3289 16.2781 35.3945 13.7458C37.7777 11.6893 40.869 10.4478 44.247 10.4478C51.7843 10.4478 57.8945 16.6289 57.8945 24.2537C57.8945 31.8786 51.7843 38.0597 44.247 38.0597C40.869 38.0597 37.7777 36.8182 35.3945 34.7616Z" fill="#F9A000"/>
<path fill-rule="evenodd" clip-rule="evenodd" d="M35.3946 13.7461C38.329 16.2784 40.1897 20.0463 40.1897 24.254C40.1897 28.4616 38.329 32.2295 35.3946 34.7618C32.4603 32.2295 30.5996 28.4616 30.5996 24.254C30.5996 20.0463 32.4603 16.2784 35.3946 13.7461Z" fill="#FF5E00"/>
</svg>
