<svg width="0" height="0" class="hidden">
  <symbol fill="none" stroke='currentColor' xmlns="http://www.w3.org/2000/svg" viewBox="0 0 30 30" id="credit-card">
    <path
      d="M26.25 5H3.75a2.5 2.5 0 00-2.5 2.5v15a2.5 2.5 0 002.5 2.5h22.5a2.5 2.5 0 002.5-2.5v-15a2.5 2.5 0 00-2.5-2.5zm-25 7.5h27.5"
      stroke-width="2" stroke-linecap="round" stroke-linejoin="round"></path>
  </symbol>
  <symbol fill="none" stroke='currentColor' xmlns="http://www.w3.org/2000/svg" viewBox="0 0 30 30" id="locked">
    <path
      d="M23.75 13.75H6.25a2.5 2.5 0 00-2.5 2.5V25a2.5 2.5 0 002.5 2.5h17.5a2.5 2.5 0 002.5-2.5v-8.75a2.5 2.5 0 00-2.5-2.5zm-15 0v-5a6.25 6.25 0 0112.5 0v5"
      stroke-width="2" stroke-linecap="round" stroke-linejoin="round"></path>
  </symbol>
  <symbol fill="none" stroke='currentColor' xmlns="http://www.w3.org/2000/svg" viewBox="0 0 30 30" id="monitor">
    <path
      d="M25 3.75H5a2.5 2.5 0 00-2.5 2.5v12.5a2.5 2.5 0 002.5 2.5h20a2.5 2.5 0 002.5-2.5V6.25a2.5 2.5 0 00-2.5-2.5zm-15 22.5h10m-5-5v5"
      stroke-width="2" stroke-linecap="round" stroke-linejoin="round"></path>
  </symbol>
  <symbol xmlns="http://www.w3.org/2000/svg" viewBox="0 0 30 30" id="speedometer-outline">
    <path
      d="M18.7 13.297l-.008.012-.008.013-2.774 4.409c-.08.108-.176.204-.285.283a1.264 1.264 0 01-1.749-.304l-.407.29.407-.29a1.264 1.264 0 01.27-1.746l4.408-2.773.01-.007.01-.006a.1.1 0 01.11-.003.09.09 0 01.017.122z"
      fill="currentColor" stroke='currentColor'></path>
    <path fill-rule="evenodd" clip-rule="evenodd"
      d="M.938 16.869C.938 9.102 7.235 2.813 15 2.813s14.063 6.29 14.063 14.056h-.938l.938-.001v.001a14.014 14.014 0 01-3.536 9.324l-.009.01-.187.205-.004.003a2.413 2.413 0 01-3.552-.007l.69-.634-.692.632a9.207 9.207 0 00-13.547.001l.001-.001-.692-.633.69.635h.001a2.414 2.414 0 01-3.528.034l.663-.663-.688.637.012.012a5.995 5.995 0 01-.177-.192l-.025-.028a14.014 14.014 0 01-3.545-9.335zm0 0h.937l-.937-.001zM15 4.688c-6.73 0-12.187 5.451-12.187 12.181v.001a12.14 12.14 0 003.057 8.073l.093.103a1.15 1.15 0 00.087.093.54.54 0 00.793-.002l.002-.002a11.081 11.081 0 0116.31 0l.002.002a.537.537 0 00.792.004l.001-.002.18-.196a12.14 12.14 0 003.058-8.073c0-6.73-5.457-12.183-12.188-12.183z"
      fill="currentColor"></path>
    <path fill-rule="evenodd" clip-rule="evenodd"
      d="M15 7.5a.937.937 0 110 1.875.937.937 0 010-1.875zm7.292 2.083a.938.938 0 010 1.326l-1.326 1.326a.937.937 0 01-1.326-1.326l1.326-1.326a.937.937 0 011.326 0zm-13.921.663a.938.938 0 111.325 1.326.938.938 0 01-1.325-1.326zM7.5 16.875a.937.937 0 11-1.875 0 .937.937 0 011.875 0zm16.875 0a.937.937 0 11-1.875 0 .937.937 0 011.875 0z"
      fill="currentColor"></path>
  </symbol>
  <symbol fill='none' stroke="currentColor" xmlns="http://www.w3.org/2000/svg" viewBox="0 0 18 13" id="check">
    <path d="M17 1L6 12 1 7" stroke-width="2" stroke-linecap="round" stroke-linejoin="round"></path>
  </symbol>
  <symbol fill='none' stroke="currentColor" xmlns="http://www.w3.org/2000/svg" viewBox="0 0 16 16" id="right-down">
    <path d="M6.667 10L10 13.333 13.334 10" stroke-linecap="round" stroke-linejoin="round"></path>
    <path d="M2.667 2.667h4.667A2.667 2.667 0 0110 5.334v8" stroke-linecap="round" stroke-linejoin="round"></path>
  </symbol>
  <symbol fill="none" stroke="currentColor" xmlns="http://www.w3.org/2000/svg" viewBox="0 0 24 24" id="arrow-down">
    <path d="M12 5v14m7-7l-7 7-7-7" stroke-width="2" stroke-linecap="round" stroke-linejoin="round"></path>
  </symbol>
  <symbol fill="none" stroke="currentColor" xmlns="http://www.w3.org/2000/svg" viewBox="0 0 24 24" id="arrow-up">
    <path d="M12 19V5m-7 7l7-7 7 7" stroke-width="2" stroke-linecap="round" stroke-linejoin="round"></path>
  </symbol>
  <symbol fill="none" stroke="currentColor" xmlns="http://www.w3.org/2000/svg" viewBox="0 0 30 30" id="arrow-right">
    <path d="M6.25 15h17.5M15 6.25L23.75 15 15 23.75" stroke-linecap="round" stroke-linejoin="round"></path>
  </symbol>
  <symbol fill="none" stroke="currentColor" xmlns="http://www.w3.org/2000/svg" viewBox="0 0 30 30" id="arrow-left">
    <path d="M23.75 15H6.25M15 23.75L6.25 15 15 6.25" stroke-linecap="round" stroke-linejoin="round"></path>
  </symbol>
  <symbol fill="currentColor" stroke="currentColor" xmlns="http://www.w3.org/2000/svg" viewBox="0 0 24 24" id="telegram">
    <path d="M21.68 2.975a1.497 1.497 0 00-1.527-.26L2.851 9.514a1.5 1.5 0 00.254 2.867l4.395.88v5.489a1.5 1.5 0 002.56 1.06l2.433-2.432 3.691 3.248a1.488 1.488 0 001.451.302 1.488 1.488 0 001.002-1.093l3.526-15.387a1.496 1.496 0 00-.483-1.472zm-13.604 8.87L3.4 10.909l13.095-5.144-8.418 6.08zM9 18.747v-4.445l2.364 2.08L9 18.749zm8.175.751l-7.724-6.797 11.123-8.033-3.399 14.83z" stroke-width=".5" stroke-linejoin="round"></path>
  </symbol>
  <symbol fill="none" stroke="currentColor" xmlns="http://www.w3.org/2000/svg" viewBox="0 0 24 24" id="facebook">
    <path d="M18 2h-3a5 5 0 00-5 5v3H7v4h3v8h4v-8h3l1-4h-4V7a1 1 0 011-1h3V2z" stroke-width="2" stroke-linecap="round" stroke-linejoin="round"></path>
  </symbol>
  <symbol fill="none" stroke="currentColor" xmlns="http://www.w3.org/2000/svg" viewBox="0 0 24 24" id="arrow-right-long">
    <path d="M4 12h16m-6.667-6.666L20 12.001l-6.667 6.666" stroke-width="2" stroke-linecap="round" stroke-linejoin="round"></path>
  </symbol>
  <symbol fill="none" stroke="currentColor" xmlns="http://www.w3.org/2000/svg" viewBox="0 0 24 24" id="user">
    <path d="M20 21v-2a4 4 0 00-4-4H8a4 4 0 00-4 4v2m8-10a4 4 0 100-8 4 4 0 000 8z" stroke-width="2" stroke-linecap="round" stroke-linejoin="round"></path>
  </symbol>
  <symbol fill="none" stroke="currentColor" xmlns="http://www.w3.org/2000/svg" viewBox="0 0 24 24" id="users">
    <path d="M17 21v-2a4 4 0 00-4-4H5a4 4 0 00-4 4v2m8-10a4 4 0 100-8 4 4 0 000 8zm14 10v-2a4 4 0 00-3-3.87m-4-12a4 4 0 010 7.75" stroke-width="2" stroke-linecap="round" stroke-linejoin="round"></path>
  </symbol>
  <symbol fill="none" stroke="currentColor" xmlns="http://www.w3.org/2000/svg" viewBox="0 0 40 40" id="down">
    <path d="M10 15l10 10 10-10" stroke-width="2" stroke-linecap="round" stroke-linejoin="round"></path>
  </symbol>
</svg>