<svg width="145" height="30" viewBox="0 0 145 30" fill="none" xmlns="http://www.w3.org/2000/svg">
<path d="M29.5381 18.6168C27.5458 26.6508 19.4177 31.5483 11.3834 29.556C3.34934 27.564 -1.54816 19.4356 0.444159 11.4016C2.43648 3.36723 10.5646 -1.5306 18.5986 0.461715C18.6121 0.465088 18.6259 0.46846 18.6394 0.472169C26.6522 2.48303 31.5271 10.5983 29.5381 18.6168Z" fill="#F7931A"/>
<path d="M18.3634 12.8203C17.895 14.6939 15.0381 13.7335 14.1107 13.5041L14.9301 10.2257C15.8433 10.4506 18.8318 10.8812 18.3493 12.8203H18.3634ZM17.8529 18.118C17.347 20.1596 13.9094 19.0548 12.7945 18.778L13.6983 15.1576C14.8131 15.4385 18.382 15.9865 17.8529 18.118ZM21.5998 12.8486C21.8948 10.8532 20.3773 9.78086 18.3213 9.06899L18.9957 6.36648L17.3332 5.95439L16.6776 8.58676C16.2467 8.47918 15.8019 8.37599 15.3615 8.27752L16.017 5.61716L14.373 5.20508L13.6986 7.90759L12.6495 7.67355L10.378 7.10668L9.94227 8.86328C9.94227 8.86328 11.16 9.14419 11.1367 9.16307C11.6017 9.21939 11.941 9.63248 11.9049 10.0999L11.1367 13.177C11.1944 13.1902 11.251 13.2087 11.3053 13.2334L11.132 13.1865L10.0593 17.5002C9.95879 17.8159 9.62157 17.9896 9.30559 17.8891H9.30525C9.30525 17.9123 8.10609 17.594 8.10609 17.594L7.29102 19.4676L9.43137 19.997L10.6022 20.3016L9.92305 23.0321L11.567 23.4441L12.2415 20.7416C12.6846 20.8634 13.1206 20.9757 13.5482 21.0789L12.8832 23.7908L14.5272 24.1982L15.2063 21.4724C18.0164 22.0022 20.1193 21.7907 21.0093 19.2525C21.7259 17.2102 20.9718 16.0347 19.4965 15.2665C20.5736 15.0183 21.3701 14.3297 21.5994 12.8496L21.5998 12.8486Z" fill="white"/>
<path d="M38.892 25.2914C39.7674 25.2941 40.6287 25.0712 41.3932 24.645C42.1799 24.2255 42.8719 23.6478 43.426 22.9494C44.0033 22.2109 44.4572 21.3837 44.7702 20.4998C45.1003 19.5866 45.2679 18.6232 45.2665 17.6523C45.3192 16.6673 45.1087 15.686 44.6575 14.8092C44.2549 14.13 43.5052 13.7837 42.4187 13.7837C41.9452 13.7999 41.4745 13.8643 41.0135 13.9756C40.4412 14.1034 39.9118 14.3779 39.4771 14.7717L36.9948 25.1508L37.3931 25.2257C37.5114 25.2547 37.6325 25.2736 37.7535 25.282C37.909 25.3012 38.0655 25.309 38.222 25.3053L38.8917 25.2911L38.892 25.2914ZM43.8239 9.06727C44.9081 9.04231 45.9845 9.26353 46.9712 9.71373C47.8278 10.1221 48.5804 10.7193 49.1726 11.4609C49.7789 12.2277 50.2247 13.1082 50.4841 14.0508C50.768 15.0901 50.908 16.1631 50.9009 17.2406C50.8995 20.5926 49.6002 23.8134 47.2757 26.2286C46.1487 27.3846 44.8079 28.3099 43.3275 28.9544C41.7753 29.6376 40.0962 29.9859 38.4003 29.9755H37.2012C36.5493 29.9542 35.8985 29.8982 35.2527 29.8069C34.4639 29.6925 33.6822 29.5364 32.911 29.3385C32.1024 29.1466 31.3173 28.867 30.5693 28.5048L37.1499 0.936807L43.0281 0L40.6864 9.78421C41.174 9.56366 41.6802 9.38662 42.1992 9.2551C42.734 9.12493 43.2833 9.06019 43.8337 9.06322L43.8242 9.06794L43.8239 9.06727Z" fill="#4D4D4D"/>
<path d="M59.9428 7.06011C59.1766 7.06753 58.4297 6.82203 57.8163 6.3624C57.1661 5.84813 56.8147 5.04385 56.8795 4.21732C56.8768 3.7017 56.9867 3.19148 57.2025 2.72308C57.4092 2.26681 57.6996 1.85372 58.0598 1.50536C58.4196 1.16342 58.8364 0.88757 59.2916 0.690295C59.7651 0.486949 60.2753 0.383421 60.7902 0.385782C61.551 0.383421 62.2909 0.630269 62.8979 1.08822C63.5467 1.6035 63.8978 2.4071 63.8347 3.2333C63.8388 3.75026 63.7302 4.26183 63.5164 4.73192C63.3096 5.18582 63.0206 5.5969 62.6639 5.94491C62.3051 6.28821 61.8883 6.56405 61.432 6.75998C60.9585 6.96333 60.4483 7.06551 59.9334 7.05977H59.9428V7.06011ZM57.2123 29.4437H51.5918L56.3409 9.49082H61.9941L57.212 29.4437H57.2123Z" fill="#4D4D4D"/>
<path d="M66.7993 4.51883L72.6771 3.61035L71.2159 9.4885H77.5112L76.3771 14.1159H70.1337L68.4665 21.0758C68.3222 21.6087 68.2328 22.155 68.1994 22.7063C68.165 23.1521 68.2311 23.6 68.3913 24.0171C68.5481 24.3914 68.8385 24.6939 69.2064 24.8649C69.7358 25.0989 70.3138 25.2055 70.8925 25.1741C71.4853 25.1761 72.0768 25.1178 72.6582 25.0008C73.2433 24.8865 73.8196 24.73 74.3817 24.5324L74.8033 28.86C73.9963 29.15 73.1718 29.3897 72.3348 29.5766C71.3005 29.7961 70.2447 29.8983 69.1875 29.8811C67.4403 29.8811 66.0914 29.6187 65.1266 29.1034C64.2242 28.6445 63.5012 27.8958 63.0753 26.9769C62.6595 26.002 62.4781 24.9431 62.5462 23.8856C62.6093 22.6449 62.7863 21.4127 63.0753 20.2041L66.7989 4.49995V4.51883H66.7993Z" fill="#4D4D4D"/>
<path d="M77.406 21.4758C77.3942 19.8207 77.6761 18.1757 78.2396 16.6191C78.7681 15.1471 79.5798 13.7932 80.6282 12.6335C81.6854 11.4832 82.9709 10.5676 84.4031 9.94446C85.9651 9.27001 87.6522 8.93312 89.3535 8.95673C90.3807 8.94459 91.4058 9.05284 92.4074 9.27945C93.2494 9.47909 94.0686 9.76471 94.8523 10.132L92.8994 14.5206C92.3936 14.3145 91.8689 14.1372 91.3256 13.9726C90.6778 13.7922 90.007 13.7085 89.335 13.7244C87.6367 13.663 86.0032 14.381 84.8995 15.6729C83.8035 16.9621 83.2535 18.6951 83.2508 20.8719C83.1992 21.9759 83.4905 23.0685 84.0844 24.001C84.6398 24.7971 85.6646 25.1947 87.1568 25.1947C87.8721 25.1954 88.585 25.1185 89.2834 24.9654C89.9062 24.8325 90.5166 24.643 91.1054 24.3985L91.5222 28.914C90.756 29.204 89.9743 29.4512 89.1805 29.6535C88.1725 29.8808 87.1413 29.988 86.1081 29.9725C84.7366 30.0123 83.3715 29.7813 82.0894 29.293C81.0703 28.8823 80.1527 28.2544 79.401 27.4528C78.6878 26.6758 78.1607 25.7464 77.8603 24.7358C77.5423 23.6722 77.3844 22.5671 77.3919 21.4573L77.406 21.4762V21.4758Z" fill="#4D4D4D"/>
<path d="M105.175 13.738C104.382 13.7269 103.607 13.9788 102.973 14.4546C102.33 14.9524 101.791 15.5719 101.386 16.2767C100.94 17.027 100.605 17.8383 100.393 18.6848C100.187 19.4961 100.079 20.3291 100.074 21.1664C100.024 22.1885 100.232 23.2063 100.679 24.1265C101.086 24.8337 101.817 25.1898 102.88 25.1898C103.674 25.2033 104.45 24.9494 105.081 24.4685C105.726 23.9708 106.266 23.3513 106.674 22.6471C107.113 21.8958 107.439 21.0848 107.644 20.239C107.847 19.426 107.955 18.591 107.962 17.752C108.014 16.7306 107.806 15.7118 107.357 14.7919C106.95 14.0894 106.215 13.7333 105.156 13.7333L105.175 13.738H105.175ZM102.364 29.9716C101.171 29.9993 99.9843 29.7922 98.8705 29.3626C97.9333 28.993 97.0964 28.4096 96.4256 27.6576C95.766 26.9002 95.2693 26.0157 94.9644 25.0583C94.6333 23.9849 94.4748 22.8653 94.496 21.7424C94.4997 20.1959 94.7476 18.6591 95.2318 17.1899C95.7016 15.7111 96.4351 14.3295 97.3951 13.1105C98.3596 11.8917 99.5591 10.8787 100.922 10.1318C102.389 9.343 104.034 8.94441 105.699 8.97476C106.886 8.95317 108.066 9.16023 109.175 9.58378C110.113 9.94731 110.955 10.523 111.633 11.2652C112.289 12.0246 112.785 12.9088 113.09 13.8645C113.424 14.9389 113.582 16.0602 113.559 17.1851C113.554 18.7303 113.312 20.266 112.842 21.7377C112.38 23.2184 111.66 24.6054 110.715 25.8359C109.765 27.0597 108.57 28.0727 107.207 28.8102C105.718 29.6031 104.052 30.003 102.364 29.9716Z" fill="#4D4D4D"/>
<path d="M122.198 7.06021C121.434 7.0683 120.687 6.8228 120.077 6.36249C119.427 5.84822 119.075 5.04395 119.14 4.21741C119.138 3.7018 119.247 3.19158 119.463 2.72317C119.664 2.26927 119.946 1.85685 120.297 1.50546C120.659 1.16453 121.077 0.888677 121.533 0.690389C122.005 0.487381 122.514 0.383853 123.028 0.385876C123.794 0.379132 124.542 0.626654 125.154 1.08831C125.803 1.60359 126.154 2.40719 126.091 3.23339C126.092 3.75103 125.98 4.2626 125.763 4.73201C125.56 5.18625 125.272 5.598 124.915 5.94501C124.556 6.2883 124.14 6.56415 123.683 6.76008C123.214 6.9614 122.709 7.06358 122.198 7.05987L122.198 7.06021ZM119.473 29.4438H113.853L118.593 9.49092H124.25L119.473 29.4438Z" fill="#4D4D4D"/>
<path d="M128.533 10.399C128.96 10.2773 129.433 10.1272 129.939 9.96367C130.445 9.79978 131.035 9.64972 131.685 9.49527C132.399 9.34386 133.12 9.22987 133.845 9.15332C134.745 9.05823 135.651 9.0127 136.557 9.01742C139.517 9.01742 141.559 9.87734 142.683 11.5982C143.356 12.6288 143.697 13.8859 143.705 15.37V15.4769C143.7 16.4421 143.556 17.502 143.273 18.6563L140.692 29.4286H135.053L137.559 18.8805C137.709 18.2253 137.831 17.5883 137.92 16.9654C138.017 16.4262 138.017 15.8742 137.92 15.3356C137.827 14.8854 137.578 14.4828 137.217 14.1975C136.718 13.8697 136.123 13.7166 135.526 13.7618C134.776 13.7632 134.027 13.8401 133.292 13.9915L129.611 29.4474H123.938L128.533 10.399Z" fill="#4D4D4D"/>
</svg>
