<svg width="144" height="30" viewBox="0 0 144 30" fill="none" xmlns="http://www.w3.org/2000/svg">
<path d="M29.5381 18.6168C27.5458 26.6508 19.4177 31.5483 11.3834 29.556C3.34934 27.564 -1.54816 19.4356 0.444159 11.4016C2.43648 3.36723 10.5646 -1.5306 18.5986 0.461715C18.6121 0.465088 18.6259 0.46846 18.6394 0.472169C26.6522 2.48303 31.5271 10.5983 29.5381 18.6168Z" fill="#F7931A"/>
<path d="M18.3634 12.8203C17.895 14.6939 15.0381 13.7335 14.1107 13.5041L14.9301 10.2257C15.8433 10.4506 18.8318 10.8812 18.3493 12.8203H18.3634ZM17.8529 18.118C17.347 20.1596 13.9094 19.0548 12.7945 18.778L13.6983 15.1576C14.8131 15.4385 18.382 15.9865 17.8529 18.118ZM21.5998 12.8486C21.8948 10.8532 20.3773 9.78086 18.3213 9.06899L18.9957 6.36648L17.3332 5.95439L16.6776 8.58676C16.2467 8.47918 15.8019 8.37599 15.3615 8.27752L16.017 5.61716L14.373 5.20508L13.6986 7.90759L12.6495 7.67355L10.378 7.10668L9.94227 8.86328C9.94227 8.86328 11.16 9.14419 11.1367 9.16307C11.6017 9.21939 11.941 9.63248 11.9049 10.0999L11.1367 13.177C11.1944 13.1902 11.251 13.2087 11.3053 13.2334L11.132 13.1865L10.0593 17.5002C9.95879 17.8159 9.62157 17.9896 9.30559 17.8891H9.30525C9.30525 17.9123 8.10609 17.594 8.10609 17.594L7.29102 19.4676L9.43137 19.997L10.6022 20.3016L9.92305 23.0321L11.567 23.4441L12.2415 20.7416C12.6846 20.8634 13.1206 20.9757 13.5482 21.0789L12.8832 23.7908L14.5272 24.1982L15.2063 21.4724C18.0164 22.0022 20.1193 21.7907 21.0093 19.2525C21.7259 17.2102 20.9718 16.0347 19.4965 15.2665C20.5736 15.0183 21.3701 14.3297 21.5994 12.8496L21.5998 12.8486Z" fill="white"/>
<path d="M38.892 25.2914C39.7674 25.2941 40.6287 25.0712 41.3932 24.645C42.1799 24.2255 42.8719 23.6478 43.426 22.9494C44.0033 22.2109 44.4572 21.3837 44.7702 20.4998C45.1003 19.5866 45.2679 18.6232 45.2665 17.6523C45.3192 16.6673 45.1087 15.686 44.6575 14.8092C44.2549 14.13 43.5052 13.7837 42.4187 13.7837C41.9452 13.7999 41.4745 13.8643 41.0135 13.9756C40.4412 14.1034 39.9118 14.3779 39.4771 14.7717L36.9948 25.1508L37.3931 25.2257C37.5114 25.2547 37.6325 25.2736 37.7535 25.282C37.909 25.3012 38.0655 25.309 38.222 25.3053L38.8917 25.2911L38.892 25.2914ZM43.8239 9.06727C44.9081 9.04231 45.9845 9.26353 46.9712 9.71373C47.8278 10.1221 48.5804 10.7193 49.1726 11.4609C49.7789 12.2277 50.2247 13.1082 50.4841 14.0508C50.768 15.0901 50.908 16.1631 50.9009 17.2406C50.8995 20.5926 49.6002 23.8134 47.2757 26.2286C46.1487 27.3846 44.8079 28.3099 43.3275 28.9544C41.7753 29.6376 40.0962 29.9859 38.4003 29.9755H37.2012C36.5493 29.9542 35.8985 29.8982 35.2527 29.8069C34.4639 29.6925 33.6822 29.5364 32.911 29.3385C32.1024 29.1466 31.3173 28.867 30.5693 28.5048L37.1499 0.936807L43.0281 0L40.6864 9.78421C41.174 9.56366 41.6802 9.38662 42.1992 9.2551C42.734 9.12493 43.2833 9.06019 43.8337 9.06322L43.8242 9.06794L43.8239 9.06727Z" fill="white"/>
<path d="M59.9428 7.05913C59.1766 7.06655 58.4297 6.82105 57.8163 6.36142C57.1661 5.84715 56.8147 5.04287 56.8795 4.21634C56.8768 3.70072 56.9867 3.19051 57.2025 2.7221C57.4092 2.26584 57.6996 1.85274 58.0598 1.50439C58.4196 1.16244 58.8364 0.886594 59.2916 0.689318C59.7651 0.485972 60.2753 0.382445 60.7902 0.384805C61.551 0.382445 62.2909 0.629292 62.8979 1.08724C63.5467 1.60252 63.8978 2.40612 63.8347 3.23232C63.8388 3.74928 63.7302 4.26085 63.5164 4.73094C63.3096 5.18485 63.0206 5.59592 62.6639 5.94394C62.3051 6.28723 61.8883 6.56308 61.432 6.75901C60.9585 6.96235 60.4483 7.06453 59.9334 7.0588H59.9428V7.05913ZM57.2123 29.4427H51.5918L56.3409 9.48984H61.9941L57.212 29.4427H57.2123Z" fill="white"/>
<path d="M66.7993 4.51786L72.6771 3.60938L71.2159 9.48752H77.5112L76.3771 14.1149H70.1337L68.4665 21.0749C68.3222 21.6077 68.2328 22.154 68.1994 22.7053C68.165 23.1511 68.2311 23.599 68.3913 24.0161C68.5481 24.3904 68.8385 24.6929 69.2064 24.8639C69.7358 25.0979 70.3138 25.2045 70.8925 25.1731C71.4853 25.1752 72.0768 25.1168 72.6582 24.9998C73.2433 24.8855 73.8196 24.729 74.3817 24.5314L74.8033 28.859C73.9963 29.149 73.1718 29.3888 72.3348 29.5756C71.3005 29.7951 70.2447 29.8973 69.1875 29.8801C67.4403 29.8801 66.0914 29.6177 65.1266 29.1025C64.2242 28.6435 63.5012 27.8949 63.0753 26.9759C62.6595 26.001 62.4781 24.9421 62.5462 23.8846C62.6093 22.644 62.7863 21.4117 63.0753 20.2031L66.7989 4.49897V4.51786H66.7993Z" fill="white"/>
<path d="M77.406 21.4753C77.3942 19.8202 77.6761 18.1753 78.2396 16.6186C78.7681 15.1467 79.5798 13.7927 80.6282 12.633C81.6854 11.4827 82.9709 10.5672 84.4031 9.94397C85.9651 9.26952 87.6522 8.93263 89.3535 8.95624C90.3807 8.9441 91.4058 9.05235 92.4074 9.27896C93.2494 9.4786 94.0686 9.76423 94.8523 10.1315L92.8994 14.5201C92.3936 14.314 91.8689 14.1367 91.3256 13.9721C90.6778 13.7917 90.007 13.7081 89.335 13.7239C87.6367 13.6625 86.0032 14.3805 84.8995 15.6724C83.8035 16.9616 83.2535 18.6946 83.2508 20.8714C83.1992 21.9754 83.4905 23.068 84.0844 24.0005C84.6398 24.7966 85.6646 25.1942 87.1568 25.1942C87.8721 25.1949 88.585 25.118 89.2834 24.9649C89.9062 24.8321 90.5166 24.6425 91.1054 24.398L91.5222 28.9135C90.756 29.2035 89.9743 29.4507 89.1805 29.653C88.1725 29.8803 87.1413 29.9875 86.1081 29.972C84.7366 30.0118 83.3715 29.7808 82.0894 29.2925C81.0703 28.8818 80.1527 28.2539 79.401 27.4523C78.6878 26.6753 78.1607 25.7459 77.8603 24.7353C77.5423 23.6717 77.3844 22.5666 77.3919 21.4568L77.406 21.4757V21.4753Z" fill="white"/>
<path d="M105.175 13.7376C104.382 13.7264 103.607 13.9783 102.973 14.4542C102.33 14.9519 101.791 15.5714 101.386 16.2762C100.94 17.0265 100.605 17.8379 100.393 18.6843C100.187 19.4956 100.079 20.3286 100.074 21.1659C100.024 22.188 100.232 23.2058 100.679 24.1261C101.086 24.8332 101.817 25.1893 102.88 25.1893C103.674 25.2028 104.45 24.9489 105.081 24.468C105.726 23.9703 106.266 23.3508 106.674 22.6467C107.113 21.8953 107.439 21.0843 107.644 20.2385C107.847 19.4255 107.955 18.5905 107.962 17.7515C108.014 16.7301 107.806 15.7113 107.357 14.7914C106.95 14.0889 106.215 13.7328 105.156 13.7328L105.175 13.7376H105.175ZM102.364 29.9712C101.171 29.9988 99.9843 29.7918 98.8705 29.3621C97.9333 28.9925 97.0964 28.4091 96.4256 27.6571C95.766 26.8997 95.2693 26.0152 94.9644 25.0578C94.6333 23.9844 94.4748 22.8648 94.496 21.7419C94.4997 20.1954 94.7476 18.6587 95.2318 17.1894C95.7016 15.7106 96.4351 14.329 97.3951 13.11C98.3596 11.8913 99.5591 10.8782 100.922 10.1313C102.389 9.34252 104.034 8.94392 105.699 8.97427C106.886 8.95269 108.066 9.15974 109.175 9.58329C110.113 9.94682 110.955 10.5225 111.633 11.2647C112.289 12.0241 112.785 12.9083 113.09 13.864C113.424 14.9384 113.582 16.0597 113.559 17.1847C113.554 18.7298 113.312 20.2655 112.842 21.7372C112.38 23.2179 111.66 24.6049 110.715 25.8354C109.765 27.0592 108.57 28.0723 107.207 28.8098C105.718 29.6026 104.052 30.0025 102.364 29.9712Z" fill="white"/>
<path d="M122.198 7.05923C121.434 7.06732 120.687 6.82182 120.077 6.36151C119.427 5.84725 119.075 5.04297 119.14 4.21643C119.138 3.70082 119.247 3.1906 119.463 2.7222C119.664 2.26829 119.946 1.85587 120.297 1.50448C120.659 1.16355 121.077 0.8877 121.533 0.689413C122.005 0.486404 122.514 0.382877 123.028 0.3849C123.794 0.378155 124.542 0.625678 125.154 1.08734C125.803 1.60261 126.154 2.40622 126.091 3.23242C126.092 3.75005 125.98 4.26162 125.763 4.73104C125.56 5.18528 125.272 5.59703 124.915 5.94403C124.556 6.28732 124.14 6.56317 123.683 6.7591C123.214 6.96042 122.709 7.0626 122.198 7.05889L122.198 7.05923ZM119.473 29.4428H113.853L118.593 9.48994H124.25L119.473 29.4428Z" fill="white"/>
<path d="M128.533 10.3995C128.96 10.2778 129.433 10.1277 129.939 9.96416C130.445 9.80027 131.035 9.65021 131.685 9.49576C132.399 9.34434 133.12 9.23036 133.845 9.15381C134.745 9.05872 135.651 9.01319 136.557 9.01791C139.517 9.01791 141.559 9.87783 142.683 11.5987C143.356 12.6292 143.697 13.8864 143.705 15.3705V15.4774C143.7 16.4426 143.556 17.5025 143.273 18.6568L140.692 29.429H135.053L137.559 18.881C137.709 18.2258 137.831 17.5888 137.92 16.9659C138.017 16.4267 138.017 15.8747 137.92 15.3361C137.827 14.8859 137.578 14.4833 137.217 14.198C136.718 13.8702 136.123 13.7171 135.526 13.7623C134.776 13.7637 134.027 13.8405 133.292 13.992L129.611 29.4479H123.938L128.533 10.3995Z" fill="white"/>
</svg>
