<svg width="120" height="30" viewBox="0 0 120 30" fill="none" xmlns="http://www.w3.org/2000/svg">
<g clip-path="url(#clip0)">
<path d="M33.9461 17.2616C33.9443 17.3659 33.9013 17.4653 33.8266 17.538C33.7518 17.6107 33.6512 17.6508 33.5469 17.6496H26.1966C26.3851 19.4678 27.7487 21.1308 29.6778 21.1308C30.9971 21.1308 31.9727 20.6319 32.7044 19.5787C32.7384 19.5233 32.7856 19.4772 32.8416 19.4444C32.8977 19.4115 32.961 19.3929 33.0259 19.3902C33.0743 19.3888 33.1225 19.3973 33.1675 19.4152C33.2125 19.4331 33.2534 19.46 33.2876 19.4943C33.3219 19.5285 33.3488 19.5694 33.3667 19.6144C33.3846 19.6594 33.3931 19.7076 33.3917 19.7561C33.392 19.8229 33.3727 19.8884 33.3363 19.9445C32.5935 21.2305 31.119 21.8625 29.6778 21.8625C27.2055 21.8625 25.4316 19.6452 25.4316 17.2838C25.4316 14.9224 27.1944 12.7051 29.6778 12.7051C32.1611 12.7051 33.935 14.9002 33.9461 17.2616ZM33.1589 16.9179C33.0037 15.0997 31.6068 13.4368 29.6778 13.4368C27.7487 13.4368 26.3851 15.0997 26.1966 16.9179H33.1589Z" fill="#3B3B3B"/>
<path d="M42.8849 12.8823C42.981 12.8851 43.0725 12.9245 43.1405 12.9925C43.2085 13.0605 43.2479 13.152 43.2507 13.2481C43.2521 13.2966 43.2436 13.3447 43.2257 13.3898C43.2078 13.4348 43.1809 13.4757 43.1466 13.5099C43.1124 13.5442 43.0715 13.5711 43.0265 13.589C42.9815 13.6068 42.9333 13.6154 42.8849 13.614H40.9115V21.3634C40.9106 21.4602 40.8718 21.5527 40.8034 21.6212C40.7349 21.6896 40.6424 21.7284 40.5456 21.7293C40.4495 21.7265 40.358 21.687 40.29 21.619C40.222 21.551 40.1825 21.4596 40.1798 21.3634V13.614H38.284C38.2355 13.6154 38.1874 13.6068 38.1423 13.589C38.0973 13.5711 38.0565 13.5442 38.0222 13.5099C37.988 13.4757 37.9611 13.4348 37.9432 13.3898C37.9253 13.3447 37.9167 13.2966 37.9181 13.2481C37.919 13.1514 37.9578 13.0588 38.0262 12.9904C38.0947 12.922 38.1872 12.8832 38.284 12.8823H40.1798V10.0552C40.1799 9.96157 40.2135 9.87103 40.2745 9.7999C40.3355 9.72878 40.4198 9.68173 40.5124 9.66722C40.5641 9.66035 40.6167 9.66473 40.6666 9.68006C40.7165 9.69538 40.7624 9.7213 40.8014 9.75604C40.8403 9.79077 40.8713 9.83351 40.8922 9.88132C40.9131 9.92913 40.9235 9.98089 40.9226 10.0331V12.8823H42.8849Z" fill="#3B3B3B"/>
<path d="M54.9126 16.6299V21.3195C54.9098 21.4157 54.8703 21.5071 54.8023 21.5751C54.7343 21.6431 54.6429 21.6826 54.5467 21.6854C54.4983 21.6867 54.4501 21.6782 54.4051 21.6603C54.3601 21.6424 54.3192 21.6155 54.285 21.5813C54.2507 21.547 54.2238 21.5061 54.2059 21.4611C54.188 21.4161 54.1795 21.3679 54.1809 21.3195V16.6299C54.1809 15.0446 53.2829 13.4703 51.5202 13.4703C49.2585 13.4703 48.2829 15.4437 48.416 17.4725C48.416 17.5279 48.4382 17.7608 48.4382 17.794V21.3084C48.438 21.4021 48.4044 21.4926 48.3434 21.5638C48.2824 21.6349 48.1981 21.6819 48.1056 21.6964C48.0538 21.7033 48.0012 21.6989 47.9513 21.6836C47.9015 21.6683 47.8555 21.6424 47.8165 21.6076C47.7776 21.5729 47.7466 21.5302 47.7257 21.4823C47.7048 21.4345 47.6944 21.3828 47.6954 21.3306V5.90931C47.6962 5.81255 47.7351 5.72 47.8035 5.65157C47.8719 5.58315 47.9645 5.54432 48.0612 5.54346C48.1574 5.54625 48.2488 5.58569 48.3168 5.6537C48.3848 5.72172 48.4243 5.81316 48.4271 5.90931V14.6233C49.059 13.4925 50.1898 12.7275 51.5091 12.7275C53.682 12.7275 54.9126 14.6233 54.9126 16.6299Z" fill="#3B3B3B"/>
<path d="M68.116 17.2616C68.1142 17.3659 68.0713 17.4653 67.9965 17.538C67.9217 17.6107 67.8212 17.6508 67.7169 17.6496H60.3665C60.555 19.4678 61.9186 21.1308 63.8477 21.1308C65.167 21.1308 66.1426 20.6319 66.8743 19.5787C66.9084 19.5233 66.9555 19.4772 67.0115 19.4444C67.0676 19.4115 67.1309 19.3929 67.1958 19.3902C67.2442 19.3888 67.2924 19.3973 67.3374 19.4152C67.3824 19.4331 67.4233 19.46 67.4576 19.4943C67.4918 19.5285 67.5187 19.5694 67.5366 19.6144C67.5545 19.6594 67.563 19.7076 67.5616 19.7561C67.5619 19.8229 67.5426 19.8884 67.5062 19.9445C66.7634 21.2305 65.2889 21.8625 63.8477 21.8625C61.3754 21.8625 59.6016 19.6452 59.6016 17.2838C59.6016 14.9224 61.3643 12.7051 63.8477 12.7051C66.3089 12.7051 68.1049 14.9002 68.116 17.2616ZM67.3177 16.9179C67.1625 15.0997 65.7656 13.4368 63.8366 13.4368C61.9075 13.4368 60.5439 15.0997 60.3554 16.9179H67.3177Z" fill="#3B3B3B"/>
<path d="M77.1537 13.226C77.1607 13.3244 77.1285 13.4216 77.0642 13.4964C76.9998 13.5712 76.9084 13.6175 76.81 13.6251C74.6482 13.9466 73.6725 15.7094 73.6725 17.7604V21.2748C73.6724 21.3684 73.6388 21.459 73.5778 21.5301C73.5168 21.6012 73.4325 21.6483 73.3399 21.6628C73.2882 21.6697 73.2356 21.6653 73.1857 21.6499C73.1358 21.6346 73.0899 21.6087 73.0509 21.574C73.012 21.5392 72.981 21.4965 72.9601 21.4487C72.9392 21.4009 72.9288 21.3491 72.9297 21.2969V13.2814C72.9299 13.1878 72.9635 13.0972 73.0245 13.0261C73.0855 12.955 73.1698 12.9079 73.2623 12.8934C73.3141 12.8865 73.3667 12.8909 73.4166 12.9062C73.4664 12.9216 73.5124 12.9475 73.5514 12.9822C73.5903 13.017 73.6213 13.0597 73.6422 13.1075C73.6631 13.1553 73.6735 13.2071 73.6725 13.2593V14.889C74.2823 13.8579 75.4907 12.8823 76.7546 12.8823C76.9431 12.8823 77.1537 13.0154 77.1537 13.226Z" fill="#3B3B3B"/>
<path d="M89.2371 17.2616C89.2353 17.3659 89.1924 17.4653 89.1176 17.538C89.0428 17.6107 88.9423 17.6508 88.838 17.6496H81.4876C81.6761 19.4678 83.0397 21.1308 84.9688 21.1308C86.2881 21.1308 87.2637 20.6319 87.9954 19.5787C88.0295 19.5233 88.0766 19.4772 88.1327 19.4444C88.1887 19.4115 88.252 19.3929 88.3169 19.3902C88.3653 19.3888 88.4135 19.3973 88.4585 19.4152C88.5035 19.4331 88.5444 19.46 88.5787 19.4943C88.6129 19.5285 88.6398 19.5694 88.6577 19.6144C88.6756 19.6594 88.6841 19.7076 88.6828 19.7561C88.683 19.8229 88.6637 19.8884 88.6273 19.9445C87.8845 21.2305 86.41 21.8625 84.9688 21.8625C82.4965 21.8625 80.7227 19.6452 80.7227 17.2838C80.7227 14.9224 82.4854 12.7051 84.9688 12.7051C87.4522 12.7051 89.226 14.9002 89.2371 17.2616ZM88.4499 16.9179C88.2947 15.0997 86.8978 13.4368 84.9688 13.4368C83.0397 13.4368 81.6761 15.0997 81.4876 16.9179H88.4499Z" fill="#3B3B3B"/>
<path d="M101.116 13.3147V21.3635C101.113 21.4596 101.073 21.551 101.005 21.6191C100.937 21.6871 100.846 21.7265 100.75 21.7293C100.701 21.7307 100.653 21.7222 100.608 21.7043C100.563 21.6864 100.522 21.6595 100.488 21.6252C100.454 21.591 100.427 21.5501 100.409 21.5051C100.391 21.4601 100.383 21.4119 100.384 21.3635V19.8335C99.7742 21.042 98.6988 21.9178 97.3241 21.9178C95.1401 21.9178 93.9316 20.022 93.9316 18.0154V13.3036C93.9325 13.2069 93.9713 13.1143 94.0398 13.0459C94.1082 12.9775 94.2007 12.9386 94.2975 12.9378C94.3936 12.9406 94.4851 12.98 94.5531 13.048C94.6211 13.116 94.6606 13.2075 94.6634 13.3036V18.0154C94.6634 19.6007 95.5614 21.175 97.3241 21.175C99.7964 21.175 100.384 18.8579 100.384 16.297V13.2925C100.385 13.2332 100.4 13.175 100.428 13.1226C100.456 13.0703 100.496 13.0255 100.545 12.9918C100.594 12.9582 100.65 12.9367 100.709 12.9292C100.767 12.9218 100.827 12.9285 100.883 12.9489C100.953 12.9812 101.012 13.0329 101.053 13.0977C101.094 13.1626 101.116 13.2379 101.116 13.3147Z" fill="#3B3B3B"/>
<path d="M119.735 16.5967V21.3084C119.732 21.4046 119.693 21.496 119.625 21.564C119.557 21.6321 119.465 21.6715 119.369 21.6743C119.321 21.6757 119.273 21.6672 119.228 21.6493C119.183 21.6314 119.142 21.6045 119.107 21.5702C119.073 21.536 119.046 21.4951 119.028 21.4501C119.01 21.4051 119.002 21.3569 119.003 21.3084V16.5967C119.003 15.0113 118.105 13.4592 116.343 13.4592C114.125 13.4592 113.283 15.8317 113.283 17.6721V21.3084C113.28 21.4046 113.241 21.496 113.172 21.564C113.104 21.6321 113.013 21.6715 112.917 21.6743C112.868 21.6757 112.82 21.6672 112.775 21.6493C112.73 21.6314 112.689 21.6045 112.655 21.5702C112.621 21.536 112.594 21.4951 112.576 21.4501C112.558 21.4051 112.55 21.3569 112.551 21.3084V16.5967C112.551 15.0113 111.653 13.4592 109.89 13.4592C107.651 13.4592 106.731 15.222 106.808 17.5723C106.808 17.6277 106.83 17.7275 106.808 17.7608V21.2974C106.808 21.391 106.774 21.4816 106.714 21.5527C106.653 21.6238 106.568 21.6709 106.476 21.6854C106.424 21.6923 106.371 21.6879 106.321 21.6725C106.272 21.6572 106.226 21.6313 106.187 21.5966C106.148 21.5618 106.117 21.5191 106.096 21.4713C106.075 21.4235 106.065 21.3717 106.065 21.3195V13.2819C106.066 13.1882 106.099 13.0976 106.16 13.0265C106.221 12.9554 106.306 12.9083 106.398 12.8938C106.45 12.887 106.502 12.8913 106.552 12.9067C106.602 12.922 106.648 12.9479 106.687 12.9827C106.726 13.0174 106.757 13.0601 106.778 13.1079C106.799 13.1557 106.809 13.2075 106.808 13.2597V14.6011C107.44 13.4703 108.571 12.7275 109.89 12.7275C111.387 12.7275 112.551 13.681 113.028 15.0668C113.637 13.6921 114.824 12.7275 116.343 12.7275C118.504 12.7275 119.735 14.6011 119.735 16.5967Z" fill="#3B3B3B"/>
<path opacity="0.6" d="M9.20177 11.0977L0 15.2772L9.20177 20.7207L18.4146 15.2772L9.20177 11.0977Z" fill="black"/>
<path opacity="0.45" d="M0 15.2772L9.20177 20.7206V0L0 15.2772Z" fill="black"/>
<path opacity="0.8" d="M9.20215 0V20.7206L18.415 15.2772L9.20215 0Z" fill="black"/>
<path opacity="0.45" d="M0 17.0288L9.20177 30V22.4612L0 17.0288Z" fill="black"/>
<path opacity="0.8" d="M9.20215 22.4612V30L18.415 17.0288L9.20215 22.4612Z" fill="black"/>
</g>
<defs>
<clipPath id="clip0">
<rect width="120" height="30" fill="white"/>
</clipPath>
</defs>
</svg>
