<svg width="120" height="30" viewBox="0 0 120 30" fill="none" xmlns="http://www.w3.org/2000/svg">
<g clip-path="url(#clip0)">
<path d="M33.9461 17.2616C33.9443 17.3659 33.9013 17.4653 33.8266 17.538C33.7518 17.6107 33.6512 17.6508 33.5469 17.6496H26.1966C26.3851 19.4678 27.7487 21.1308 29.6778 21.1308C30.9971 21.1308 31.9727 20.6319 32.7044 19.5787C32.7384 19.5233 32.7856 19.4772 32.8416 19.4444C32.8977 19.4115 32.961 19.3929 33.0259 19.3902C33.0743 19.3888 33.1225 19.3973 33.1675 19.4152C33.2125 19.4331 33.2534 19.46 33.2876 19.4943C33.3219 19.5285 33.3488 19.5694 33.3667 19.6144C33.3846 19.6594 33.3931 19.7076 33.3917 19.7561C33.392 19.8229 33.3727 19.8884 33.3363 19.9445C32.5935 21.2305 31.119 21.8625 29.6778 21.8625C27.2055 21.8625 25.4316 19.6452 25.4316 17.2838C25.4316 14.9224 27.1944 12.7051 29.6778 12.7051C32.1611 12.7051 33.935 14.9002 33.9461 17.2616ZM33.1589 16.9179C33.0037 15.0997 31.6068 13.4368 29.6778 13.4368C27.7487 13.4368 26.3851 15.0997 26.1966 16.9179H33.1589Z" fill="white"/>
<path d="M42.8849 12.8823C42.981 12.8851 43.0725 12.9245 43.1405 12.9925C43.2085 13.0605 43.2479 13.152 43.2507 13.2481C43.2521 13.2966 43.2436 13.3447 43.2257 13.3898C43.2078 13.4348 43.1809 13.4757 43.1466 13.5099C43.1124 13.5442 43.0715 13.5711 43.0265 13.589C42.9815 13.6068 42.9333 13.6154 42.8849 13.614H40.9115V21.3634C40.9106 21.4602 40.8718 21.5527 40.8034 21.6212C40.7349 21.6896 40.6424 21.7284 40.5456 21.7293C40.4495 21.7265 40.358 21.687 40.29 21.619C40.222 21.551 40.1825 21.4596 40.1798 21.3634V13.614H38.284C38.2355 13.6154 38.1874 13.6068 38.1423 13.589C38.0973 13.5711 38.0565 13.5442 38.0222 13.5099C37.988 13.4757 37.9611 13.4348 37.9432 13.3898C37.9253 13.3447 37.9167 13.2966 37.9181 13.2481C37.919 13.1514 37.9578 13.0588 38.0262 12.9904C38.0947 12.922 38.1872 12.8832 38.284 12.8823H40.1798V10.0552C40.1799 9.96157 40.2135 9.87103 40.2745 9.7999C40.3355 9.72878 40.4198 9.68173 40.5124 9.66722C40.5641 9.66035 40.6167 9.66473 40.6666 9.68006C40.7165 9.69538 40.7624 9.7213 40.8014 9.75604C40.8403 9.79077 40.8713 9.83351 40.8922 9.88132C40.9131 9.92913 40.9235 9.98089 40.9226 10.0331V12.8823H42.8849Z" fill="white"/>
<path d="M54.9126 16.6294V21.319C54.9098 21.4152 54.8703 21.5066 54.8023 21.5746C54.7343 21.6426 54.6429 21.6821 54.5467 21.6849C54.4983 21.6863 54.4501 21.6777 54.4051 21.6598C54.3601 21.6419 54.3192 21.615 54.285 21.5808C54.2507 21.5465 54.2238 21.5057 54.2059 21.4606C54.188 21.4156 54.1795 21.3674 54.1809 21.319V16.6294C54.1809 15.0441 53.2829 13.4698 51.5202 13.4698C49.2585 13.4698 48.2829 15.4432 48.416 17.472C48.416 17.5274 48.4382 17.7603 48.4382 17.7935V21.3079C48.438 21.4016 48.4044 21.4922 48.3434 21.5633C48.2824 21.6344 48.1981 21.6814 48.1056 21.696C48.0538 21.7028 48.0012 21.6985 47.9513 21.6831C47.9015 21.6678 47.8555 21.6419 47.8165 21.6071C47.7776 21.5724 47.7466 21.5297 47.7257 21.4819C47.7048 21.434 47.6944 21.3823 47.6954 21.3301V5.90882C47.6962 5.81206 47.7351 5.71951 47.8035 5.65108C47.8719 5.58266 47.9645 5.54384 48.0612 5.54297C48.1574 5.54576 48.2488 5.5852 48.3168 5.65321C48.3848 5.72123 48.4243 5.81267 48.4271 5.90882V14.6228C49.059 13.492 50.1898 12.727 51.5091 12.727C53.682 12.727 54.9126 14.6228 54.9126 16.6294Z" fill="white"/>
<path d="M68.116 17.2616C68.1142 17.3659 68.0713 17.4653 67.9965 17.538C67.9217 17.6107 67.8212 17.6508 67.7169 17.6496H60.3665C60.555 19.4678 61.9186 21.1308 63.8477 21.1308C65.167 21.1308 66.1426 20.6319 66.8743 19.5787C66.9084 19.5233 66.9555 19.4772 67.0115 19.4444C67.0676 19.4115 67.1309 19.3929 67.1958 19.3902C67.2442 19.3888 67.2924 19.3973 67.3374 19.4152C67.3824 19.4331 67.4233 19.46 67.4576 19.4943C67.4918 19.5285 67.5187 19.5694 67.5366 19.6144C67.5545 19.6594 67.563 19.7076 67.5616 19.7561C67.5619 19.8229 67.5426 19.8884 67.5062 19.9445C66.7634 21.2305 65.2889 21.8625 63.8477 21.8625C61.3754 21.8625 59.6016 19.6452 59.6016 17.2838C59.6016 14.9224 61.3643 12.7051 63.8477 12.7051C66.3089 12.7051 68.1049 14.9002 68.116 17.2616ZM67.3177 16.9179C67.1625 15.0997 65.7656 13.4368 63.8366 13.4368C61.9075 13.4368 60.5439 15.0997 60.3554 16.9179H67.3177Z" fill="white"/>
<path d="M77.1537 13.2265C77.1607 13.3249 77.1285 13.4221 77.0642 13.4969C76.9998 13.5717 76.9084 13.6179 76.81 13.6256C74.6482 13.9471 73.6725 15.7099 73.6725 17.7608V21.2752C73.6724 21.3689 73.6388 21.4595 73.5778 21.5306C73.5168 21.6017 73.4325 21.6488 73.3399 21.6633C73.2882 21.6701 73.2356 21.6658 73.1857 21.6504C73.1358 21.6351 73.0899 21.6092 73.0509 21.5745C73.012 21.5397 72.981 21.497 72.9601 21.4492C72.9392 21.4014 72.9288 21.3496 72.9297 21.2974V13.2819C72.9299 13.1882 72.9635 13.0977 73.0245 13.0266C73.0855 12.9555 73.1698 12.9084 73.2623 12.8939C73.3141 12.887 73.3667 12.8914 73.4166 12.9067C73.4664 12.9221 73.5124 12.948 73.5514 12.9827C73.5903 13.0175 73.6213 13.0602 73.6422 13.108C73.6631 13.1558 73.6735 13.2076 73.6725 13.2598V14.8895C74.2823 13.8584 75.4907 12.8828 76.7546 12.8828C76.9431 12.8828 77.1537 13.0159 77.1537 13.2265Z" fill="white"/>
<path d="M89.2371 17.2616C89.2353 17.3659 89.1924 17.4653 89.1176 17.538C89.0428 17.6107 88.9423 17.6508 88.838 17.6496H81.4876C81.6761 19.4678 83.0397 21.1308 84.9688 21.1308C86.2881 21.1308 87.2637 20.6319 87.9954 19.5787C88.0295 19.5233 88.0766 19.4772 88.1327 19.4444C88.1887 19.4115 88.252 19.3929 88.3169 19.3902C88.3653 19.3888 88.4135 19.3973 88.4585 19.4152C88.5035 19.4331 88.5444 19.46 88.5787 19.4943C88.6129 19.5285 88.6398 19.5694 88.6577 19.6144C88.6756 19.6594 88.6841 19.7076 88.6828 19.7561C88.683 19.8229 88.6637 19.8884 88.6273 19.9445C87.8845 21.2305 86.41 21.8625 84.9688 21.8625C82.4965 21.8625 80.7227 19.6452 80.7227 17.2838C80.7227 14.9224 82.4854 12.7051 84.9688 12.7051C87.4522 12.7051 89.226 14.9002 89.2371 17.2616ZM88.4499 16.9179C88.2947 15.0997 86.8978 13.4368 84.9688 13.4368C83.0397 13.4368 81.6761 15.0997 81.4876 16.9179H88.4499Z" fill="white"/>
<path d="M101.116 13.3142V21.363C101.113 21.4591 101.073 21.5506 101.005 21.6186C100.937 21.6866 100.846 21.726 100.75 21.7288C100.701 21.7302 100.653 21.7217 100.608 21.7038C100.563 21.6859 100.522 21.659 100.488 21.6247C100.454 21.5905 100.427 21.5496 100.409 21.5046C100.391 21.4596 100.383 21.4114 100.384 21.363V19.833C99.7742 21.0415 98.6988 21.9173 97.3241 21.9173C95.1401 21.9173 93.9316 20.0215 93.9316 18.0149V13.3031C93.9325 13.2064 93.9713 13.1138 94.0398 13.0454C94.1082 12.977 94.2007 12.9381 94.2975 12.9373C94.3936 12.9401 94.4851 12.9795 94.5531 13.0475C94.6211 13.1155 94.6606 13.207 94.6634 13.3031V18.0149C94.6634 19.6002 95.5614 21.1745 97.3241 21.1745C99.7964 21.1745 100.384 18.8574 100.384 16.2965V13.292C100.385 13.2327 100.4 13.1745 100.428 13.1222C100.456 13.0698 100.496 13.025 100.545 12.9913C100.594 12.9577 100.65 12.9362 100.709 12.9287C100.767 12.9213 100.827 12.928 100.883 12.9484C100.953 12.9808 101.012 13.0324 101.053 13.0972C101.094 13.1621 101.116 13.2374 101.116 13.3142Z" fill="white"/>
<path d="M119.735 16.5957V21.3075C119.732 21.4036 119.693 21.4951 119.625 21.5631C119.557 21.6311 119.465 21.6705 119.369 21.6733C119.321 21.6747 119.273 21.6662 119.228 21.6483C119.183 21.6304 119.142 21.6035 119.107 21.5692C119.073 21.535 119.046 21.4941 119.028 21.4491C119.01 21.4041 119.002 21.3559 119.003 21.3075V16.5957C119.003 15.0104 118.105 13.4583 116.343 13.4583C114.125 13.4583 113.283 15.8308 113.283 17.6711V21.3075C113.28 21.4036 113.241 21.4951 113.172 21.5631C113.104 21.6311 113.013 21.6705 112.917 21.6733C112.868 21.6747 112.82 21.6662 112.775 21.6483C112.73 21.6304 112.689 21.6035 112.655 21.5692C112.621 21.535 112.594 21.4941 112.576 21.4491C112.558 21.4041 112.55 21.3559 112.551 21.3075V16.5957C112.551 15.0104 111.653 13.4583 109.89 13.4583C107.651 13.4583 106.731 15.221 106.808 17.5713C106.808 17.6268 106.83 17.7265 106.808 17.7598V21.2964C106.808 21.3901 106.774 21.4806 106.714 21.5517C106.653 21.6228 106.568 21.6699 106.476 21.6844C106.424 21.6913 106.371 21.6869 106.321 21.6716C106.272 21.6562 106.226 21.6303 106.187 21.5956C106.148 21.5608 106.117 21.5181 106.096 21.4703C106.075 21.4225 106.065 21.3707 106.065 21.3186V13.2809C106.066 13.1872 106.099 13.0967 106.16 13.0255C106.221 12.9544 106.306 12.9074 106.398 12.8929C106.45 12.886 106.502 12.8904 106.552 12.9057C106.602 12.921 106.648 12.9469 106.687 12.9817C106.726 13.0164 106.757 13.0591 106.778 13.107C106.799 13.1548 106.809 13.2065 106.808 13.2587V14.6002C107.44 13.4694 108.571 12.7266 109.89 12.7266C111.387 12.7266 112.551 13.68 113.028 15.0658C113.637 13.6911 114.824 12.7266 116.343 12.7266C118.504 12.7266 119.735 14.6002 119.735 16.5957Z" fill="white"/>
<path opacity="0.6" d="M9.20177 11.0977L0 15.2772L9.20177 20.7207L18.4146 15.2772L9.20177 11.0977Z" fill="white"/>
<path opacity="0.45" d="M0 15.2772L9.20177 20.7206V0L0 15.2772Z" fill="white"/>
<path opacity="0.8" d="M9.20215 0V20.7206L18.415 15.2772L9.20215 0Z" fill="white"/>
<path opacity="0.45" d="M0 17.0293L9.20177 30.0005V22.4617L0 17.0293Z" fill="white"/>
<path opacity="0.8" d="M9.20215 22.4617V30.0005L18.415 17.0293L9.20215 22.4617Z" fill="white"/>
</g>
<defs>
<clipPath id="clip0">
<rect width="120" height="30" fill="white"/>
</clipPath>
</defs>
</svg>
