<svg width="107" height="30" viewBox="0 0 107 30" fill="none" xmlns="http://www.w3.org/2000/svg">
<g clip-path="url(#clip0)">
<path d="M15.0088 0.0854492C6.76783 0.0854492 0.0859375 6.76735 0.0859375 15.0084C0.0859375 23.2494 6.76783 29.9313 15.0088 29.9313C23.2498 29.9313 29.9317 23.2494 29.9317 15.0084C29.9146 6.76735 23.2498 0.0854492 15.0088 0.0854492ZM15.2316 15.4881L13.6896 20.7308H21.982C22.2733 20.7308 22.4617 21.0049 22.3932 21.2791L21.6736 23.7633C21.6051 24.0032 21.3823 24.1745 21.1253 24.1745H8.44687L10.5885 16.9273L8.22414 17.664L8.73814 15.9507L11.1196 15.2139L14.1351 5.03691C14.2036 4.79704 14.4263 4.62571 14.6833 4.62571H17.8872C18.1785 4.62571 18.3669 4.89984 18.2984 5.17397L15.7456 13.7748L18.1099 13.038L17.5959 14.7685L15.2316 15.4881Z" fill="#345D9D"/>
<path d="M38.5499 4.60889H37.6247C37.4534 4.60889 37.3334 4.71169 37.2992 4.88302L34.9006 23.8836C34.8834 24.0721 34.9348 24.1577 35.1233 24.1577H36.0485C36.2369 24.1577 36.3397 24.0721 36.374 23.8836L38.7897 4.88302C38.8411 4.69455 38.7383 4.60889 38.5499 4.60889Z" fill="#345D9D"/>
<path d="M43.4004 10.0913H42.4753C42.3039 10.0913 42.184 10.177 42.1497 10.3654L40.4364 23.9006C40.4193 24.089 40.5221 24.1747 40.6934 24.1747H41.6186C41.7899 24.1747 41.9099 24.089 41.9441 23.9006L43.6403 10.3826C43.6574 10.1941 43.5889 10.0913 43.4004 10.0913Z" fill="#345D9D"/>
<path d="M83.9367 9.86865C82.6517 9.86865 81.538 10.2284 80.5957 10.9652C79.6534 11.7019 79.0366 12.6613 78.7282 13.8607C78.4712 14.8372 78.2485 16.2079 78.1457 17.1331C78.0086 18.3838 77.8887 19.4118 77.8887 20.4055C77.9058 21.6219 78.2999 22.5814 79.0366 23.3181C79.7905 24.0377 80.8185 24.4146 82.1206 24.4146C83.3884 24.4146 84.5021 24.0548 85.4444 23.3181C86.3868 22.5985 87.0036 21.6219 87.312 20.4055C87.5176 19.6002 87.7232 18.5208 87.8945 17.1331C88.0658 15.6939 88.1515 14.5974 88.1515 13.8435C88.1515 12.6442 87.7745 11.6848 87.0207 10.9652C86.2497 10.2284 85.2217 9.86865 83.9367 9.86865ZM86.541 15.8138C86.4553 16.4991 86.4039 16.9446 86.3868 17.1331C86.2154 18.538 86.0612 19.5317 85.9242 20.1313C85.7186 21.0223 85.2731 21.7418 84.6049 22.2901C83.9367 22.8384 83.1486 23.0954 82.2748 23.0954C81.3839 23.0954 80.6814 22.8212 80.1503 22.2901C79.6191 21.759 79.3621 21.0565 79.3621 20.1827C79.3621 19.7201 79.4135 19.1376 79.4992 18.4523C79.5849 17.767 79.6363 17.3215 79.6534 17.1331C79.8247 15.7967 79.9789 14.803 80.116 14.1348C80.3216 13.2439 80.7671 12.5243 81.4352 11.976C82.1034 11.4278 82.8916 11.1708 83.7654 11.1708C84.6563 11.1708 85.3588 11.4449 85.8899 11.9589C86.421 12.49 86.678 13.1925 86.678 14.0662C86.678 14.5631 86.6266 15.1285 86.541 15.8138Z" fill="#345D9D"/>
<path d="M93.4297 10.0913H92.5217C92.3504 10.0913 92.2304 10.1941 92.1962 10.3654L90.4657 23.9006C90.4486 24.089 90.5514 24.1747 90.7227 24.1747H91.6479C91.8192 24.1747 91.9392 24.089 91.9734 23.9006L93.6696 10.3826C93.6867 10.1941 93.6182 10.0913 93.4297 10.0913Z" fill="#345D9D"/>
<path d="M105.108 10.8966C104.474 10.2284 103.583 9.90283 102.418 9.90283C101.664 9.90283 100.979 10.0399 100.345 10.3312C99.7112 10.6224 99.1801 11.0507 98.7346 11.6333C98.649 11.7018 98.6147 11.6847 98.6147 11.5819L98.7518 10.3826C98.7689 10.2112 98.7004 10.1084 98.529 10.1084H97.6039C97.4325 10.1084 97.3126 10.2112 97.2783 10.3826L95.5822 23.9006C95.5651 24.0719 95.6165 24.1747 95.8049 24.1747H96.7301C96.9014 24.1747 97.0213 24.0719 97.0385 23.9006L98.272 14.2032C98.4776 13.2952 98.906 12.5585 99.5399 12.0273C100.174 11.4962 100.928 11.2221 101.819 11.2221C102.641 11.2221 103.292 11.4791 103.772 11.9931C104.251 12.5071 104.491 13.1924 104.491 14.0662C104.491 14.3232 104.474 14.5288 104.457 14.683L103.275 23.9006C103.275 23.9862 103.275 24.0376 103.309 24.089C103.36 24.1404 103.429 24.1747 103.532 24.1747H104.457C104.628 24.1747 104.748 24.089 104.765 23.9006L105.948 14.4602C105.982 14.0833 105.999 13.8092 105.999 13.6207C106.05 12.4557 105.742 11.5476 105.108 10.8966Z" fill="#345D9D"/>
<path d="M43.9971 4.62587C43.4488 4.33461 42.7463 4.54021 42.4722 5.1056C42.1809 5.65385 42.4037 6.3563 42.9519 6.64756C43.5002 6.93882 44.1855 6.71609 44.4768 6.16784C44.7681 5.60245 44.5625 4.91713 43.9971 4.62587Z" fill="#345D9D"/>
<path d="M94.0937 4.62587C93.5454 4.33461 92.843 4.54021 92.5689 5.1056C92.2776 5.65385 92.5003 6.3563 93.0486 6.64756C93.5968 6.93882 94.2993 6.71609 94.5905 6.16784C94.8647 5.60245 94.6419 4.91713 94.0937 4.62587Z" fill="#345D9D"/>
<path d="M71.8751 9.86865C70.5901 9.86865 69.4765 10.2456 68.5342 10.9652C67.5919 11.7019 66.9751 12.6613 66.6667 13.8607C66.4097 14.8372 66.1698 16.3792 66.0841 17.1331C65.9642 18.2296 65.8271 19.4118 65.8271 20.4055C65.8443 21.6219 66.2383 22.5814 66.9751 23.3181C67.7289 24.0377 68.7569 24.4146 70.059 24.4146C71.3269 24.4146 72.4405 24.0548 73.3828 23.3181C74.3251 22.5985 74.9419 21.6219 75.2503 20.4055C75.2675 20.3027 75.3017 20.1999 75.3189 20.0971C75.336 20.0114 75.2675 19.9429 75.1989 19.9429H74.051C73.9825 19.9429 73.8968 19.9771 73.8797 20.0799C73.8797 20.0971 73.8626 20.1313 73.8626 20.1313C73.657 21.0223 73.2115 21.7418 72.5433 22.2901C71.8751 22.8384 71.087 23.0954 70.2132 23.0954C69.3223 23.0954 68.6198 22.8212 68.0887 22.2901C67.5576 21.759 67.3006 21.0565 67.3006 20.1827C67.3006 19.7201 67.352 19.1376 67.4377 18.4523C67.5062 17.8698 67.5747 17.3215 67.5919 17.1331C67.7632 15.7967 67.9174 14.803 68.0544 14.1348C68.26 13.2439 68.7055 12.5243 69.3737 11.976C70.0419 11.4278 70.83 11.1708 71.7038 11.1708C72.5776 11.1708 73.2972 11.4278 73.8283 11.9589C74.3594 12.49 74.6164 13.1925 74.6164 14.0662V14.0834C74.6164 14.2033 74.7192 14.3061 74.8391 14.3061H75.9185C76.0042 14.3061 76.0899 14.2376 76.0899 14.1348C76.0899 14.0148 76.0899 13.912 76.0899 13.8093C76.0899 12.6099 75.7129 11.6505 74.9591 10.9309C74.1881 10.2284 73.1772 9.86865 71.8751 9.86865Z" fill="#345D9D"/>
<path d="M62.5699 10.9652C61.816 10.2456 60.788 9.86865 59.5031 9.86865C58.2181 9.86865 57.1044 10.2284 56.1621 10.9652C55.2198 11.7019 54.603 12.6613 54.2946 13.8607C54.0376 14.8372 53.9177 15.711 53.7121 17.1331C53.5236 18.538 53.4551 19.4118 53.4551 20.4055C53.4722 21.6219 53.8663 22.5814 54.603 23.3181C55.3569 24.0377 56.3848 24.4146 57.6869 24.4146C58.9548 24.4146 60.0684 24.0548 61.0108 23.3181C61.9531 22.5985 62.5699 21.6219 62.8783 20.4055C62.8954 20.3027 62.9297 20.1999 62.9468 20.0971C62.9639 20.0114 62.9125 19.9429 62.8269 19.9429H61.679C61.6104 19.9429 61.5248 19.9771 61.5076 20.0799C61.5076 20.0971 61.4905 20.1313 61.4905 20.1313C61.2849 21.0223 60.8394 21.7418 60.1712 22.2901C59.5031 22.8384 58.7149 23.0954 57.8411 23.0954C56.9502 23.0954 56.2478 22.8212 55.7166 22.2901C55.1855 21.759 54.9285 21.0565 54.9285 20.1827C54.9285 19.7715 54.9628 19.2576 55.0313 18.675L63.358 16.0879C63.5293 16.0365 63.5979 15.9509 63.6321 15.7453C63.6835 15.317 63.7178 14.5802 63.7178 13.8264C63.7007 12.747 63.3237 11.6848 62.5699 10.9652ZM62.2443 14.8544C62.2443 14.94 62.1929 15.0086 62.1073 15.0257L55.2027 17.1673C55.2027 17.1502 55.2027 17.1502 55.2027 17.1331C55.374 15.7967 55.5282 14.803 55.6652 14.1348C55.8708 13.2439 56.3163 12.5243 56.9845 11.976C57.6527 11.4278 58.4408 11.1708 59.3146 11.1708C60.2055 11.1708 60.908 11.4449 61.4391 11.9589C62.2786 12.8327 62.2957 13.7236 62.2443 14.8544Z" fill="#345D9D"/>
<path d="M50.2834 22.6843C50.4548 22.5986 50.6432 22.7185 50.609 22.907L50.489 23.8322C50.4719 23.9521 50.3862 24.0549 50.2834 24.1063C49.461 24.4147 48.3131 24.5518 47.3879 24.1406C46.3257 23.6609 46.0516 22.6157 46.2058 21.3136L47.4222 11.3936L47.5935 9.97154L48.0047 6.81905C48.0219 6.63059 48.1418 6.54492 48.3303 6.54492H49.2212C49.4268 6.54492 49.4782 6.66485 49.4439 6.81905L48.9128 11.3079H51.8083C51.9796 11.3079 52.0481 11.4107 52.0481 11.582L51.9625 12.2331C51.9453 12.3359 51.9282 12.3873 51.8768 12.4558C51.8254 12.5072 51.7226 12.5244 51.6541 12.5244H48.7757L47.7649 20.6626C47.6621 21.5364 47.5421 22.3245 47.9876 22.7528C48.5701 23.2325 49.7009 22.9584 50.2834 22.6843Z" fill="#345D9D"/>
</g>
<defs>
<clipPath id="clip0">
<rect width="106.139" height="30" fill="white"/>
</clipPath>
</defs>
</svg>
