<svg width="107" height="30" viewBox="0 0 107 30" fill="none" xmlns="http://www.w3.org/2000/svg">
<g clip-path="url(#clip0)">
<path d="M15.0088 0.0859375C6.76783 0.0859375 0.0859375 6.76783 0.0859375 15.0088C0.0859375 23.2498 6.76783 29.9317 15.0088 29.9317C23.2498 29.9317 29.9317 23.2498 29.9317 15.0088C29.9146 6.76783 23.2498 0.0859375 15.0088 0.0859375ZM15.2316 15.4886L13.6896 20.7313H21.982C22.2733 20.7313 22.4617 21.0054 22.3932 21.2795L21.6736 23.7638C21.6051 24.0037 21.3823 24.175 21.1253 24.175H8.44687L10.5885 16.9277L8.22414 17.6645L8.73814 15.9512L11.1196 15.2144L14.1351 5.03739C14.2036 4.79753 14.4263 4.6262 14.6833 4.6262H17.8872C18.1785 4.6262 18.3669 4.90033 18.2984 5.17446L15.7456 13.7753L18.1099 13.0385L17.5959 14.769L15.2316 15.4886Z" fill="#377DEA"/>
<path d="M38.5499 4.60938H37.6247C37.4534 4.60938 37.3334 4.71217 37.2992 4.8835L34.9006 23.8841C34.8834 24.0726 34.9348 24.1582 35.1233 24.1582H36.0485C36.2369 24.1582 36.3397 24.0726 36.374 23.8841L38.7897 4.8835C38.8411 4.69504 38.7383 4.60938 38.5499 4.60938Z" fill="#377DEA"/>
<path d="M43.4004 10.0918H42.4753C42.3039 10.0918 42.184 10.1775 42.1497 10.3659L40.4364 23.9011C40.4193 24.0895 40.5221 24.1752 40.6934 24.1752H41.6186C41.7899 24.1752 41.9099 24.0895 41.9441 23.9011L43.6403 10.3831C43.6574 10.1946 43.5889 10.0918 43.4004 10.0918Z" fill="#377DEA"/>
<path d="M83.9367 9.86914C82.6517 9.86914 81.538 10.2289 80.5957 10.9657C79.6534 11.7024 79.0366 12.6618 78.7282 13.8611C78.4712 14.8377 78.2485 16.2084 78.1457 17.1335C78.0086 18.3843 77.8887 19.4122 77.8887 20.406C77.9058 21.6224 78.2999 22.5819 79.0366 23.3186C79.7905 24.0382 80.8185 24.4151 82.1206 24.4151C83.3884 24.4151 84.5021 24.0553 85.4444 23.3186C86.3868 22.599 87.0036 21.6224 87.312 20.406C87.5176 19.6007 87.7232 18.5213 87.8945 17.1335C88.0658 15.6944 88.1515 14.5979 88.1515 13.844C88.1515 12.6447 87.7745 11.6852 87.0207 10.9657C86.2497 10.2289 85.2217 9.86914 83.9367 9.86914ZM86.541 15.8143C86.4553 16.4996 86.4039 16.9451 86.3868 17.1335C86.2154 18.5385 86.0612 19.5322 85.9242 20.1318C85.7186 21.0227 85.2731 21.7423 84.6049 22.2906C83.9367 22.8389 83.1486 23.0958 82.2748 23.0958C81.3839 23.0958 80.6814 22.8217 80.1503 22.2906C79.6191 21.7595 79.3621 21.057 79.3621 20.1832C79.3621 19.7206 79.4135 19.1381 79.4992 18.4528C79.5849 17.7675 79.6363 17.322 79.6534 17.1335C79.8247 15.7972 79.9789 14.8035 80.116 14.1353C80.3216 13.2443 80.7671 12.5248 81.4352 11.9765C82.1034 11.4282 82.8916 11.1713 83.7654 11.1713C84.6563 11.1713 85.3588 11.4454 85.8899 11.9594C86.421 12.4905 86.678 13.193 86.678 14.0667C86.678 14.5636 86.6266 15.129 86.541 15.8143Z" fill="#377DEA"/>
<path d="M93.4297 10.0918H92.5217C92.3504 10.0918 92.2304 10.1946 92.1962 10.3659L90.4657 23.9011C90.4486 24.0895 90.5514 24.1752 90.7227 24.1752H91.6479C91.8192 24.1752 91.9392 24.0895 91.9734 23.9011L93.6696 10.3831C93.6867 10.1946 93.6182 10.0918 93.4297 10.0918Z" fill="#377DEA"/>
<path d="M105.108 10.8961C104.474 10.2279 103.583 9.90234 102.418 9.90234C101.664 9.90234 100.979 10.0394 100.345 10.3307C99.7112 10.6219 99.1801 11.0503 98.7346 11.6328C98.649 11.7013 98.6147 11.6842 98.6147 11.5814L98.7518 10.3821C98.7689 10.2107 98.7004 10.1079 98.529 10.1079H97.6039C97.4325 10.1079 97.3126 10.2107 97.2783 10.3821L95.5822 23.9001C95.5651 24.0714 95.6165 24.1742 95.8049 24.1742H96.7301C96.9014 24.1742 97.0213 24.0714 97.0385 23.9001L98.272 14.2027C98.4776 13.2947 98.906 12.558 99.5399 12.0268C100.174 11.4957 100.928 11.2216 101.819 11.2216C102.641 11.2216 103.292 11.4786 103.772 11.9926C104.251 12.5066 104.491 13.1919 104.491 14.0657C104.491 14.3227 104.474 14.5283 104.457 14.6825L103.275 23.9001C103.275 23.9857 103.275 24.0371 103.309 24.0885C103.36 24.1399 103.429 24.1742 103.532 24.1742H104.457C104.628 24.1742 104.748 24.0885 104.765 23.9001L105.948 14.4597C105.982 14.0828 105.999 13.8087 105.999 13.6202C106.05 12.4552 105.742 11.5471 105.108 10.8961Z" fill="#377DEA"/>
<path d="M43.9971 4.62587C43.4488 4.33461 42.7463 4.54021 42.4722 5.1056C42.1809 5.65385 42.4037 6.3563 42.9519 6.64756C43.5002 6.93882 44.1855 6.71609 44.4768 6.16784C44.7681 5.60245 44.5625 4.91713 43.9971 4.62587Z" fill="#377DEA"/>
<path d="M94.0937 4.62587C93.5454 4.33461 92.843 4.54021 92.5689 5.1056C92.2776 5.65385 92.5003 6.3563 93.0486 6.64756C93.5968 6.93882 94.2993 6.71609 94.5905 6.16784C94.8647 5.60245 94.6419 4.91713 94.0937 4.62587Z" fill="#377DEA"/>
<path d="M71.8751 9.86914C70.5901 9.86914 69.4765 10.2461 68.5342 10.9657C67.5919 11.7024 66.9751 12.6618 66.6667 13.8611C66.4097 14.8377 66.1698 16.3797 66.0841 17.1335C65.9642 18.2301 65.8271 19.4122 65.8271 20.406C65.8443 21.6224 66.2383 22.5819 66.9751 23.3186C67.7289 24.0382 68.7569 24.4151 70.059 24.4151C71.3269 24.4151 72.4405 24.0553 73.3828 23.3186C74.3251 22.599 74.9419 21.6224 75.2503 20.406C75.2675 20.3032 75.3017 20.2004 75.3189 20.0976C75.336 20.0119 75.2675 19.9434 75.1989 19.9434H74.051C73.9825 19.9434 73.8968 19.9776 73.8797 20.0804C73.8797 20.0976 73.8626 20.1318 73.8626 20.1318C73.657 21.0227 73.2115 21.7423 72.5433 22.2906C71.8751 22.8389 71.087 23.0958 70.2132 23.0958C69.3223 23.0958 68.6198 22.8217 68.0887 22.2906C67.5576 21.7595 67.3006 21.057 67.3006 20.1832C67.3006 19.7206 67.352 19.1381 67.4377 18.4528C67.5062 17.8703 67.5747 17.322 67.5919 17.1335C67.7632 15.7972 67.9174 14.8035 68.0544 14.1353C68.26 13.2443 68.7055 12.5248 69.3737 11.9765C70.0419 11.4282 70.83 11.1713 71.7038 11.1713C72.5776 11.1713 73.2972 11.4282 73.8283 11.9594C74.3594 12.4905 74.6164 13.193 74.6164 14.0667V14.0839C74.6164 14.2038 74.7192 14.3066 74.8391 14.3066H75.9185C76.0042 14.3066 76.0899 14.2381 76.0899 14.1353C76.0899 14.0153 76.0899 13.9125 76.0899 13.8097C76.0899 12.6104 75.7129 11.651 74.9591 10.9314C74.1881 10.2289 73.1772 9.86914 71.8751 9.86914Z" fill="#377DEA"/>
<path d="M62.5699 10.9657C61.816 10.2461 60.788 9.86914 59.5031 9.86914C58.2181 9.86914 57.1044 10.2289 56.1621 10.9657C55.2198 11.7024 54.603 12.6618 54.2946 13.8611C54.0376 14.8377 53.9177 15.7115 53.7121 17.1335C53.5236 18.5385 53.4551 19.4122 53.4551 20.406C53.4722 21.6224 53.8663 22.5819 54.603 23.3186C55.3569 24.0382 56.3848 24.4151 57.6869 24.4151C58.9548 24.4151 60.0684 24.0553 61.0108 23.3186C61.9531 22.599 62.5699 21.6224 62.8783 20.406C62.8954 20.3032 62.9297 20.2004 62.9468 20.0976C62.9639 20.0119 62.9125 19.9434 62.8269 19.9434H61.679C61.6104 19.9434 61.5248 19.9776 61.5076 20.0804C61.5076 20.0976 61.4905 20.1318 61.4905 20.1318C61.2849 21.0227 60.8394 21.7423 60.1712 22.2906C59.5031 22.8389 58.7149 23.0958 57.8411 23.0958C56.9502 23.0958 56.2478 22.8217 55.7166 22.2906C55.1855 21.7595 54.9285 21.057 54.9285 20.1832C54.9285 19.772 54.9628 19.258 55.0313 18.6755L63.358 16.0884C63.5293 16.037 63.5979 15.9514 63.6321 15.7458C63.6835 15.3174 63.7178 14.5807 63.7178 13.8269C63.7007 12.7475 63.3237 11.6852 62.5699 10.9657ZM62.2443 14.8549C62.2443 14.9405 62.1929 15.0091 62.1073 15.0262L55.2027 17.1678C55.2027 17.1507 55.2027 17.1507 55.2027 17.1335C55.374 15.7972 55.5282 14.8035 55.6652 14.1353C55.8708 13.2443 56.3163 12.5248 56.9845 11.9765C57.6527 11.4282 58.4408 11.1713 59.3146 11.1713C60.2055 11.1713 60.908 11.4454 61.4391 11.9594C62.2786 12.8332 62.2957 13.7241 62.2443 14.8549Z" fill="#377DEA"/>
<path d="M50.2834 22.6843C50.4548 22.5986 50.6432 22.7185 50.609 22.907L50.489 23.8322C50.4719 23.9521 50.3862 24.0549 50.2834 24.1063C49.461 24.4147 48.3131 24.5518 47.3879 24.1406C46.3257 23.6609 46.0516 22.6157 46.2058 21.3136L47.4222 11.3936L47.5935 9.97154L48.0047 6.81905C48.0219 6.63059 48.1418 6.54492 48.3303 6.54492H49.2212C49.4268 6.54492 49.4782 6.66485 49.4439 6.81905L48.9128 11.3079H51.8083C51.9796 11.3079 52.0481 11.4107 52.0481 11.582L51.9625 12.2331C51.9453 12.3359 51.9282 12.3873 51.8768 12.4558C51.8254 12.5072 51.7226 12.5244 51.6541 12.5244H48.7757L47.7649 20.6626C47.6621 21.5364 47.5421 22.3245 47.9876 22.7528C48.5701 23.2325 49.7009 22.9584 50.2834 22.6843Z" fill="#377DEA"/>
</g>
<defs>
<clipPath id="clip0">
<rect width="106.139" height="30" fill="white"/>
</clipPath>
</defs>
</svg>
