<svg width="71" height="30" viewBox="0 0 71 30" fill="none" xmlns="http://www.w3.org/2000/svg">
<g clip-path="url(#clip0)">
<path d="M28.5141 13.188H27.3369V20.8742H28.5141V13.188Z" fill="#262729"/>
<path d="M33.7866 9.93213H24.1914V11.1093H33.7866V9.93213Z" fill="#262729"/>
<path d="M30.6401 13.188H29.4629V20.8742H30.6401V13.188Z" fill="#262729"/>
<path d="M63.1592 20.8818H64.347V16.2525L63.1592 14.9321V20.8818Z" fill="#262729"/>
<path d="M69.4138 9.9319V18.5143L61.0117 9.17627V20.882H62.1969V12.2969L70.6043 21.6376V9.9319H69.4138Z" fill="#262729"/>
<path d="M53.3217 9.92676C50.3018 9.92676 47.8467 12.3819 47.8467 15.4018C47.8467 18.4216 50.3018 20.8767 53.3217 20.8767C56.3416 20.8767 58.7967 18.4216 58.7967 15.4018C58.7967 12.3845 56.3416 9.92676 53.3217 9.92676ZM53.3217 19.6969C50.9541 19.6969 49.0265 17.772 49.0265 15.4018C49.0265 13.0315 50.9514 11.1066 53.3217 11.1066C55.6894 11.1066 57.6169 13.0315 57.6169 15.4018C57.6169 17.7694 55.6894 19.6969 53.3217 19.6969Z" fill="#262729"/>
<path d="M53.3216 14.6143C52.8868 14.6143 52.5342 14.9669 52.5342 15.4017C52.5342 15.8365 52.8868 16.1892 53.3216 16.1892C53.7564 16.1892 54.1091 15.8365 54.1091 15.4017C54.1091 14.9669 53.7564 14.6143 53.3216 14.6143Z" fill="#262729"/>
<path d="M45.7873 13.2912C45.7873 11.4405 44.292 9.93457 42.4547 9.93457H36.1924V20.8846H37.3616V11.1224H42.4547C43.6345 11.1224 44.5942 12.0954 44.5942 13.2912C44.5942 14.4816 43.6477 15.4493 42.4785 15.4626L38.324 15.4599V20.8846H39.4932V16.6477H42.232L44.4696 20.8819H45.8297L43.494 16.4807C44.8434 16.0326 45.7873 14.7282 45.7873 13.2912Z" fill="#262729"/>
<path d="M16.0956 7.76316L0.139648 4.82812L8.53653 25.954L20.2344 11.7004L16.0956 7.76316ZM15.8411 9.05701L18.283 11.3769L11.6068 12.5859L15.8411 9.05701ZM10.1565 12.3447L3.11979 6.50907L14.6188 8.62484L10.1565 12.3447ZM9.65276 13.3787L8.50737 22.8625L2.32173 7.29387L9.65276 13.3787ZM10.7133 13.8798L18.1053 12.5409L9.6289 22.8705L10.7133 13.8798Z" fill="#EB0029"/>
</g>
<defs>
<clipPath id="clip0">
<rect width="70" height="30" fill="white" transform="translate(0.139648)"/>
</clipPath>
</defs>
</svg>
