<svg width="71" height="30" viewBox="0 0 71 30" fill="none" xmlns="http://www.w3.org/2000/svg">
<g clip-path="url(#clip0)">
<path d="M28.5141 13.1875H27.3369V20.8738H28.5141V13.1875Z" fill="white"/>
<path d="M33.7866 9.93164H24.1914V11.1088H33.7866V9.93164Z" fill="white"/>
<path d="M30.6401 13.1875H29.4629V20.8738H30.6401V13.1875Z" fill="white"/>
<path d="M63.1592 20.8813H64.347V16.252L63.1592 14.9316V20.8813Z" fill="white"/>
<path d="M69.4138 9.93142V18.5138L61.0117 9.17578V20.8815H62.1969V12.2964L70.6043 21.6371V9.93142H69.4138Z" fill="white"/>
<path d="M53.3217 9.92578C50.3018 9.92578 47.8467 12.3809 47.8467 15.4008C47.8467 18.4206 50.3018 20.8758 53.3217 20.8758C56.3416 20.8758 58.7967 18.4206 58.7967 15.4008C58.7967 12.3836 56.3416 9.92578 53.3217 9.92578ZM53.3217 19.6959C50.9541 19.6959 49.0265 17.7711 49.0265 15.4008C49.0265 13.0305 50.9514 11.1056 53.3217 11.1056C55.6894 11.1056 57.6169 13.0305 57.6169 15.4008C57.6169 17.7684 55.6894 19.6959 53.3217 19.6959Z" fill="white"/>
<path d="M53.3216 14.6133C52.8868 14.6133 52.5342 14.9659 52.5342 15.4007C52.5342 15.8356 52.8868 16.1882 53.3216 16.1882C53.7564 16.1882 54.1091 15.8356 54.1091 15.4007C54.1091 14.9659 53.7564 14.6133 53.3216 14.6133Z" fill="white"/>
<path d="M45.7873 13.2902C45.7873 11.4395 44.292 9.93359 42.4547 9.93359H36.1924V20.8836H37.3616V11.1214H42.4547C43.6345 11.1214 44.5942 12.0944 44.5942 13.2902C44.5942 14.4806 43.6477 15.4484 42.4785 15.4616L38.324 15.459V20.8836H39.4932V16.6468H42.232L44.4696 20.8809H45.8297L43.494 16.4797C44.8434 16.0316 45.7873 14.7272 45.7873 13.2902Z" fill="white"/>
<path d="M16.0956 7.76316L0.139648 4.82812L8.53653 25.954L20.2344 11.7004L16.0956 7.76316ZM15.8411 9.05701L18.283 11.3769L11.6068 12.5859L15.8411 9.05701ZM10.1565 12.3447L3.11979 6.50907L14.6188 8.62484L10.1565 12.3447ZM9.65276 13.3787L8.50737 22.8625L2.32173 7.29387L9.65276 13.3787ZM10.7133 13.8798L18.1053 12.5409L9.6289 22.8705L10.7133 13.8798Z" fill="#EB0029"/>
</g>
<defs>
<clipPath id="clip0">
<rect width="70" height="30" fill="white" transform="translate(0.139648)"/>
</clipPath>
</defs>
</svg>
