<svg width="105" height="30" viewBox="0 0 105 30" fill="none" xmlns="http://www.w3.org/2000/svg">
<g clip-path="url(#clip0)">
<path d="M38.0122 11.3267C37.7367 11.2348 37.1551 11.1736 36.5735 11.1736C34.8285 11.1736 32.9611 12.5871 32.9611 14.332V22.6535H28.9814V7.80618H32.808V9.30619C33.6958 8.20413 35.3182 7.5 37.1245 7.5C37.5761 7.50325 38.0267 7.54421 38.4715 7.62245L38.0122 11.3267Z" fill="white"/>
<path d="M42.5113 0C43.9501 0 45.1134 1.10206 45.1134 2.5409C45.1134 3.97973 43.9502 5.08171 42.5113 5.08171C41.0724 5.08171 39.9092 3.97973 39.9092 2.5409C39.9092 1.10206 41.0725 0 42.5113 0ZM44.5011 22.6537H40.5215V7.80634H44.5011V22.6536V22.6537Z" fill="white"/>
<path d="M56.2574 7.49859C54.6779 7.4786 53.1409 8.00951 51.9105 9.00004V7.80537H48.083V29.9991H52.063V21.6122C53.1949 22.5063 54.6008 22.9822 56.0431 22.9594C58.2473 22.9594 60.3591 21.979 61.6755 20.4483C62.8393 19.1011 63.5422 17.2653 63.5422 15.2444C63.5422 10.8667 60.2974 7.49859 56.2574 7.49859ZM55.7736 19.3462C53.3015 19.3462 51.6767 17.6402 51.6767 15.2574C51.6767 12.8746 53.3015 11.1686 55.7736 11.1686C57.8838 11.1686 59.5946 12.9995 59.5946 15.2574C59.5946 17.5152 57.8838 19.3462 55.7736 19.3462Z" fill="white"/>
<path d="M87.6966 22.6532H83.7168V0.917969H87.6966V22.6533V22.6532Z" fill="white"/>
<path d="M103.921 20.2962C102.483 22.0106 100.125 22.9596 97.8295 22.9596C93.3906 22.9596 90.0537 19.8984 90.0537 15.2452C90.0537 11.1124 92.8702 7.5 97.2785 7.5C101.381 7.5 104.289 10.9593 104.289 15.092C104.291 15.4716 104.26 15.8506 104.197 16.2248H93.911C94.1253 18.3064 95.8091 19.7452 97.9214 19.7452C99.605 19.7452 100.952 18.7962 101.656 18.0309L103.921 20.2962ZM100.217 13.3165C100.095 12.0002 98.901 10.7144 97.2784 10.7144C95.6253 10.7144 94.2784 11.9696 94.0947 13.3165H100.217Z" fill="white"/>
<path d="M74.0747 7.49859C72.4953 7.47861 70.9583 8.00952 69.7279 9.00004V7.80536H65.9004V29.9991H69.8804V21.6122C71.0123 22.5063 72.4182 22.9822 73.8605 22.9594C76.0648 22.9594 78.1765 21.979 79.4929 20.4483C80.6568 19.1011 81.3596 17.2653 81.3596 15.2444C81.3596 10.8667 78.1148 7.49859 74.0747 7.49859ZM73.591 19.3462C71.1189 19.3462 69.4941 17.6402 69.4941 15.2574C69.4941 12.8746 71.119 11.1686 73.591 11.1686C75.7011 11.1686 77.412 12.9995 77.412 15.2574C77.412 17.5152 75.7012 19.3462 73.591 19.3462Z" fill="white"/>
<path d="M20.777 17.2452C19.8784 16.7264 18.8665 16.576 17.8643 16.541C17.0234 16.5117 15.7688 15.9728 15.7688 14.4431C15.7688 13.3033 16.6927 12.3861 17.8647 12.3452C18.8669 12.3102 19.8787 12.1596 20.777 11.641C21.5839 11.1751 22.2539 10.505 22.7198 9.69813C23.1857 8.89122 23.4309 7.9759 23.4309 7.04417C23.4309 6.11243 23.1856 5.19711 22.7198 4.39021C22.2539 3.58331 21.5838 2.91326 20.7769 2.44741C19.97 1.98155 19.0547 1.73631 18.1229 1.73633C17.1912 1.73635 16.2759 1.98163 15.469 2.44751C14.6621 2.9134 13.9921 3.58348 13.5262 4.3904C13.0604 5.19732 12.8151 6.11264 12.8152 7.04438C12.8152 8.07277 13.1809 9.01915 13.6476 9.8969C14.0402 10.6351 14.2388 12.0053 12.8925 12.7826C11.891 13.3608 10.6412 12.9947 10.0169 11.9955C9.48958 11.1517 8.85301 10.361 7.96178 9.84633C7.15489 9.38046 6.23958 9.1352 5.30786 9.1352C4.37613 9.1352 3.46083 9.38045 2.65393 9.84631C1.84703 10.3122 1.17698 10.9822 0.711118 11.7891C0.245256 12.596 0 13.5113 0 14.443C0 15.3748 0.245256 16.2901 0.711118 17.097C1.17698 17.9039 1.84703 18.5739 2.65393 19.0398C3.46083 19.5056 4.37613 19.7509 5.30786 19.7509C6.23958 19.7509 7.15489 19.5056 7.96178 19.0398C8.85276 18.5253 9.48939 17.7351 10.0164 16.8918C10.4491 16.1992 11.5299 15.3165 12.8925 16.1037C13.8924 16.6814 14.2015 17.9473 13.6472 18.9899C13.1805 19.8675 12.8152 20.8137 12.8152 21.8419C12.8152 22.7736 13.0605 23.6889 13.5264 24.4958C13.9922 25.3027 14.6623 25.9727 15.4691 26.4386C16.276 26.9044 17.1913 27.1497 18.123 27.1497C19.0547 27.1497 19.97 26.9044 20.7769 26.4386C21.5838 25.9727 22.2539 25.3027 22.7197 24.4958C23.1856 23.6889 23.4308 22.7736 23.4308 21.8419C23.4308 20.9102 23.1856 19.9949 22.7197 19.188C22.2539 18.3811 21.5838 17.7111 20.777 17.2452Z" fill="url(#paint0_linear)"/>
</g>
<defs>
<linearGradient id="paint0_linear" x1="6.60798" y1="5.63623" x2="24.2216" y2="23.2498" gradientUnits="userSpaceOnUse">
<stop stop-color="#00AAE4"/>
<stop offset="1" stop-color="#006097"/>
</linearGradient>
<clipPath id="clip0">
<rect width="104.289" height="30" fill="white"/>
</clipPath>
</defs>
</svg>
