<svg width="151" height="30" viewBox="0 0 151 30" fill="none" xmlns="http://www.w3.org/2000/svg">
<g clip-path="url(#clip0)">
<path d="M41.2875 23.7798C40.4244 23.7798 39.5577 23.7547 38.7054 23.6974C37.8065 23.6365 36.9112 23.5112 36.0303 23.325V8.03326C36.7537 7.89359 37.5594 7.80048 38.4261 7.72885C39.2892 7.65723 40.0949 7.625 40.8434 7.625C41.8497 7.625 42.7701 7.69662 43.6117 7.84703C44.4532 7.9867 45.1766 8.2338 45.7854 8.58118C46.3942 8.93214 46.8705 9.38695 47.2108 9.95994C47.551 10.5329 47.7264 11.2348 47.7264 12.0621C47.7264 13.3227 47.1176 14.3147 45.9036 15.0417C46.9099 15.4141 47.5868 15.9405 47.9485 16.5851C48.3102 17.2405 48.4964 17.9746 48.4964 18.7912C48.4964 20.4493 47.8876 21.6883 46.6843 22.5192C45.4596 23.3715 43.6725 23.7798 41.2875 23.7798ZM39.4897 14.0031H41.2194C42.3189 14.0031 43.0888 13.8634 43.5687 13.5841C44.0342 13.3048 44.2706 12.85 44.2706 12.2304C44.2706 11.5894 44.0271 11.1453 43.5472 10.8875C43.0566 10.6296 42.3439 10.5007 41.4092 10.5007C41.1048 10.5007 40.7789 10.5007 40.428 10.5114C40.077 10.5222 39.7726 10.5365 39.4933 10.5687C39.4897 10.5687 39.4897 14.0031 39.4897 14.0031ZM39.4897 16.7141V20.7895C39.7476 20.8253 40.0269 20.8468 40.3313 20.8611C40.6357 20.8754 40.9723 20.8862 41.3376 20.8862C42.4012 20.8862 43.2535 20.7357 43.9089 20.4313C44.5643 20.1269 44.8901 19.5683 44.8901 18.7482C44.8901 18.0248 44.6216 17.4984 44.0736 17.1939C43.5257 16.8788 42.7414 16.7284 41.7244 16.7284H39.4933V16.7141H39.4897Z" fill="#4D4D4D"/>
<path d="M53.5526 8.15134C53.5526 8.77089 53.3556 9.26152 52.9438 9.62322C52.5463 9.98492 52.0664 10.1604 51.5185 10.1604C50.9921 10.1676 50.4835 9.97776 50.0932 9.62322C49.6957 9.26152 49.4844 8.78164 49.4844 8.15134C49.4844 7.53179 49.6813 7.04117 50.0932 6.67947C50.4835 6.32851 50.9921 6.13512 51.5185 6.14229C52.0449 6.13512 52.5535 6.32493 52.9438 6.67947C53.3521 7.04117 53.5526 7.53179 53.5526 8.15134ZM53.2267 23.5828H49.8389V11.6072H53.2267V23.5828Z" fill="#4D4D4D"/>
<path d="M55.0486 8.628L58.4364 8.08008V11.6075H62.5118V14.4331H58.4364V18.6374C58.4364 19.35 58.5653 19.923 58.8088 20.342C59.0524 20.761 59.5681 20.9831 60.3273 20.9831C60.7033 20.9795 61.0793 20.9472 61.4482 20.8792C61.8099 20.8147 62.1644 20.7216 62.5118 20.5999L62.9916 23.2392C62.5476 23.4183 62.0892 23.5651 61.6236 23.6725C61.1223 23.7907 60.5135 23.8587 59.7793 23.8587C58.8554 23.8587 58.0855 23.7298 57.4767 23.4863C56.8679 23.2428 56.3772 22.8918 56.0155 22.4334C55.6538 21.9894 55.396 21.4414 55.2563 20.8112C55.1059 20.1164 55.0307 19.4073 55.0343 18.6983V8.628H55.0486Z" fill="#4D4D4D"/>
<path d="M62.9915 17.599C62.9843 16.7681 63.1275 15.9409 63.4105 15.1566C63.6755 14.4153 64.0873 13.7349 64.6244 13.1583C65.1509 12.5853 65.8026 12.1412 66.5618 11.8046C67.321 11.4644 68.184 11.3032 69.1545 11.3032C69.7955 11.3032 70.3792 11.3605 70.9057 11.4787C71.4357 11.5933 71.9513 11.758 72.4491 11.9693L71.7472 14.6803C71.4034 14.5549 71.0525 14.4475 70.6944 14.3651C70.2754 14.2685 69.8492 14.2219 69.4195 14.2255C68.4132 14.2255 67.6684 14.5406 67.1778 15.1602C66.6871 15.7797 66.4436 16.5962 66.4436 17.6133C66.4436 18.6876 66.6764 19.5292 67.1312 20.113C67.5967 20.7074 68.4061 21.0011 69.5484 21.0011C69.9925 21.0011 70.433 20.9617 70.8699 20.8829C71.3139 20.8149 71.7508 20.6931 72.1662 20.5212L72.6461 23.3002C72.1662 23.4936 71.672 23.6369 71.1635 23.7335C70.5153 23.8589 69.86 23.9233 69.2011 23.9198C68.1017 23.9198 67.167 23.755 66.3756 23.4291C65.5806 23.1033 64.9396 22.6592 64.4239 22.0969C63.9082 21.5347 63.5465 20.8722 63.3138 20.1094C63.0989 19.2893 62.9915 18.4477 62.9915 17.599Z" fill="#4D4D4D"/>
<path d="M84.3232 17.5775C84.3232 18.5229 84.1835 19.3752 83.915 20.1595C83.6464 20.9438 83.2489 21.6063 82.7368 22.1578C82.214 22.7129 81.5801 23.1498 80.8783 23.4435C80.1513 23.7479 79.3492 23.8983 78.4611 23.8983C77.5837 23.8983 76.778 23.7479 76.0546 23.4435C75.3492 23.1534 74.7189 22.7129 74.1961 22.1578C73.6804 21.6099 73.2722 20.9331 72.9929 20.1595C72.6992 19.3752 72.5596 18.5122 72.5596 17.5775C72.5596 16.632 72.71 15.7797 73.0036 15.0062C73.2973 14.2362 73.7055 13.5701 74.2283 13.0329C74.7583 12.485 75.3922 12.0481 76.0976 11.758C76.821 11.4536 77.6052 11.3032 78.4575 11.3032C79.3205 11.3032 80.1155 11.4536 80.8389 11.758C81.5622 12.0624 82.1818 12.4814 82.6974 13.0329C83.2274 13.6023 83.6392 14.272 83.9006 15.0062C84.1728 15.7797 84.3232 16.632 84.3232 17.5775ZM80.8675 17.5775C80.8675 16.5246 80.6562 15.7081 80.2373 15.1136C79.8183 14.5191 79.2203 14.2147 78.4503 14.2147C77.6804 14.2147 77.0716 14.5191 76.6527 15.1136C76.2337 15.7081 76.0117 16.5389 76.0117 17.5775C76.0117 18.6303 76.2229 19.4576 76.6527 20.0664C77.0716 20.6859 77.6804 20.9903 78.4503 20.9903C79.2203 20.9903 79.8183 20.6859 80.2373 20.0664C80.6562 19.4469 80.8675 18.616 80.8675 17.5775Z" fill="#4D4D4D"/>
<path d="M89.3944 8.15134C89.3944 8.77089 89.1974 9.26152 88.7856 9.62322C88.3881 9.98492 87.9082 10.1604 87.3603 10.1604C86.8339 10.1676 86.3253 9.97776 85.935 9.62322C85.5375 9.26152 85.3262 8.78164 85.3262 8.15134C85.3262 7.53179 85.5231 7.04117 85.935 6.67947C86.3253 6.32851 86.8339 6.13512 87.3603 6.14229C87.8867 6.13512 88.3953 6.32493 88.7856 6.67947C89.1939 7.04117 89.3944 7.53179 89.3944 8.15134ZM89.0793 23.5828H85.6915V11.6072H89.0793V23.5828Z" fill="#4D4D4D"/>
<path d="M91.0059 12.0157C91.5788 11.851 92.3273 11.6898 93.2369 11.5502C94.1824 11.4033 95.1386 11.3281 96.0983 11.3281C97.1154 11.3281 97.957 11.457 98.6338 11.7256C99.3106 11.9942 99.8478 12.3667 100.235 12.8466C100.632 13.3372 100.911 13.9102 101.076 14.5763C101.241 15.2424 101.32 15.9908 101.32 16.8074V23.5722H97.9319V17.2156C97.9319 16.1162 97.7922 15.3462 97.4986 14.8914C97.2049 14.4366 96.6677 14.2146 95.887 14.2146C95.6435 14.2146 95.3857 14.2253 95.1171 14.2504C94.8485 14.2754 94.6014 14.2969 94.3937 14.3327V23.5722H91.0059V12.0157Z" fill="#4D4D4D"/>
<path d="M110.581 23.8979C108.01 23.8979 106.062 23.1852 104.719 21.7599C103.376 20.3346 102.71 18.3148 102.71 15.6863C102.71 14.3791 102.921 13.2224 103.33 12.1946C103.738 11.1668 104.3 10.3037 105.013 9.60183C105.736 8.89276 106.606 8.34484 107.559 8.00105C108.54 7.63935 109.615 7.45312 110.771 7.45312C111.437 7.45312 112.046 7.49968 112.594 7.60353C113.081 7.68232 113.561 7.79692 114.03 7.94375C114.381 8.05118 114.725 8.18369 115.058 8.34126C115.327 8.48092 115.523 8.58478 115.652 8.6564L114.625 11.5178C114.084 11.2384 113.518 11.02 112.931 10.8624C112.29 10.6762 111.552 10.5938 110.735 10.5938C110.191 10.5938 109.65 10.6869 109.135 10.8624C108.612 11.0486 108.139 11.3494 107.745 11.7398C107.348 12.1373 107.022 12.6637 106.775 13.294C106.531 13.9351 106.413 14.7086 106.413 15.6182C106.409 16.3022 106.488 16.9862 106.646 17.6523C106.81 18.2826 107.065 18.8198 107.416 19.2746C107.788 19.7437 108.268 20.1162 108.816 20.3597C109.389 20.6283 110.091 20.7572 110.907 20.7572C111.373 20.7572 111.835 20.7286 112.297 20.6641C112.669 20.614 113.035 20.5423 113.396 20.4421C113.683 20.3704 113.966 20.2773 114.238 20.1627C114.481 20.0589 114.703 19.9514 114.893 19.8691L115.874 22.7197C115.373 23.0241 114.671 23.2927 113.762 23.5362C112.834 23.7797 111.774 23.8979 110.581 23.8979Z" fill="#0AC18E"/>
<path d="M121.19 11.292C122.196 11.292 123.024 11.4102 123.69 11.6322C124.356 11.8542 124.893 12.1801 125.291 12.6135C125.699 13.0504 125.989 13.5804 126.143 14.1569C126.308 14.7657 126.386 15.4426 126.386 16.1767V23.2317C125.896 23.3355 125.23 23.4645 124.367 23.6041C123.504 23.7438 122.451 23.8262 121.226 23.8262C120.456 23.8262 119.754 23.7545 119.124 23.6149C118.493 23.4752 117.956 23.2532 117.501 22.9488C117.05 22.6408 116.689 22.2254 116.449 21.7348C116.205 21.2334 116.087 20.6246 116.087 19.8904C116.087 19.1885 116.227 18.6048 116.506 18.1142C116.771 17.6379 117.158 17.2404 117.627 16.9574C118.092 16.6638 118.633 16.4561 119.238 16.3272C119.861 16.1946 120.495 16.1302 121.129 16.1302C121.573 16.1302 121.96 16.1553 122.297 16.1875C122.637 16.2233 122.916 16.2699 123.128 16.3379V16.0227C123.128 15.4498 122.952 14.9842 122.601 14.6332C122.25 14.2823 121.645 14.1068 120.778 14.1068C120.209 14.1068 119.639 14.1498 119.074 14.2357C118.511 14.3181 118.021 14.4327 117.613 14.5867L117.179 11.8542C117.376 11.7969 117.623 11.7253 117.913 11.6573C118.207 11.5856 118.533 11.5284 118.884 11.4711C119.235 11.4138 119.596 11.3779 119.983 11.3314C120.395 11.3171 120.793 11.292 121.19 11.292ZM121.459 21.2083C121.799 21.2083 122.114 21.1976 122.415 21.1832C122.658 21.1797 122.898 21.1546 123.138 21.1116V18.5403C122.999 18.5045 122.798 18.483 122.519 18.4472C122.272 18.415 122.021 18.4007 121.77 18.4007C121.469 18.4042 121.169 18.4221 120.871 18.458C120.592 18.4938 120.345 18.5618 120.137 18.68C119.933 18.7767 119.761 18.9271 119.636 19.1133C119.511 19.3174 119.446 19.5502 119.45 19.7902C119.45 20.3166 119.625 20.689 119.987 20.8896C120.349 21.1152 120.839 21.2083 121.459 21.2083Z" fill="#0AC18E"/>
<path d="M131.654 21.151C132.273 21.151 132.717 21.0937 132.975 20.9648C133.233 20.8466 133.362 20.6031 133.362 20.2629C133.362 19.9943 133.197 19.7472 132.861 19.5502C132.521 19.3389 132.019 19.1169 131.332 18.8626C130.805 18.6657 130.314 18.4651 129.885 18.2431C129.451 18.0318 129.079 17.7775 128.785 17.4839C128.477 17.1831 128.241 16.8214 128.083 16.4203C127.919 16.012 127.84 15.5214 127.84 14.9376C127.84 13.8167 128.259 12.9286 129.09 12.2732C129.921 11.6179 131.063 11.292 132.524 11.292C133.226 11.292 133.924 11.36 134.615 11.489C135.282 11.6179 135.819 11.7575 136.206 11.908L135.611 14.5473C135.188 14.4005 134.762 14.2787 134.325 14.1856C133.813 14.0746 133.294 14.0173 132.771 14.0209C131.708 14.0209 131.181 14.3145 131.181 14.909C131.178 15.0343 131.203 15.1561 131.253 15.2707C131.314 15.3925 131.407 15.4999 131.521 15.5751C131.7 15.6969 131.887 15.8007 132.084 15.8902C132.374 16.0335 132.674 16.1553 132.982 16.2627C133.731 16.542 134.336 16.8106 134.827 17.0792C135.317 17.3478 135.69 17.6414 135.973 17.9423C136.241 18.2395 136.445 18.5869 136.567 18.9701C136.685 19.3425 136.743 19.7866 136.743 20.2915C136.743 21.4697 136.299 22.3722 135.411 22.9667C134.522 23.5755 133.273 23.8763 131.65 23.8763C130.587 23.8763 129.699 23.7832 129 23.6077C128.298 23.4215 127.808 23.2675 127.528 23.1529L128.101 20.3954C128.678 20.621 129.272 20.8001 129.878 20.9326C130.458 21.0794 131.056 21.151 131.654 21.151Z" fill="#0AC18E"/>
<path d="M138.002 23.5829V6.46833L141.39 5.92041V11.6575C141.676 11.568 141.97 11.4927 142.267 11.4354C142.607 11.3674 142.958 11.3316 143.306 11.3316C144.276 11.3316 145.082 11.4605 145.723 11.7291C146.364 11.9977 146.88 12.3701 147.267 12.85C147.653 13.3406 147.922 13.9136 148.083 14.5797C148.248 15.2458 148.316 15.9943 148.316 16.8108V23.5757H144.928V17.2155C144.928 16.1161 144.788 15.3461 144.509 14.8913C144.23 14.4365 143.703 14.2145 142.955 14.2145C142.668 14.2109 142.382 14.2395 142.102 14.2968C141.834 14.3541 141.601 14.4007 141.39 14.4723V23.5721H138.002V23.5829Z" fill="#0AC18E"/>
<path d="M15.1283 29.9824C23.3092 29.9824 29.9412 23.3504 29.9412 15.1694C29.9412 6.98844 23.3092 0.356445 15.1283 0.356445C6.94737 0.356445 0.31543 6.98844 0.31543 15.1694C0.31543 23.3504 6.94737 29.9824 15.1283 29.9824Z" fill="#0AC18E"/>
<path d="M19.7354 10.2118C18.9932 8.52571 17.2893 8.17543 15.1994 8.51977L14.5286 5.92529L12.9434 6.33495L13.6024 8.92943C13.1868 9.0363 12.7593 9.12535 12.3378 9.24409L11.6728 6.66742L10.0876 7.07708L10.7585 9.67749C10.4201 9.77249 7.57031 10.5087 7.57031 10.5087L8.00966 12.2007C8.00966 12.2007 9.17332 11.8742 9.16145 11.9039C9.80265 11.7376 10.1054 12.0582 10.2539 12.361L12.0944 19.4855C12.1181 19.6933 12.0825 20.0495 11.6372 20.1623C11.661 20.1742 10.4854 20.4591 10.4854 20.4591L10.6576 22.4302C10.6576 22.4302 13.4777 21.7059 13.8517 21.6169L14.5345 24.247L16.1138 23.8373L15.4369 21.1894C15.8763 21.0885 16.2919 20.9816 16.7075 20.8747L17.3843 23.5108L18.9695 23.1011L18.2927 20.4769C20.7269 19.8832 22.4486 18.3515 22.0924 16.0004C21.8668 14.5874 20.3231 13.4238 19.0348 13.2931C19.8244 12.5748 20.2281 11.5536 19.7354 10.2118ZM18.9754 16.4101C19.2901 18.7374 16.0603 19.0224 14.9857 19.3014L14.0536 15.8223C15.1341 15.5433 18.447 14.3618 18.9754 16.4101ZM17.0281 11.6783C17.3605 13.7444 14.5998 13.9878 13.7033 14.2193L12.8543 11.0608C13.7508 10.8293 16.3512 9.76061 17.0281 11.6783Z" fill="white"/>
</g>
<defs>
<clipPath id="clip0">
<rect width="150" height="30" fill="white" transform="translate(0.31543)"/>
</clipPath>
</defs>
</svg>
