<svg width="105" height="30" viewBox="0 0 105 30" fill="none" xmlns="http://www.w3.org/2000/svg">
<g clip-path="url(#clip0)">
<path d="M38.0122 11.3267C37.7367 11.2348 37.1551 11.1736 36.5735 11.1736C34.8285 11.1736 32.9611 12.5871 32.9611 14.332V22.6535H28.9814V7.80618H32.808V9.30619C33.6958 8.20413 35.3182 7.5 37.1245 7.5C37.5761 7.50325 38.0267 7.54421 38.4715 7.62245L38.0122 11.3267Z" fill="#434C54"/>
<path d="M42.5113 0C43.9501 0 45.1134 1.10206 45.1134 2.5409C45.1134 3.97973 43.9502 5.08171 42.5113 5.08171C41.0724 5.08171 39.9092 3.97973 39.9092 2.5409C39.9092 1.10206 41.0725 0 42.5113 0ZM44.5011 22.6537H40.5215V7.80634H44.5011V22.6536V22.6537Z" fill="#434C54"/>
<path d="M56.2574 7.49957C54.6779 7.47957 53.1409 8.01048 51.9105 9.00101V7.80634H48.083V30.0001H52.063V21.6131C53.1949 22.5073 54.6008 22.9832 56.0431 22.9604C58.2473 22.9604 60.3591 21.98 61.6755 20.4493C62.8393 19.1021 63.5422 17.2663 63.5422 15.2454C63.5422 10.8677 60.2974 7.49957 56.2574 7.49957ZM55.7736 19.3472C53.3015 19.3472 51.6767 17.6412 51.6767 15.2584C51.6767 12.8755 53.3015 11.1696 55.7736 11.1696C57.8838 11.1696 59.5946 13.0005 59.5946 15.2584C59.5946 17.5162 57.8838 19.3472 55.7736 19.3472Z" fill="#434C54"/>
<path d="M87.6966 22.6537H83.7168V0.918457H87.6966V22.6538V22.6537Z" fill="#434C54"/>
<path d="M103.921 20.2962C102.483 22.0106 100.125 22.9596 97.8295 22.9596C93.3906 22.9596 90.0537 19.8984 90.0537 15.2452C90.0537 11.1124 92.8702 7.5 97.2785 7.5C101.381 7.5 104.289 10.9593 104.289 15.092C104.291 15.4716 104.26 15.8506 104.197 16.2248H93.911C94.1253 18.3064 95.8091 19.7452 97.9214 19.7452C99.605 19.7452 100.952 18.7962 101.656 18.0309L103.921 20.2962ZM100.217 13.3165C100.095 12.0002 98.901 10.7144 97.2784 10.7144C95.6253 10.7144 94.2784 11.9696 94.0947 13.3165H100.217Z" fill="#434C54"/>
<path d="M74.0747 7.49957C72.4953 7.47959 70.9583 8.0105 69.7279 9.00101V7.80634H65.9004V30.0001H69.8804V21.6131C71.0123 22.5073 72.4182 22.9832 73.8605 22.9604C76.0648 22.9604 78.1765 21.98 79.4929 20.4493C80.6568 19.1021 81.3596 17.2663 81.3596 15.2454C81.3596 10.8677 78.1148 7.49957 74.0747 7.49957ZM73.591 19.3472C71.1189 19.3472 69.4941 17.6412 69.4941 15.2584C69.4941 12.8755 71.119 11.1696 73.591 11.1696C75.7011 11.1696 77.412 13.0005 77.412 15.2583C77.412 17.5162 75.7012 19.3472 73.591 19.3472Z" fill="#434C54"/>
<path d="M20.777 17.2442C19.8784 16.7254 18.8665 16.5751 17.8643 16.5401C17.0234 16.5107 15.7688 15.9718 15.7688 14.4421C15.7688 13.3024 16.6927 12.3851 17.8647 12.3442C18.8669 12.3092 19.8787 12.1586 20.777 11.64C21.5839 11.1741 22.2539 10.5041 22.7198 9.69715C23.1857 8.89024 23.4309 7.97492 23.4309 7.04319C23.4309 6.11146 23.1856 5.19614 22.7198 4.38924C22.2539 3.58234 21.5838 2.91229 20.7769 2.44643C19.97 1.98058 19.0547 1.73533 18.1229 1.73535C17.1912 1.73537 16.2759 1.98065 15.469 2.44654C14.6621 2.91242 13.9921 3.5825 13.5262 4.38942C13.0604 5.19634 12.8151 6.11167 12.8152 7.0434C12.8152 8.0718 13.1809 9.01817 13.6476 9.89592C14.0402 10.6342 14.2388 12.0044 12.8925 12.7816C11.891 13.3598 10.6412 12.9937 10.0169 11.9946C9.48958 11.1507 8.85301 10.36 7.96178 9.84535C7.15489 9.37949 6.23958 9.13423 5.30786 9.13422C4.37613 9.13422 3.46083 9.37948 2.65393 9.84534C1.84703 10.3112 1.17698 10.9812 0.711118 11.7881C0.245256 12.595 0 13.5103 0 14.4421C0 15.3738 0.245256 16.2891 0.711118 17.096C1.17698 17.9029 1.84703 18.5729 2.65393 19.0388C3.46083 19.5047 4.37613 19.7499 5.30786 19.7499C6.23958 19.7499 7.15489 19.5047 7.96178 19.0388C8.85276 18.5243 9.48939 17.7342 10.0164 16.8908C10.4491 16.1982 11.5299 15.3155 12.8925 16.1027C13.8924 16.6805 14.2015 17.9463 13.6472 18.9889C13.1805 19.8665 12.8152 20.8127 12.8152 21.8409C12.8152 22.7726 13.0605 23.6879 13.5264 24.4948C13.9922 25.3017 14.6623 25.9718 15.4691 26.4376C16.276 26.9035 17.1913 27.1487 18.123 27.1487C19.0547 27.1487 19.97 26.9035 20.7769 26.4376C21.5838 25.9718 22.2539 25.3017 22.7197 24.4948C23.1856 23.6879 23.4308 22.7726 23.4308 21.8409C23.4308 20.9092 23.1856 19.9939 22.7197 19.187C22.2539 18.3801 21.5838 17.7101 20.777 17.2442Z" fill="url(#paint0_linear)"/>
</g>
<defs>
<linearGradient id="paint0_linear" x1="6.60798" y1="5.63526" x2="24.2216" y2="23.2488" gradientUnits="userSpaceOnUse">
<stop stop-color="#00AAE4"/>
<stop offset="1" stop-color="#006097"/>
</linearGradient>
<clipPath id="clip0">
<rect width="104.289" height="30" fill="white"/>
</clipPath>
</defs>
</svg>
